<svg xmlns="http://www.w3.org/2000/svg" xmlns:xlink="http://www.w3.org/1999/xlink" width="16" height="16" viewBox="0 0 16 16"><defs><style>.a{fill:#e3493b;}.b{clip-path:url(#a);}</style><clipPath id="a"><rect class="a" width="16" height="16" transform="translate(927 3530)"/></clipPath></defs><g class="b" transform="translate(-927 -3530)"><g transform="translate(926.654 3530)"><path class="a" d="M8,16H7.867a.718.718,0,0,1-.533-.667V10.4L5.6,11.267a.925.925,0,0,1-.6,0C4.8,11.2,4.733,11,4.667,10.8l-2-10A.718.718,0,0,1,2.8.267.606.606,0,0,1,3.333,0H10a.606.606,0,0,1,.533.267A.718.718,0,0,1,10.667.8L9.6,5.733l3.533-1.067a.752.752,0,0,1,.733.2.6.6,0,0,1,.067.733L8.6,15.6A.641.641,0,0,1,8,16ZM8,8.667a2.887,2.887,0,0,1,.333.067.7.7,0,0,1,.333.6v3.333L12,6.4l-3.133.933A.821.821,0,0,1,8.2,7.2.538.538,0,0,1,8,6.6L9.2,1.333H4.133L5.8,9.667l1.867-.933A.6.6,0,0,1,8,8.667Z"/></g></g></svg>