<svg xmlns="http://www.w3.org/2000/svg" width="2199.903" height="480.929" viewBox="0 0 2199.903 480.929">
  <g id="Group_235" data-name="Group 235" transform="translate(1.674 -4332.006)">
    <path id="Union_2" data-name="Union 2" d="M1.895,479.993V262.672L0,258.6V171.1S150.427,63.881,317.845,69.244,725.6,129.9,963.122,131.254,1404.615,0,1607.495,0s361.641,115.3,504.231,117.285c34.151.476,55.927.547,69.292.381l-6.237,221.782V479.993ZM2181.114,114.219s42.341,2.921-.1,3.447Z" transform="translate(-1.674 4332.006)" fill="#4abae9"/>
    <path id="Union_3" data-name="Union 3" d="M.153,433.607V300.018L0,299.324V168.907S138.883,58.106,309.452,63.47,734.239,129.1,976.244,130.461,1432.368,0,1639.074,0s294.534,110.018,439.815,112c59.676.815,86.915.96,98.291.849V409.172l-2.112.2v24.24ZM2177.179,112s16.319.689,0,.849Z" transform="translate(-0.135 4379.328)" fill="#23a2d8"/>
  </g>
</svg>
