<svg id="Layer_1" data-name="Layer 1" xmlns="http://www.w3.org/2000/svg" width="216" height="216" viewBox="0 0 500 500"><defs><style>.cls-1{fill:#606060;}</style></defs><title>fun park</title><path d="M341.0055,340.5137c7.2465-1.0394,14.1185-1.8792,21.0811-2.5928-.1089,6.1106-.2175,12.112-.3264,17.92l-313.232,79.405c20.6338-16.3487,54.6308-29.73,63.4612-33.35,13.0909-5.3675,38.4816-15.7083,46.9067-18.4947,8.1292-2.6773,13.2967-4.3878,14.3485-4.7443q4.7409-1.5865,8.8421-2.9617c14.6624-4.968,32.2382-9.7848,49.3-13.9914,24.7558-6.0864,48.4782-10.94,63.0078-13.7865.6165-.121,1.2693-.2355,1.9221-.3683,12.88-2.0067,25.8558-4.1705,38.1611-6.0622l.2116-.03C336.8412,341.1181,338.9385,340.8159,341.0055,340.5137Z"/><path d="M56.7356,479.4755l304.2812-83.17c-.2417,13.1573-.417,22.4227-.4713,25.372-6.5034,2.5746-13.1154,5.1917-19.6669,7.827-.6348.23-1.2513.4533-1.8495.6646-14.0521,4.95-37.2427,12.8918-62.494,20.3381-17.4309,5.1373-35.8406,10.0267-52.0624,13.2907q-4.5241.9331-9.7367,2c-1.2755.2779-3.9648.7194-14.9587,3.13-11.4834,2.5209-41.7936,6.7634-54.4983,8.3529C135.6755,478.49,87.01,486.1,56.7356,479.4755Z"/><path d="M37.4075,446.2038l324.2078-82.1849c-.1573,8.6669-.3084,16.79-.4412,24.0606L43.4694,474.9183l-.0062-.0059c-4.8469-2.5444-8.401-5.8987-10.1174-10.2746C30.9342,458.503,32.8382,452.26,37.4075,446.2038Z"/><path d="M347.4723,12.2445c.9249-.1694,1.8495-.3264,2.7682-.4654C349.3218,11.9119,348.3972,12.0692,347.4723,12.2445Z"/><path d="M499.8275,448.9478V177.7027a88.5311,88.5311,0,0,0-.5135-16.5057A112.2673,112.2673,0,0,0,474.63,102.7339c-26.5147-32.2865-56.142-67.7462-58.626-70.72a69.067,69.067,0,0,0-17.9081-17.6363,68.3126,68.3126,0,0,0-10.2687-5.796c-.713-.3264-1.4443-.6407-2.1877-.9491-1.1244-.4654-2.2786-.9066-3.4753-1.3236a67.2883,67.2883,0,0,0-22.23-3.7169A77.1539,77.1539,0,0,0,343.8522,4.339c-6.026,1.2873-15.1641,3.2333-26.4785,5.6391-9.4528,2.0185-20.4162,4.3514-32.3591,6.8959h-.0059C224.8959,29.6689,140.2022,47.6859,100.8081,56.0689h-.0062C88.406,58.71,80.4943,60.3905,79.2433,60.6561a38.9052,38.9052,0,0,0-10.2262,3.2032C61.36,67.3528,51.1211,74.5152,44.0558,89.0265c-11,22.5679-26.0615,52.7208-27.1858,54.9631-.7313,1.2631-4.7747,8.6433-7.8509,22.683a165.7168,165.7168,0,0,0-3.5659,32.4559v.1328C4.8547,235.1441.0559,348.2681.0075,349.4043l-.0059.1092c-.0121.7006-.1815,17.3456,10.8064,28.5333,6.322,6.4364,14.9165,9.7,25.5356,9.7,33.5257,0,45.4321-5.8568,45.4321-38.7661,0-24.6951,2.6654-113.6859,3.433-138.7014.1207-4.0437.1933-6.4128.2-6.5757l.0059-.1694-.0059-.1635a54.9172,54.9172,0,0,1,5.0465-23.4261c.2721-.5743.5563-1.16.8523-1.7648,3.4451-7.1134,8.2681-16.3245,11.8281-23.0271,1.2147-2.2847,2.2783-4.2791,3.0943-5.8025.1269-.2355.2538-.4651.3686-.6829.1753-.3205.3325-.6162.4774-.8824q.1633-.2993.29-.5442c.1449-.278.2659-.4952.3565-.6646h.0059a.4211.4211,0,0,1,.0726-.0726c.8219-.7979,4.6419-3.9043,14.9286-4.7566,1.0636-.09,3.058-.2656,5.8445-.5259,24.7133-2.2842,111.6614-10.6672,161.2457-15.46,15.5268-1.4927,27.3909-2.6407,32.5345-3.1364.8882-.0844,1.5711-.1511,2.0427-.2a34.8761,34.8761,0,0,1,16.47,11.1328c5.5906,6.7935,16.7052,22.1146,23.4019,31.4467,2.883,4.007,4.944,6.9139,5.3973,7.5549.4595.7974,4.3034,7.7845,5.899,21.2747a103.9689,103.9689,0,0,1,.6888,12.16c0,13.0736-1.0757,76.069-2.0548,130.8149-.1027,5.4153-.2,10.7521-.29,15.95-.0484,2.7681-.1027,5.5-.1511,8.1776v.0059c-.1511,8.51-.3022,16.53-.4353,23.8132v.0059q-.0722,4.2887-.1511,8.22c-.1933,10.3591-.3444,18.6512-.4412,23.8369-.06,3.2156-.0965,5.24-.1086,5.8326-.29,3.0763-2.8225,35.5624,16.403,56.879,10.6978,11.8647,25.9646,17.8779,45.3778,17.8779,28.3279,0,46.7981-4.7442,56.4743-14.5113,9.1748-9.253,9.06-21.3349,8.9694-31.0477C499.84,450.876,499.8275,449.9028,499.8275,448.9478ZM76.9467,203.583c-.0182.5436-.0787,2.4777-.1753,5.518-.7253,23.7041-3.4572,114.7619-3.4572,139.88,0,13.8107-1.9581,21.015-6.751,24.8769-4.8531,3.9043-13.3267,5.4277-30.22,5.4277-8.244,0-14.79-2.4-19.4553-7.1258C8.59,363.7586,8.4631,350.462,8.4631,349.6947c.1449-3.3666,4.7805-112.8159,5.4395-149.3816,0-.3081.0059-.61.0121-.9125.0664-3.9769.2538-7.7184.5318-11.2178L26.45,189.8573l38.7959,5.4271,11.973,1.6745A53.2483,53.2483,0,0,0,76.9467,203.583Zm23.7345-61.733-.2.3264c-.0363.0785-1.523,2.8107-3.6809,6.8661-3.9286,7.3613-10.0994,19.0926-13.9854,27.2643-.1027.2172-.2057.4291-.2963.6463a59.2633,59.2633,0,0,0-3.9345,11.6529l-12.0093-1.6739L27.32,181.4377,15.341,179.7638c.5923-4.4544,1.3236-8.419,2.1092-11.9126,2.9617-13.1337,6.7029-19.5459,6.7572-19.6427l.1694-.3022c.157-.3146,15.8953-31.7973,27.282-55.1749C57.4067,80.9274,65.5055,74.9443,71.6521,71.94a30.8129,30.8129,0,0,1,8.8121-2.9127l.3807-.0667c.1269-.0242.9429-.2,2.3813-.5076l3.7715,11.5619,14.995,45.958,3.79,11.6287A14.4255,14.4255,0,0,0,100.6812,141.85Zm188.7636-24.544c-50.92,4.9137-141.8869,13.6832-163.5606,15.6658-1.7648.1629-3.07.278-3.856.3441a53.9754,53.9754,0,0,0-8.3162,1.3l-3.7536-11.5076L95.32,78.2443,91.5487,66.6882c3.3061-.7071,7.3073-1.5535,11.8945-2.5327,39.4608-8.3947,122.3652-26.031,181.9462-38.7111,4.11-.8765,8.1167-1.7285,11.9851-2.5566l.5439,12.251,3.04,68.9125.538,12.0878C297.8157,116.4962,293.7782,116.8887,289.4448,117.306ZM484.8629,476.9434c-7.8934,7.9657-24.8707,12.0028-50.4608,12.0028-16.8926,0-30.0381-5.0588-39.0618-15.049a51.0469,51.0469,0,0,1-9.9424-17.0681q-.29-.78-.5439-1.5594a86.8569,86.8569,0,0,1-3.8016-31.936l.0242-.3565c.0062-.2538.0664-3.729.1815-9.64.1027-5.5966.2476-13.3811.4229-22.6771v-.0059q.0726-3.9434.1511-8.22c.1331-7.2828.278-15.2491.4291-23.65q.0726-4.0257.151-8.1776v-.0059c.0847-4.7206.1694-9.5434.2541-14.4393.9851-54.5948,2.0487-117.1127,2.0487-130.168a112.0627,112.0627,0,0,0-.6345-12.16,90.4065,90.4065,0,0,0-2.0973-12.0878H491.366V448.9478c0,.9851.0121,1.9761.0183,2.9794C491.4687,460.9087,491.5534,470.1924,484.8629,476.9434ZM379.3118,173.2849a34.2786,34.2786,0,0,0-2.52-5.2949l-.1269-.1871c-.2417-.3388-2.0548-2.8951-4.7144-6.6059-6.6179-9.2411-18.5-25.6689-24.5564-33.0184A42.8677,42.8677,0,0,0,325.66,114.012l-.6587-.1452-.6649.0667c-.1148.0118-.9308.09-2.357.23-2.4055.23-6.5516.6286-12.0516,1.16l-.5321-12.0879L306.3073,33.35l-.5439-12.2452q6.31-1.3418,11.9851-2.55c11.9548-2.5445,21.5949-4.6,27.8684-5.9354.6224-.1328,1.2392-.26,1.8554-.3745.9249-.1753,1.8495-.3326,2.7682-.4654.6106-.0909,1.215-.1753,1.8253-.2479q.9064-.1087,1.8131-.1994,3.1643-.2992,6.25-.3022a57.3838,57.3838,0,0,1,23.2508,4.7988q1.487.6529,2.9556,1.3962t2.9072,1.5715c.6406.3685,1.2689.7492,1.9037,1.1482.6286.3928,1.2572.8039,1.8858,1.2268a60.8348,60.8348,0,0,1,15.98,15.6056l.1511.2479.1874.2234c.3081.3689,31.2047,37.3274,58.7467,70.8588a104.5,104.5,0,0,1,22.6045,53.09,95.4157,95.4157,0,0,1,.8036,12.0879Z"/><path class="cls-1" d="M347.4723,12.2445c.9249-.1694,1.8495-.3264,2.7682-.4654C349.3218,11.9119,348.3972,12.0692,347.4723,12.2445Zm0,0c.9249-.1694,1.8495-.3264,2.7682-.4654C349.3218,11.9119,348.3972,12.0692,347.4723,12.2445Zm0,0c.9249-.1694,1.8495-.3264,2.7682-.4654C349.3218,11.9119,348.3972,12.0692,347.4723,12.2445Zm0,0c.9249-.1694,1.8495-.3264,2.7682-.4654C349.3218,11.9119,348.3972,12.0692,347.4723,12.2445Zm0,0c.9249-.1694,1.8495-.3264,2.7682-.4654C349.3218,11.9119,348.3972,12.0692,347.4723,12.2445Zm0,0c.9249-.1694,1.8495-.3264,2.7682-.4654C349.3218,11.9119,348.3972,12.0692,347.4723,12.2445Zm0,0c.9249-.1694,1.8495-.3264,2.7682-.4654C349.3218,11.9119,348.3972,12.0692,347.4723,12.2445Zm0,0c.9249-.1694,1.8495-.3264,2.7682-.4654C349.3218,11.9119,348.3972,12.0692,347.4723,12.2445Zm0,0c.9249-.1694,1.8495-.3264,2.7682-.4654C349.3218,11.9119,348.3972,12.0692,347.4723,12.2445Zm0,0c.9249-.1694,1.8495-.3264,2.7682-.4654C349.3218,11.9119,348.3972,12.0692,347.4723,12.2445Zm0,0c.9249-.1694,1.8495-.3264,2.7682-.4654C349.3218,11.9119,348.3972,12.0692,347.4723,12.2445Zm0,0c.9249-.1694,1.8495-.3264,2.7682-.4654C349.3218,11.9119,348.3972,12.0692,347.4723,12.2445Zm0,0c.9249-.1694,1.8495-.3264,2.7682-.4654C349.3218,11.9119,348.3972,12.0692,347.4723,12.2445Zm0,0c.9249-.1694,1.8495-.3264,2.7682-.4654C349.3218,11.9119,348.3972,12.0692,347.4723,12.2445Zm0,0c.9249-.1694,1.8495-.3264,2.7682-.4654C349.3218,11.9119,348.3972,12.0692,347.4723,12.2445Z"/><path class="cls-1" d="M107.7223,146.5765c-.0906.1694-.2116.3866-.3565.6646.1511-.278.2718-.4952.3624-.6646Z"/></svg>