<svg xmlns="http://www.w3.org/2000/svg" width="20" height="20" viewBox="0 0 20 20">
  <g id="Dribbble-Light-Preview" transform="translate(-340 -7438.997)">
    <g id="icons" transform="translate(56 160)">
      <path id="instagram-_167_" data-name="instagram-[#167]" d="M289.87,7279.12a5.513,5.513,0,0,0-5.789,5.774c-.045,1-.313,8.6.463,10.593a5.041,5.041,0,0,0,2.91,2.9,7.322,7.322,0,0,0,2.416.461c8.86.4,12.145.183,13.53-3.364a7.236,7.236,0,0,0,.462-2.41c.4-8.883-.066-10.809-1.61-12.351-1.225-1.222-2.666-2.054-12.382-1.606m.081,17.944a5.51,5.51,0,0,1-1.848-.341,3.257,3.257,0,0,1-1.888-1.883c-.591-1.514-.4-8.7-.342-9.866a4.243,4.243,0,0,1,1.086-2.985c.995-.992,2.28-1.479,11.034-1.084a4.272,4.272,0,0,1,2.992,1.084c.995.993,1.489,2.288,1.087,11.008a5.481,5.481,0,0,1-.342,1.843c-.9,2.308-2.973,2.628-11.779,2.224m8.139-13.377a1.195,1.195,0,1,0,1.194-1.195,1.192,1.192,0,0,0-1.194,1.195m-9.226,5.3a5.11,5.11,0,1,0,5.109-5.1,5.1,5.1,0,0,0-5.109,5.1m1.794,0a3.316,3.316,0,1,1,3.316,3.311,3.313,3.313,0,0,1-3.316-3.311" fill="#3498db" fill-rule="evenodd"/>
    </g>
  </g>
</svg>
