<svg xmlns="http://www.w3.org/2000/svg" xmlns:xlink="http://www.w3.org/1999/xlink" width="48" height="48" viewBox="0 0 48 48"><defs><style>.a{fill:#d1d1d1;}.b{clip-path:url(#a);}.c{fill:rgba(0,0,0,0);stroke:#e39fa2;stroke-linecap:square;stroke-width:4px;}</style><clipPath id="a"><rect class="a" width="48" height="48" transform="translate(180 2610)"/></clipPath></defs><g class="b" transform="translate(-180 -2610)"><g transform="translate(172.413 2607.94)"><path class="c" d="M20.537,22.437a5.134,5.134,0,0,1,1.235-3.342l12.3-14.35a3.676,3.676,0,0,1,4.436-.893,3.3,3.3,0,0,1,1.658,4L35.94,20.537H47.759a5.134,5.134,0,0,1,5.05,6.053l-3.265,17.97a5.134,5.134,0,0,1-5.055,4.215H25.672a5.134,5.134,0,0,1-5.134-5.134Z"/><path class="c" d="M10.269,46.209V23.1"/></g></g></svg>