<svg xmlns="http://www.w3.org/2000/svg" width="20" height="20" viewBox="0 0 20 20"><defs><style>.a{fill:#3498db;fill-rule:evenodd;}</style></defs><g transform="translate(0 0)"><g transform="translate(-180 -7479)"><g transform="translate(56 160)"><path class="a" d="M144,7339h-4v-7c0-1.92-.847-2.991-2.366-2.991-1.653,0-2.634,1.116-2.634,2.991v7h-4v-13h4v1.462a4.821,4.821,0,0,1,4.083-2.2c2.829,0,4.917,1.726,4.917,5.3Zm-17.558-15.079a2.461,2.461,0,1,1,2.441-2.46,2.451,2.451,0,0,1-2.441,2.46ZM124,7339h5v-13h-5Z"/></g></g></g></svg>