<svg xmlns="http://www.w3.org/2000/svg" width="134.131" height="89.693" viewBox="0 0 134.131 89.693"><defs><style>.a,.b{fill:#111;}.a{fill-rule:evenodd;}</style></defs><g transform="translate(499.021 682.732)"><path class="a" d="M-499.021-558.917h2.76v.939h-.911v4.053h-.966v-4.053h-.883v-.939Zm5.721-.125a2.476,2.476,0,0,1,1.82.767,2.548,2.548,0,0,1,.763,1.869,2.52,2.52,0,0,1-.752,1.849,2.475,2.475,0,0,1-1.824.757,2.473,2.473,0,0,1-1.867-.777,2.578,2.578,0,0,1-.744-1.846,2.6,2.6,0,0,1,.346-1.316,2.569,2.569,0,0,1,.951-.951,2.564,2.564,0,0,1,1.306-.351Zm-.014.932a1.556,1.556,0,0,0-1.16.482,1.677,1.677,0,0,0-.47,1.225,1.6,1.6,0,0,0,.592,1.309,1.617,1.617,0,0,0,1.055.377,1.536,1.536,0,0,0,1.146-.489,1.659,1.659,0,0,0,.474-1.2,1.669,1.669,0,0,0-.477-1.206,1.552,1.552,0,0,0-1.16-.494Zm3.939-.806h.921l1.162,3.482,1.168-3.482h.919l.837,4.992h-.917l-.533-3.153-1.056,3.153h-.839l-1.052-3.153-.543,3.153h-.927l.861-4.992Zm7.264,0h.957l1.921,4.992h-.988l-.389-1.029h-2.046l-.4,1.029h-.988l1.933-4.992Zm.48,1.327-.677,1.719h1.35l-.673-1.719Zm5.719-.648-.7.621a1,1,0,0,0-.754-.514.46.46,0,0,0-.306.1.292.292,0,0,0-.119.226.385.385,0,0,0,.084.238,6.571,6.571,0,0,0,.7.641q.544.455.66.573a2.014,2.014,0,0,1,.41.557,1.406,1.406,0,0,1,.121.582,1.333,1.333,0,0,1-.425,1.015,1.55,1.55,0,0,1-1.109.4,1.651,1.651,0,0,1-.929-.261,2.067,2.067,0,0,1-.679-.822l.8-.482q.362.66.831.66a.613.613,0,0,0,.412-.142.424.424,0,0,0,.167-.329.567.567,0,0,0-.126-.339,3.632,3.632,0,0,0-.555-.519,5.552,5.552,0,0,1-1.054-1.025,1.3,1.3,0,0,1-.239-.721,1.178,1.178,0,0,1,.4-.89,1.373,1.373,0,0,1,.977-.372,1.546,1.546,0,0,1,.711.173,2.586,2.586,0,0,1,.732.631Zm.691-.679h3.024l-1.782,4.074h1.664v.918h-3.052l1.773-4.053h-1.627v-.939Zm10.3.816-.668.661a1.978,1.978,0,0,0-1.48-.671,1.69,1.69,0,0,0-1.233.488,1.6,1.6,0,0,0-.5,1.187,1.643,1.643,0,0,0,.516,1.224,1.754,1.754,0,0,0,1.272.5,1.561,1.561,0,0,0,.83-.208,1.456,1.456,0,0,0,.544-.648h-1.445v-.89h2.51l.007.21A2.446,2.446,0,0,1-464.9-555a2.391,2.391,0,0,1-.879.9,2.52,2.52,0,0,1-1.268.308,2.82,2.82,0,0,1-1.387-.337,2.483,2.483,0,0,1-.965-.962,2.688,2.688,0,0,1-.354-1.348,2.5,2.5,0,0,1,.656-1.723,2.584,2.584,0,0,1,2.024-.873,3.085,3.085,0,0,1,1.22.241,2.8,2.8,0,0,1,.937.7Zm2.711-.816h.957l1.921,4.992h-.988l-.389-1.029h-2.046l-.4,1.029h-.988l1.933-4.992Zm.48,1.327-.677,1.719h1.35l-.673-1.719Zm3.16-1.327h1.009a3.337,3.337,0,0,1,1.179.147,1.206,1.206,0,0,1,.565.491,1.5,1.5,0,0,1,.214.811,1.385,1.385,0,0,1-.235.823,1.423,1.423,0,0,1-.71.5l1.178,2.219h-1.038l-1.122-2.114h-.1v2.114h-.946v-4.992Zm.946,1.954h.3a1.183,1.183,0,0,0,.631-.119.45.45,0,0,0,.173-.4.485.485,0,0,0-.086-.285.464.464,0,0,0-.229-.174,1.72,1.72,0,0,0-.527-.053h-.263v1.029Zm2.978,3.038v-4.992h.788a4.085,4.085,0,0,1,1,.088,1.35,1.35,0,0,1,.716.441,1.161,1.161,0,0,1,.267.761,1.115,1.115,0,0,1-.121.518,1.315,1.315,0,0,1-.391.437,1.559,1.559,0,0,1,.664.534,1.347,1.347,0,0,1,.21.758,1.411,1.411,0,0,1-.218.766,1.391,1.391,0,0,1-.563.517,2.158,2.158,0,0,1-.95.172Zm.946-4.088v1.057h.212a.8.8,0,0,0,.527-.147.5.5,0,0,0,.171-.4.465.465,0,0,0-.163-.373.761.761,0,0,0-.5-.138Zm0,1.9v1.279h.241a1.51,1.51,0,0,0,.809-.149.5.5,0,0,0,.208-.435.6.6,0,0,0-.245-.509,1.369,1.369,0,0,0-.813-.187Zm4.581-2.809h.957l1.921,4.992h-.988l-.389-1.029h-2.046l-.4,1.029h-.988l1.933-4.992Zm.48,1.327-.677,1.719h1.35l-.673-1.719Zm7.686-.451-.666.633a2.063,2.063,0,0,0-1.528-.716,1.645,1.645,0,0,0-1.207.489,1.629,1.629,0,0,0-.491,1.2,1.775,1.775,0,0,0,.218.885,1.559,1.559,0,0,0,.614.608,1.79,1.79,0,0,0,.884.22,1.818,1.818,0,0,0,.757-.154,2.7,2.7,0,0,0,.754-.562l.645.674a3.533,3.533,0,0,1-1.045.75,2.84,2.84,0,0,1-1.124.21,2.588,2.588,0,0,1-1.907-.738,2.552,2.552,0,0,1-.742-1.891,2.582,2.582,0,0,1,.338-1.327,2.5,2.5,0,0,1,.968-.933,2.727,2.727,0,0,1,1.357-.354,2.844,2.844,0,0,1,1.19.261,2.851,2.851,0,0,1,.986.74Zm.8-.876h2.725v.931h-1.78v.9h1.78v.918h-1.78v1.314h1.78v.932h-2.725v-4.992Zm3.19,0h.93l.724,3.186.891-3.186h.787l.908,3.186.723-3.186h.932l-1.133,4.992h-.908l-.92-3.227-.9,3.227h-.9l-1.136-4.992Zm6.526,0h.946v4.992h-.946v-4.992Zm6.565.876-.666.633a2.063,2.063,0,0,0-1.529-.716,1.645,1.645,0,0,0-1.207.489,1.628,1.628,0,0,0-.491,1.2,1.775,1.775,0,0,0,.218.885,1.558,1.558,0,0,0,.614.608,1.789,1.789,0,0,0,.884.22,1.819,1.819,0,0,0,.757-.154,2.7,2.7,0,0,0,.754-.562l.645.674a3.531,3.531,0,0,1-1.045.75,2.839,2.839,0,0,1-1.124.21,2.589,2.589,0,0,1-1.907-.738,2.551,2.551,0,0,1-.742-1.891,2.579,2.579,0,0,1,.338-1.327,2.5,2.5,0,0,1,.967-.933,2.728,2.728,0,0,1,1.357-.354,2.845,2.845,0,0,1,1.19.261,2.853,2.853,0,0,1,.986.74Zm.53-.876h3.024l-1.782,4.074h1.664v.918h-3.052l1.773-4.053h-1.627Z" transform="translate(0 -94.848)"/><path class="a" d="M-496.707-443.472h.946v4.992h-.946v-4.992Zm6.582.679-.7.621a1,1,0,0,0-.754-.514.461.461,0,0,0-.306.1.292.292,0,0,0-.119.226.384.384,0,0,0,.085.237,6.558,6.558,0,0,0,.7.641q.544.455.661.574a2.008,2.008,0,0,1,.41.557,1.4,1.4,0,0,1,.12.582,1.334,1.334,0,0,1-.425,1.015,1.551,1.551,0,0,1-1.109.4,1.65,1.65,0,0,1-.929-.261,2.065,2.065,0,0,1-.679-.822l.8-.482q.361.66.831.661a.613.613,0,0,0,.412-.143.424.424,0,0,0,.167-.329.569.569,0,0,0-.126-.34,3.637,3.637,0,0,0-.555-.519,5.549,5.549,0,0,1-1.054-1.025,1.3,1.3,0,0,1-.239-.721,1.179,1.179,0,0,1,.4-.89,1.373,1.373,0,0,1,.977-.372,1.546,1.546,0,0,1,.711.173,2.59,2.59,0,0,1,.732.631Zm.948-.679h1.009a3.318,3.318,0,0,1,1.179.151,1.2,1.2,0,0,1,.571.489,1.51,1.51,0,0,1,.209.81,1.355,1.355,0,0,1-.275.869,1.416,1.416,0,0,1-.744.482,4.288,4.288,0,0,1-1,.078v2.113h-.946v-4.992Zm.946,1.954h.3a1.676,1.676,0,0,0,.5-.051.45.45,0,0,0,.221-.169.5.5,0,0,0,.08-.286.454.454,0,0,0-.226-.423,1.292,1.292,0,0,0-.609-.1h-.27v1.029Zm5.269-2.079a2.476,2.476,0,0,1,1.82.767,2.549,2.549,0,0,1,.763,1.869,2.521,2.521,0,0,1-.752,1.849,2.476,2.476,0,0,1-1.824.756,2.473,2.473,0,0,1-1.867-.777,2.578,2.578,0,0,1-.744-1.846,2.593,2.593,0,0,1,.346-1.316,2.565,2.565,0,0,1,.951-.951,2.563,2.563,0,0,1,1.306-.351Zm-.014.932a1.556,1.556,0,0,0-1.16.482,1.677,1.677,0,0,0-.47,1.225,1.6,1.6,0,0,0,.592,1.309,1.617,1.617,0,0,0,1.056.377,1.537,1.537,0,0,0,1.146-.489,1.66,1.66,0,0,0,.474-1.2,1.668,1.668,0,0,0-.478-1.206,1.551,1.551,0,0,0-1.16-.494Zm3.523-.806h1.009a3.341,3.341,0,0,1,1.18.147,1.208,1.208,0,0,1,.566.491,1.5,1.5,0,0,1,.214.811,1.385,1.385,0,0,1-.235.823,1.422,1.422,0,0,1-.71.5l1.179,2.219h-1.038l-1.121-2.113h-.1v2.113h-.945v-4.992Zm.945,1.954h.3a1.184,1.184,0,0,0,.631-.119.45.45,0,0,0,.173-.4.486.486,0,0,0-.086-.285.467.467,0,0,0-.229-.174,1.726,1.726,0,0,0-.527-.053h-.263v1.029Zm2.5-1.954h2.76v.939h-.911v4.053h-.966v-4.053h-.883Z" transform="translate(-1.774 -183.373)"/><path class="a" d="M-498.578-523.824h7.635v2.831h-4.718v2.81h4.718v2.831h-4.718v6.927h-2.917v-15.4Zm9.917,0h2.917v15.4h-2.917v-15.4Zm5.281,0h9.33l-5.5,12.568h5.133v2.831h-9.416l5.469-12.5h-5.019v-2.9Zm15.236,0h2.939v10.216a10.49,10.49,0,0,1-.386,3.424,3.25,3.25,0,0,1-1.272,1.562,3.788,3.788,0,0,1-2.131.583,5.367,5.367,0,0,1-4.318-2.231l2.105-1.984a5,5,0,0,0,1.187,1.069,1.952,1.952,0,0,0,.951.272.754.754,0,0,0,.7-.4,4.158,4.158,0,0,0,.229-1.748v-10.767Zm13.617-.386a7.641,7.641,0,0,1,5.615,2.366,7.864,7.864,0,0,1,2.352,5.766,7.776,7.776,0,0,1-2.32,5.7,7.636,7.636,0,0,1-5.626,2.334,7.63,7.63,0,0,1-5.759-2.4,7.952,7.952,0,0,1-2.295-5.694,8.008,8.008,0,0,1,1.069-4.061,7.918,7.918,0,0,1,2.935-2.935,7.909,7.909,0,0,1,4.029-1.083Zm-.043,2.874a4.8,4.8,0,0,0-3.578,1.487,5.176,5.176,0,0,0-1.451,3.779,4.927,4.927,0,0,0,1.826,4.039,4.988,4.988,0,0,0,3.256,1.162,4.741,4.741,0,0,0,3.535-1.508,5.12,5.12,0,0,0,1.462-3.714,5.147,5.147,0,0,0-1.473-3.721,4.787,4.787,0,0,0-3.578-1.523Zm9.174-2.488h8.515v2.9h-2.81v12.5h-2.981v-12.5H-445.4v-2.9Zm10.411,0h8.408v2.874h-5.491v2.767h5.491v2.831h-5.491v4.054h5.491v2.874h-8.408v-15.4Zm11.2,0h3.113a10.3,10.3,0,0,1,3.639.454,3.727,3.727,0,0,1,1.744,1.516,4.627,4.627,0,0,1,.661,2.5,4.276,4.276,0,0,1-.726,2.538,4.391,4.391,0,0,1-2.191,1.544l3.635,6.845h-3.2l-3.46-6.52h-.3v6.52h-2.917v-15.4Zm2.917,6.027h.93a3.65,3.65,0,0,0,1.948-.368,1.387,1.387,0,0,0,.533-1.226,1.5,1.5,0,0,0-.265-.88,1.437,1.437,0,0,0-.708-.536,5.324,5.324,0,0,0-1.626-.164h-.811v3.174Zm13.917-6.027h2.953l5.927,15.4h-3.049l-1.2-3.174h-6.313l-1.23,3.174h-3.049l5.962-15.4Zm1.48,4.093-2.087,5.3h4.164l-2.077-5.3Zm9.535-4.093h3.113a10.232,10.232,0,0,1,3.639.464,3.716,3.716,0,0,1,1.762,1.509,4.655,4.655,0,0,1,.644,2.5,4.177,4.177,0,0,1-.847,2.681,4.37,4.37,0,0,1-2.295,1.487,13.257,13.257,0,0,1-3.1.24v6.52h-2.917v-15.4Zm2.917,6.027h.94a5.157,5.157,0,0,0,1.541-.157,1.391,1.391,0,0,0,.683-.522,1.537,1.537,0,0,0,.247-.883,1.4,1.4,0,0,0-.7-1.3,3.984,3.984,0,0,0-1.88-.307h-.833v3.174Zm8.781-6.027h2.917v15.4h-2.917v-15.4Zm10.8,0h2.953l5.927,15.4H-367.6l-1.2-3.174h-6.313l-1.23,3.174h-3.049l5.962-15.4Zm1.48,4.093-2.088,5.3h4.164Z" transform="translate(-0.34 -121.558)"/><path class="b" d="M-216.665-414.023a25.943,25.943,0,0,1-4.09-.428c-.522-.085-.973-.158-1.226-.173-.341-.02-.745-.015-1.171-.01a10.9,10.9,0,0,1-4.234-.542c-1.407-.562-1.145-3-.789-5.242.033-.206.061-.383.069-.464a50.4,50.4,0,0,0-2.846-7.919,21.818,21.818,0,0,1-4.161-10.059,4.54,4.54,0,0,1,.091-1.359c.127-.7.15-.827-.53-1.163-1.593-.788-8.19-5.6-9.416-6.5l-6.876.018c-1.185,1.255-6.9,7.266-8.642,8.405-.123.08-.239.157-.349.231-1.78,1.184-2.5,1.473-7.081.3-13.3-3.644-17.166-2.63-18.624-2.247a3.725,3.725,0,0,1-.776.151,17.869,17.869,0,0,0-3.07.79c-.807.25-1.57.486-2.171.625-.33.076-.721.194-1.135.318-1.573.471-3.355,1.006-4.273.054a2.235,2.235,0,0,1-.295-2.1,8.241,8.241,0,0,1,5.024-5.547c2.885-1.036,3.206-1.793,3.209-1.8a.4.4,0,0,0-.012.159l1.395-.108c.045.577-.431,1.743-4.119,3.067a6.888,6.888,0,0,0-3.936,3.916,2.582,2.582,0,0,0-.245,1.461c.359.31,2.037-.193,2.849-.437.436-.131.848-.255,1.222-.341.551-.127,1.289-.356,2.072-.6a17.226,17.226,0,0,1,3.426-.852,3.279,3.279,0,0,0,.479-.106c1.7-.447,5.692-1.492,19.337,2.248,4.173,1.069,4.514.842,5.947-.112l.359-.237c1.469-.959,6.7-6.4,8.594-8.412l.206-.22,7.939-.021.186.136c2.685,1.971,8.1,5.868,9.394,6.507a2.09,2.09,0,0,1,1.286,2.667,3.256,3.256,0,0,0-.078.956,20.374,20.374,0,0,0,3.944,9.448l.048.065.032.074c1.019,2.371,3.088,7.612,2.985,8.68-.012.123-.04.3-.08.549-.478,3-.2,3.611-.059,3.732a9.689,9.689,0,0,0,3.683.434c.452-.006.88-.011,1.271.012.325.019.786.094,1.369.189,1.77.288,5,.813,6.53-.121a15.821,15.821,0,0,0-2.245-.977,13.176,13.176,0,0,1-2.435-1.092,13.049,13.049,0,0,1-5.368-7.011c-.287-.963-.8-2.551-1.389-4.39-2.082-6.476-3.813-11.97-3.91-13.6a3.513,3.513,0,0,0-.959-2.413,25.582,25.582,0,0,1-1.869-2.873l1.219-.687a24.3,24.3,0,0,0,1.777,2.731,4.8,4.8,0,0,1,1.229,3.159c.094,1.591,2.351,8.613,3.845,13.259.594,1.847,1.106,3.441,1.4,4.419a11.515,11.515,0,0,0,4.814,6.253,12.931,12.931,0,0,0,2.145.941c2.021.766,3.171,1.244,3.309,2.152a1.14,1.14,0,0,1-.5,1.094A6.078,6.078,0,0,1-216.665-414.023Z" transform="translate(-153.86 -179.015)"/><path class="b" d="M-137.959-647.791l-1.253-.622a8.976,8.976,0,0,0-.581-4.228,53.893,53.893,0,0,1-1.283-5.669,23.923,23.923,0,0,1-3.47,1.112c-.63.169-1.4.374-1.687.5-.1.221-.243.615-.362.943a9.759,9.759,0,0,1-.565,1.371c-.142.24.585.932.811,1.139,1.289,1.178.85,3.011.081,4.222-.72,1.135-3.376,1.33-4.7.612-1.488-.8-.932-2.6-.723-3.274.025-.081.048-.154.064-.214a1.372,1.372,0,0,1,.4-.665c-.746-1.656-.513-5.512-.483-5.962a2.111,2.111,0,0,1,1.145-1.831c.055-.035.11-.07.164-.107.23-.159.925-.529,2.134-1.169,1.091-.578,2.327-1.232,3.149-1.709,1.031-.6,2.8-1.886,3.975-2.739.751-.546,1.152-.837,1.35-.957a1.894,1.894,0,0,1,.709-.262l.05-.009a1.283,1.283,0,0,0,.176-.217,9.118,9.118,0,0,1,3.145-2.061c.015-.068.032-.146.049-.226.025-.118.055-.258.092-.423.089-.4.054-.454-.434-1a11.234,11.234,0,0,1-1.07-1.352c-2.2-3.3-1.666-4.747-.856-6.942l.019-.05c.478-1.3,2.189-2.481,4.256-2.949a5.98,5.98,0,0,1,5.611,1.226,8.537,8.537,0,0,1,2.867,5.482,1.59,1.59,0,0,1-.155.79c-.029.064-.029.064-.029.1,0,.193.158.39.461.752.166.2.354.422.545.7a1.533,1.533,0,0,1,.245,1.336,1.365,1.365,0,0,1-.79.875l-.038.015c.014.056.027.107.035.152a1.081,1.081,0,0,1-.095.646,1.044,1.044,0,0,0-.079.519,1.477,1.477,0,0,1-.732,1.427,1.893,1.893,0,0,1-.452,1.249,2.646,2.646,0,0,1-2.418.556,18.369,18.369,0,0,1,1.048,2.7c.534,1.7,2.732,4.528,3.713,5.633.653.735.985.681,1.971.522a58.2,58.2,0,0,0,6.523-2.535,9.462,9.462,0,0,0,1.617-1.9,11.166,11.166,0,0,1,1.086-1.36,4.344,4.344,0,0,1,3.024-1.188,2.292,2.292,0,0,1,1.224,1.077,4.573,4.573,0,0,1,.728,3.251c-.439,1.875-3,3.245-3.451,3.418-.115.044-.239.079-.383.119a6.112,6.112,0,0,0-2.349,1.19,47.818,47.818,0,0,1-9.661,5.614c-1.529.563-2.2.312-2.8-.275l-.041-.04c-.141-.137-.356-.4-.7-.808l-.118-.142-.748,3.435-1.367-.3.96-4.411a.941.941,0,0,1,.606-.765c.533-.181.766.1,1.746,1.29.222.269.5.6.591.695l.049.048c.177.175.331.326,1.332-.042a46.042,46.042,0,0,0,9.285-5.405,7.56,7.56,0,0,1,2.832-1.434c.105-.029.2-.057.258-.078.456-.175,2.336-1.343,2.59-2.431a3.358,3.358,0,0,0-.915-2.64,3.678,3.678,0,0,0-1.74.839,11.483,11.483,0,0,0-.914,1.165,7.961,7.961,0,0,1-2.122,2.328,55.473,55.473,0,0,1-6.925,2.665,2.973,2.973,0,0,1-3.24-.974c-.832-.936-3.352-4.074-4-6.143a12.109,12.109,0,0,0-1.243-2.971.96.96,0,0,1-.082-1.1,1.292,1.292,0,0,1,1.352-.509l.08.014c1.266.215,1.491.033,1.523-.006a.57.57,0,0,0,.129-.444,1.1,1.1,0,0,1,.29-.842,1.489,1.489,0,0,1,.325-.231.987.987,0,0,0,.106-.065.816.816,0,0,0,.011-.165,2.411,2.411,0,0,1,.17-1.051,1.333,1.333,0,0,1,.093-1.047,1.3,1.3,0,0,1,.764-.562.276.276,0,0,0-.053-.116c-.155-.223-.315-.413-.469-.6a2.526,2.526,0,0,1-.788-1.651,1.512,1.512,0,0,1,.154-.674.209.209,0,0,0,.032-.139v-.024a7.206,7.206,0,0,0-2.445-4.53c-1.385-1.349-3.487-1.053-4.326-.863-1.548.35-2.946,1.24-3.253,2.069l-.018.05c-.755,2.044-1.1,2.976.707,5.681a9.851,9.851,0,0,0,.947,1.194,2.2,2.2,0,0,1,.759,2.234c-.036.162-.065.3-.09.415-.146.681-.235,1.093-.869,1.224l-.052.011a8.764,8.764,0,0,0-2.493,1.557,1.57,1.57,0,0,1-1.128.8.514.514,0,0,0-.227.079c-.158.1-.691.484-1.255.894-1.267.922-3,2.184-4.1,2.818-.845.489-2.093,1.151-3.2,1.734-.853.452-1.82.964-1.993,1.084-.069.047-.139.092-.21.137-.341.216-.468.3-.5.744-.116,1.73-.068,4.54.4,5.373a1.008,1.008,0,0,1-.293,1.468.819.819,0,0,0-.078.061c-.015.071-.043.16-.074.26-.31,1-.3,1.441.052,1.63a3.353,3.353,0,0,0,2.857-.133c.1-.165,1.012-1.656.156-2.438-.54-.493-1.8-1.647-1.073-2.883a10.405,10.405,0,0,0,.454-1.137,9.4,9.4,0,0,1,.527-1.286c.243-.417.751-.569,2.475-1.031A14.133,14.133,0,0,0-141-659.958l.935-.766.2,1.192a63.575,63.575,0,0,0,1.41,6.466C-137.742-650.812-137.535-648.643-137.959-647.791Zm-1.087-19.51Zm13.964-3.914Z" transform="translate(-266.126 0)"/></g></svg>