<svg id="Layer_1" data-name="Layer 1" xmlns="http://www.w3.org/2000/svg" viewBox="0 0 500 497.59"><defs><style>.cls-1{fill:#fff;}</style></defs><title>logo_stopka</title><path class="cls-1" d="M61.28,329.18a60.94,60.94,0,0,1-6.49,6.38,224.17,224.17,0,0,0,33.95,46.78,229.78,229.78,0,0,0,17.06,16.3c.11-4.19.21-8,.31-11.44A216.87,216.87,0,0,1,61.28,329.18Zm279.18,95.76a213,213,0,0,1-38.95,13.32,32.32,32.32,0,0,1-4.7,4.1,69.5,69.5,0,0,1-15.05,8.37A221.74,221.74,0,0,0,333,437.52c4.17-1.62,8.29-3.36,12.33-5.22A35.69,35.69,0,0,1,340.46,424.94ZM460.84,147.29a222.08,222.08,0,0,0-22.7-43.54,11.65,11.65,0,0,1-1.23,6.82c-.72,1.39-1.45,2.74-2.19,4a214.22,214.22,0,0,1,32.07,98.1c3-.56,5.9-1.14,8.56-1.74A221.73,221.73,0,0,0,460.84,147.29ZM466.77,257l-1.34.41a215.4,215.4,0,0,1-80.94,140.88,13.12,13.12,0,0,1,2.74,8.94,223.68,223.68,0,0,0,87.3-152.88C472,255.27,469.38,256.15,466.77,257ZM103.62,72a28.73,28.73,0,0,1-3.94-8.15L98,65.42A224.76,224.76,0,0,0,31.2,268.66q4.08-.33,8.7-.68A215.79,215.79,0,0,1,103.62,72ZM414.9,74.66c-1.36-1.45-2.74-2.87-4.14-4.28a53.84,53.84,0,0,1-.61,12q5.57,6,10.66,12.47a11.57,11.57,0,0,1,5.63-1.45,11.84,11.84,0,0,1,5.26,1.25A225.39,225.39,0,0,0,414.9,74.66Zm-69.83-50.1A225.48,225.48,0,0,0,199.3,10.48a29.65,29.65,0,0,1,2.59,8.24A216.5,216.5,0,0,1,251.66,13q3.21,0,6.44.09A214.14,214.14,0,0,1,360.61,42.46a47.23,47.23,0,0,1,8.59-5A225.4,225.4,0,0,0,345.07,24.56Z" transform="translate(0 -1.2)"/><path class="cls-1" d="M199.6,285.25l-1.1.1-1.45.13-.31,0-1.13.11-2.76.24-1.41.12a19,19,0,0,1,5.68-.88h0A18.73,18.73,0,0,1,199.6,285.25Z" transform="translate(0 -1.2)"/><path class="cls-1" d="M329.16,270.16l-4.15.61C326.37,270.56,327.76,270.36,329.16,270.16Z" transform="translate(0 -1.2)"/><path class="cls-1" d="M380.36,262.59l-1.12.17-.52.07.52-.08Z" transform="translate(0 -1.2)"/><path class="cls-1" d="M466.94,242h0l-1.56.53Z" transform="translate(0 -1.2)"/><path class="cls-1" d="M500,221.84c0,.08,0,.15,0,.23h0l0,.22a.31.31,0,0,0,0,.08s0,.05,0,.08v0a.93.93,0,0,1,0,.13s0,.08,0,.13a2.44,2.44,0,0,1-.14.34.66.66,0,0,1-.09.19,0,0,0,0,1,0,0l0,.07c0,.06-.07.12-.1.19a3.53,3.53,0,0,1-.21.32.56.56,0,0,1-.05.08,2,2,0,0,1-.18.26l-.14.2s0,0,0,0l-.15.19-.14.18-.27.3c-.09.11-.19.21-.29.32s-.25.27-.39.4-.27.27-.42.4c-.29.28-.6.55-.94.84l-.83.68a52.33,52.33,0,0,1-5,3.45l-.73.45-.75.44-.64.37c-.66.37-1.33.75-2,1.12l-.7.38-.38.2-.87.45-1.06.53-1.17.58-1.2.57-1.24.58-.16.07c-.27.12-.54.25-.81.36l-.82.37-.1,0-1.29.56-.65.28-1.35.56-.87.35-1.35.53-1.32.51-.9.34-.91.33-1,.37-1.13.4-1.56.53-.63.21-.63.2-.63.2-.95.31-2.08.64c-2.89.88-6,1.8-9.42,2.73-.78.21-1.56.44-2.37.65l-.47.13c-.7.19-1.4.39-2.11.57-1.74.47-3.53,1-5.34,1.41l-2.75.71-1.4.36-4.93,1.23c-1.65.42-3.32.82-5,1.22l-1.44.35-2.89.69-5,1.16c-1,.23-2.05.47-3.08.69l-.57.13-2.48.55-.38.09-2.65.58-.18,0-2.81.6-1.39.29-1.24.26-2.45.51-1.21.25a4.86,4.86,0,0,0-.55.11l-3.94.77-1.29.25-2.52.48-1.23.22-.86.15-2.24.4-1.1.18-1.24.21-2.6.42-1,.15-1.12.16-.52.08-.51.08-1.07.15-1.1.16-2.27.34c-.78.11-1.58.22-2.39.35l-.93.13-1.88.28-1,.14-6.68,1-2.8.41L348,267.36l-2.93.44-1.47.21-2.94.44-1.46.22-2.92.43-2.89.43c-.48.06-.95.14-1.43.21-.95.14-1.89.27-2.83.42-1.4.2-2.79.4-4.15.61l-2.68.39-2.6.39-2.53.37-3.59.52-2.26.33-.88.13-.86.13-2.46.36-1.52.21-1.46.21-1.27.18-2.8.39c-12.7,1.74-73,8.43-78.79,8.94h-.23a2.53,2.53,0,0,1-.3,0l-.23,0-.26,0-.29,0-.34,0-.85.08-2.18.2-.42,0-.44,0-.54.05-1.16.1-.2,0-.71.06h-.09l-.67.06-.2,0-.69.06-1.29.11a2.07,2.07,0,0,1-.35,0l-.48.05-.57.05-.17,0-1.53.13-1.23.11-1.19.11L203,285l-.84.07-.84.07-1.73.16h0a18.73,18.73,0,0,0-2.47-.16h0a19,19,0,0,0-5.68.88h0l-1.57.13-1.52.14-1.53.13-.78.07-1.29.11-2.1.19-4.23.37c-.35,0-.71.07-1.07.09l-2.14.19-.43,0c-.93.09-1.86.17-2.8.24l-2.15.19-7.49.65-1.8.16-1.41.12-2.05.17-1,.09-6.07.52-1.47.12-.73.06-.72.06-1,.08-1.79.15h-.08l-1.58.13-1.15.1-1.76.14-1.69.14-4.38.35-2.51.2-1.34.11-1.27.09-1.62.12h-.12l-1,.07-1.06.08-.55,0-1.11.07-.58,0-.83,0h-.48l-1.1,0h0l-1.26.05c-.44,0-.92.05-1.41.06l-3.23.15h0l-1.23.06-.56,0c-.44,0-.87.05-1.32.06l-1.37.07-.68,0-1.4.07-1.07,0-3.3.15-2.19.11h-.07l-2.11.09-1.18.06-3.1.15h-.3l-1.85.09-.42,0-1.13.05-.56,0-.56,0-1.12.06-.55,0-.56,0-.55,0-1.1.05-1.07.06-1.08,0-1.58.07-.52,0-.51,0-.5,0h0l-1,0c-.33,0-.66,0-1,0l-1,.05h-.48l-.91.05-.47,0-.45,0h-.44a3,3,0,0,1-.42,0l-.86,0-.6,0-.6,0h0l-.75,0h-.39l-1,.05h-.34l-.63,0-.62,0-.55,0H66.85l-1.21,0h-.15l0,.07-.11.24-.08.18a.9.9,0,0,0-.1.22,2.09,2.09,0,0,0-.1.21c0,.06-.06.13-.1.2s-.09.2-.14.31l-.17.36,0,0c-.06.13-.12.26-.2.4s-.22.49-.35.75l-.16.33c0,.11-.11.23-.17.34l-.17.36-.18.37-.31.61-.55,1.12L62,301.48l-.24.47-.47.92c-.4.77-.82,1.57-1.26,2.38-.17.33-.35.66-.53,1-.08.16-.18.32-.27.49s-.34.64-.53,1c-.37.67-.75,1.35-1.14,2-.16.29-.33.57-.5.86-.5.85-1,1.71-1.53,2.53l-.59.92q-.13.23-.3.45l-.26.4s0,0,0,0c-.18.29-.37.56-.56.84-.3.43-.6.85-.89,1.24s-.58.77-.86,1.13-.66.81-1,1.21l-.77.87-.09.1c-.32.35-.64.7-1,1-.16.17-.32.35-.5.51s-.33.34-.5.51c-.36.35-.71.68-1.07,1l-.55.48-.76.67c-.52.44-1,.87-1.58,1.27-.26.21-.53.4-.8.6l-.58.43c-.53.37-1,.72-1.59,1.06l-.61.38-.74.44-.63.35c-.47.26-.94.51-1.42.74l-.5.23c-.4.19-.79.37-1.2.53l-.74.29-.76.28-.75.24-.75.22c-.5.13-1,.25-1.49.34s-.88.16-1.31.22l-.3,0c-.19,0-.39,0-.58.06l-.45,0-.37,0-.46,0-.39,0-.74,0h-.34c-.42,0-.79,0-1.14,0H25.2l-.66-.06-.3,0-.28,0c-.26-.05-.49-.11-.7-.17a2.66,2.66,0,0,1-.54-.23l-.15-.08-.13-.09-.11-.09-.12-.11a2,2,0,0,1-.32-.45,1.89,1.89,0,0,1-.09-.21h0c0-.1-.07-.21-.11-.32l-.12-.58-.05-.32c0-.05,0-.1,0-.16-.38-2.06,4.81-6.55,9.24-13.79s5.12-14.39,3.13-21.36H32l-1.33,0-3.4,0c-1.28,0-2.69,0-4.16,0H18.53c-1.58,0-3.16-.06-4.69-.11l-2.12-.1h0l-.95-.05L8.84,294,8,293.87l-.84-.08-.26,0-.56-.07-.28,0-.45-.07H5.52l-.78-.14A7.29,7.29,0,0,1,3,292.93c-4.28-2.06-4.79-6.5,4.51-7.86l.37-.05.35,0h.06l.45,0,1.56-.18c.19,0,.39,0,.6-.06l1.28-.14.66-.06,2.34-.22.75-.07.26,0,1.6-.15,2.27-.19,1.18-.11,2.67-.22,1-.08,2.73-.22,2.75-.23,3.85-.3,1.16-.09,1.46-.11,1.48-.12,1.49-.12,1.5-.12L43,282l.56-.05c.5,0,1-.07,1.49-.12h0l1.52-.11h.08l1.43-.11,1-.08.49,0,1.49-.11h0l1.35-.11,1.23-.09,1.19-.09,4.45-.35.72-.06,1.12-.08,1-.09,3.52-.28,1.8-.14,1.58-.13,1-.08.3,0,1.28-.11.75-.06.94-.08,1.37-.11.59-.05.57-.05,1-.09.27,0,.75-.07,2.28-.2.91-.08.46-.05.87-.08.58-.06.64-.06h0l.77-.08c15.87-1.65,86.41-9.2,97.64-10.77s83.93-9.82,96.06-11.35,66.87-9.53,80.35-11.06,67.34-10.63,83.19-13.78l1.49-.29,1.5-.29,1.84-.35,4.29-.78,3.1-.54c.52-.09,1-.19,1.55-.27l5.68-1,2-.36c1.36-.24,2.72-.48,4.05-.73,1.66-.3,3.29-.61,4.88-.92.93-.18,1.84-.36,2.73-.55l1-.21.45-.1c1.38-.29,2.72-.59,4-.9.9-.21,1.77-.43,2.61-.65l1.89-.52.38-.11,1-.28.17-.06,1.1-.34c1.29-.42,2.44-.78,3.47-1.08l.84-.25.79-.22.63-.17.17-.05.47-.11.07,0a.28.28,0,0,1,.13,0l.55-.14.29-.07c.29-.07.56-.12.81-.16l.47-.09.13,0h.09l.21,0,.39,0,.18,0,.64,0a3.28,3.28,0,0,1,.78.08h0l.13,0,.06,0,.08,0,.1,0,.18.12.11.1.07.08c.05.06.09.13.14.2l.12.21h0a2.26,2.26,0,0,1,.11.22A1.79,1.79,0,0,1,500,221.84Z" transform="translate(0 -1.2)"/><path class="cls-1" d="M480.45,224.33c-1.28.31-2.62.61-4,.9C477.83,224.93,479.16,224.63,480.45,224.33Z" transform="translate(0 -1.2)"/><path class="cls-1" d="M325,270.77l4.15-.61C327.76,270.36,326.37,270.56,325,270.77Zm54.23-8-.52.08.52-.07,1.12-.17Zm97.21-37.52c1.38-.29,2.72-.59,4-.9C479.16,224.63,477.83,224.93,476.45,225.23Zm-11.07,17.26,1.56-.53h0ZM197.12,296.21a6.35,6.35,0,0,0-.87.05,8.91,8.91,0,0,1,1.86,0A8.22,8.22,0,0,0,197.12,296.21Zm-1.71.19a7.74,7.74,0,0,1,.84-.14A5.89,5.89,0,0,0,195.41,296.4Z" transform="translate(0 -1.2)"/><path class="cls-1" d="M286.06,407.39l-.07.18a1,1,0,0,1,.08-.18Z" transform="translate(0 -1.2)"/><path class="cls-1" d="M345.92,396.35a.6.6,0,0,0-.46.2l-.22.21-.28.29-.53.51c-.33.33-.68.65-1.06,1l-.15.14a48.6,48.6,0,0,1-5.26,4.49,24.06,24.06,0,0,1-2.58,1.58,17.91,17.91,0,0,1-8.27,1.84,21.05,21.05,0,0,1-6.27-.93l-.1,0-.77-.26-.69-.26c-.66-.25-1.31-.51-1.93-.79l-.89-.41-.86-.41c-.66-.32-1.28-.66-1.84-1l-.78-.44-.51-.29c-1.37-.83-2.3-1.47-2.6-1.67l-.11-.09h0a.72.72,0,0,0,.06-.15,3.51,3.51,0,0,0,.17-.42l.65-1.62c.13-.35.28-.74.45-1.16l.16-.43c.17-.42.33-.88.52-1.37s.28-.75.42-1.15.3-.79.45-1.23a156.53,156.53,0,0,0,5-16.66c2.82-12.19-.06-33.11-15.59-36.84a12.35,12.35,0,0,0-2.78-.32c-4.21,0-8.62,2.08-12.78,5.07-.46.34-.92.67-1.37,1-.68.53-1.36,1.08-2,1.65-.44.37-.88.76-1.31,1.15-1.08,1-2.13,2-3.15,3l-1.18,1.23a110.34,110.34,0,0,0-8.87,10.71l-.51.7c-.77,1.08-1.19,1.73-1.19,1.73.3-6.57.05-9-8-20.62-.17-.25-.34-.5-.51-.73-.51-.71-1-1.37-1.5-2l-.49-.59c-.33-.39-.65-.75-1-1.1-.64-.69-1.26-1.31-1.87-1.85-.31-.27-.62-.52-.91-.76a12.21,12.21,0,0,0-7.77-2.92,19,19,0,0,0-5.15.87,4.62,4.62,0,0,0-2.21,1.81c-.09.11-.17.22-.25.34s-.33.49-.5.77-.33.55-.5.86-.33.62-.5,1-.33.69-.49,1.05-.33.75-.49,1.14c-3.57,8.71-6.72,24.29-7.28,39.63-.1,3-.19,6-.26,9,0,1.18-.05,2.37-.07,3.55,0,2.92-.09,5.77-.12,8.51,0,.82,0,1.64,0,2.45,0,3.22,0,6.25,0,9,0,.33,0,.68,0,1,0,1.41,0,2.74,0,4,0,.21,0,.41,0,.62,0,0,0,0,0,0s0,0,0,0a40.46,40.46,0,0,1-3.14,7.89c-1.14,2.49-5.24,9.91-7,12.65l-.42.68a32.49,32.49,0,0,1-2.32,3.27c-.22.27-.45.54-.69.8a9.45,9.45,0,0,1-5.44,3.21,6.5,6.5,0,0,1-1,.07h-.39a2.23,2.23,0,0,1-1.42-.64c-1.5-1.39-2.33-4.89-2.58-9.45,0,0,0-.08,0-.12a91.72,91.72,0,0,1,2.13-22.84c3.19-14.58,12.7-82.19,13.78-93.54.85-8.88-4.21-18.35-12.49-23a22.86,22.86,0,0,0-7.67-2.62l-.34,0a8.91,8.91,0,0,0-1.86,0,7.74,7.74,0,0,0-.84.14.8.8,0,0,0-.21.05,5.18,5.18,0,0,0-.56.17h0a5.2,5.2,0,0,0-.55.21,9.27,9.27,0,0,0-3.22,2.38,13.41,13.41,0,0,0-.94,1.15,28.88,28.88,0,0,0-4,9c-.1.32-.18.64-.26,1s-.18.68-.26,1-.17.69-.25,1c-.53,2.36-.94,4.75-1.25,7-.06.39-.11.76-.15,1.13-.41,3.25-.64,6.17-.8,8.26-.56,7.93-5.15,58.78-7.23,78-.32,3-.6,5.24-.78,6.4-.5,3.3-3.76,8.43-7.94,13.52-1.93,2.34-4.05,4.67-6.18,6.8-5.33,5.32-10.79,9.46-13.7,9.65h-.24a2.86,2.86,0,0,1-1.92-.67,1.54,1.54,0,0,1-.19-.17c-2.45-2.42-2.19-9.63-1.28-17.42h0c.36-3.1.83-6.29,1.27-9.3,0-.32.09-.64.13-.95,1.4-9.64,5.17-39.06,8.17-61.27.93-6.81,1.77-12.93,2.46-17.61,2.15-14.5.87-26.51-4.59-31.95a10.74,10.74,0,0,0-7.87-3.14h0c-4.06,0-7,.91-9.19,2.51l-.39.31a9.89,9.89,0,0,0-1.4,1.34c-.17.18-.32.37-.47.56a13,13,0,0,0-1.08,1.59l-.44.79c-.14.27-.27.55-.4.84s-.24.52-.34.79a1.22,1.22,0,0,0-.1.24c-.08.19-.16.39-.23.58a40.06,40.06,0,0,0-1.29,4.25c-.08.3-.15.6-.22.91s-.17.72-.25,1.08c-.25,1.14-.5,2.32-.75,3.52l-.21,1c-.25,1.17-.49,2.37-.76,3.58-2.9,12.93-7.23,43.75-7.73,49.14-.28,2.83-.56,12.52-.82,22.9-.09,3.64-.18,7.36-.27,10.89-.13,5.55-.24,10.66-.34,14.3-.35,12.61.91,28.93,6.93,38a15.32,15.32,0,0,0,2.23,2.68c.16.16.34.32.51.46l.42.33a9.07,9.07,0,0,0,.94.63,6,6,0,0,0,.56.3l.57.26.44.16c.14.06.29.1.43.15a9.79,9.79,0,0,0,2.76.38A18.88,18.88,0,0,0,140,463c.35-.16.7-.34,1.06-.52a78.94,78.94,0,0,0,8.1-4.82c6.62-4.4,13.14-14.07,17.65-21.68,1.8-3,3.28-5.72,4.31-7.63.81-1.48,1.35-2.49,1.58-2.82l.32-.47a3.16,3.16,0,0,0,.18-.27l.23-.33a1.13,1.13,0,0,0,.1-.13c.13-.16.23-.25.31-.25a.12.12,0,0,1,.1.06.54.54,0,0,1,.06.11,1.52,1.52,0,0,1,.09.26c0,.07,0,.15.05.24l.06.31,0,.18c0,.13,0,.26.07.4l0,.23a28.47,28.47,0,0,1,.12,3.79c0,2.68-.1,6.19-.05,9.28a38.26,38.26,0,0,0,.36,5.14c.11.63.25,1.45.48,2.4,0,.16.08.33.12.5.17.67.37,1.38.62,2.13l.26.72c.21.53.43,1.07.69,1.62l.31.64c.27.5.55,1,.87,1.51l.5.75c.1.12.18.25.27.37s.38.5.58.74.41.47.63.71l.34.35c3.07,3.12,7.87,5.54,15.4,5.54.52,0,1,0,1.58,0,10.61-.44,16.95-5.89,21.06-11.82a46.38,46.38,0,0,0,3-5.08c.53-1,1-2.06,1.47-3,.88-1.92,1.59-3.63,2.25-4.94a23.68,23.68,0,0,0,2.11-5.72l.17,4.66s.06,2.57,0,6.56c-.06,2.45-.16,5.43-.36,8.67-.24,3.91-.63,8.2-1.24,12.39-1.52,10.3-4.57,26,1.59,32.35l.51.48c.17.15.36.3.55.44s.39.27.59.39.42.24.64.35l.36.17a9.8,9.8,0,0,0,1,.36l.12,0c.32.09.65.18,1,.25l.15,0a9.26,9.26,0,0,0,1.11.16h.08c.41,0,.83.06,1.27.06l.75,0c12.3-.55,17.69-26.82,19.6-46.1.3-3.12.52-6.06.66-8.67.13-2.43.19-4.58.21-6.34.08-15.41,2.79-28.77,5.84-44.29s22.8-42.4,33.81-43h.22c10.58,0-4.91,44.7-4.91,44.7a16.49,16.49,0,0,0-2.76-.22c-.39,0-.8,0-1.24,0l-.66.05c-.44,0-.91.09-1.38.16l-.72.12a23.12,23.12,0,0,0-2.28.52l-.79.23-.79.27-.71.25-.52.21c-.4.17-.82.35-1.23.55l-.83.4c-.42.22-.84.45-1.26.7s-.57.33-.84.51-.68.44-1,.67l-.67.48-.65.5a32.86,32.86,0,0,0-7.36,8.31c-.25.39-.49.79-.73,1.2-.36.61-.71,1.24-1.06,1.9-8.56,16.47-5.88,21.93,1.65,27.64a9.68,9.68,0,0,0,1.86,1.12c.25.11.51.22.77.31a10.86,10.86,0,0,0,1.2.35,11.69,11.69,0,0,0,2.51.26,14.26,14.26,0,0,0,1.59-.09c.53-.06,1.07-.15,1.6-.26h0a24.85,24.85,0,0,0,3.25-.94l1.29-.51h0c.42-.17.85-.37,1.27-.56a46.37,46.37,0,0,0,4.31-2.28l1.16-.7c1.7-1.06,3.26-2.12,4.59-3,6.29-4.35,15.38-19.88,15.38-19.88l1.33.48c.61.21,1.2.39,1.77.57a41.39,41.39,0,0,0,6.51,1.46c.71.09,1.4.16,2.08.21s1.36.07,2,.07,1,0,1.5-.05a27.24,27.24,0,0,0,7.68-1.57,29.17,29.17,0,0,0,8.25-4.44l.08-.06a34.57,34.57,0,0,0,7.56-9.17c.56-1,1.1-2,1.55-2.95q.17-.3.3-.6A.65.65,0,0,0,345.92,396.35Zm-59.55,10.41a2.23,2.23,0,0,0-.14.27,3.73,3.73,0,0,0-.16.35h0a1,1,0,0,0-.08.18,2.07,2.07,0,0,0-.08.2c-1.69,4.08-5.44,16.12-8.12,18a1.22,1.22,0,0,1-.32.2,9.24,9.24,0,0,1-3.37.74,8.59,8.59,0,0,1-4-1.16c-2.55-1.32-2.4-7.55-1.1-10.45a15.28,15.28,0,0,1,10.36-9.05c.78-.25,1.52-.46,2.2-.64l1.17-.27a12.22,12.22,0,0,1,2.44-.33C286.61,404.82,287.12,405.4,286.37,406.76Z" transform="translate(0 -1.2)"/><path class="cls-1" d="M205.29,447.85a2.23,2.23,0,0,0,1.42.64h.39a6.5,6.5,0,0,0,1-.07C207.15,448.25,206.22,448.06,205.29,447.85Zm80.77-40.46-.07.18a1,1,0,0,1,.08-.18Zm0,0-.07.18a1,1,0,0,1,.08-.18Zm0,0-.07.18a1,1,0,0,1,.08-.18Zm0,0-.07.18a1,1,0,0,1,.08-.18Zm-80.77,40.46a2.23,2.23,0,0,0,1.42.64h.39a6.5,6.5,0,0,0,1-.07C207.15,448.25,206.22,448.06,205.29,447.85Zm80.77-40.46-.07.18a1,1,0,0,1,.08-.18Zm0,0-.07.18a1,1,0,0,1,.08-.18Zm-80.77,40.46a2.23,2.23,0,0,0,1.42.64h.39a6.5,6.5,0,0,0,1-.07C207.15,448.25,206.22,448.06,205.29,447.85Zm80.77-40.46-.07.18a1,1,0,0,1,.08-.18Zm0,0-.07.18a1,1,0,0,1,.08-.18Zm-80.77,40.46a2.23,2.23,0,0,0,1.42.64h.39a6.5,6.5,0,0,0,1-.07C207.15,448.25,206.22,448.06,205.29,447.85Zm80.77-40.46-.07.18a1,1,0,0,1,.08-.18Zm0,0-.07.18a1,1,0,0,1,.08-.18Zm-80.77,40.46a2.23,2.23,0,0,0,1.42.64h.39a6.5,6.5,0,0,0,1-.07C207.15,448.25,206.22,448.06,205.29,447.85Zm80.77-40.46-.07.18a1,1,0,0,1,.08-.18Zm0,0-.07.18a1,1,0,0,1,.08-.18Zm-80.77,40.46a2.23,2.23,0,0,0,1.42.64h.39a6.5,6.5,0,0,0,1-.07C207.15,448.25,206.22,448.06,205.29,447.85Zm80.77-40.46-.07.18a1,1,0,0,1,.08-.18Zm0,0-.07.18a1,1,0,0,1,.08-.18Zm-80.77,40.46a2.23,2.23,0,0,0,1.42.64h.39a6.5,6.5,0,0,0,1-.07C207.15,448.25,206.22,448.06,205.29,447.85Zm80.77-40.46-.07.18a1,1,0,0,1,.08-.18Zm0,0-.07.18a1,1,0,0,1,.08-.18Zm0,0-.07.18a1,1,0,0,1,.08-.18Zm-80.77,40.46a2.23,2.23,0,0,0,1.42.64h.39a6.5,6.5,0,0,0,1-.07C207.15,448.25,206.22,448.06,205.29,447.85Zm80.77-40.46-.07.18a1,1,0,0,1,.08-.18Zm0,0-.07.18a1,1,0,0,1,.08-.18Zm-88.93-122.3h0a19,19,0,0,0-5.68.88h0l1.42-.13,2.76-.24,1.13-.11.31,0,1.45-.13,1.1-.1A18.73,18.73,0,0,0,197.13,285.09Zm8.16,162.76a2.23,2.23,0,0,0,1.42.64h.39a6.5,6.5,0,0,0,1-.07C207.15,448.25,206.22,448.06,205.29,447.85Zm80.77-40.46-.07.18a1,1,0,0,1,.08-.18Zm0,0-.07.18a1,1,0,0,1,.08-.18Zm-80.77,40.46a2.23,2.23,0,0,0,1.42.64h.39a6.5,6.5,0,0,0,1-.07C207.15,448.25,206.22,448.06,205.29,447.85Zm80.77-40.46-.07.18a1,1,0,0,1,.08-.18Zm0,0-.07.18a1,1,0,0,1,.08-.18Zm-80.77,40.46a2.23,2.23,0,0,0,1.42.64h.39a6.5,6.5,0,0,0,1-.07C207.15,448.25,206.22,448.06,205.29,447.85Zm80.77-40.46-.07.18a1,1,0,0,1,.08-.18Zm0,0-.07.18a1,1,0,0,1,.08-.18Zm-80.77,40.46a2.23,2.23,0,0,0,1.42.64h.39a6.5,6.5,0,0,0,1-.07C207.15,448.25,206.22,448.06,205.29,447.85Zm80.77-40.46-.07.18a1,1,0,0,1,.08-.18Zm0,0-.07.18a1,1,0,0,1,.08-.18Zm-80.77,40.46a2.23,2.23,0,0,0,1.42.64h.39a6.5,6.5,0,0,0,1-.07C207.15,448.25,206.22,448.06,205.29,447.85Zm80.77-40.46-.07.18a1,1,0,0,1,.08-.18Zm0,0-.07.18a1,1,0,0,1,.08-.18Z" transform="translate(0 -1.2)"/><path class="cls-1" d="M390.75,305l-10.54,36.26c-.15.57-.29,1.12-.44,1.68s-.24,1-.36,1.44-.19.75-.27,1.12-.25,1-.36,1.53c-.18.76-.34,1.51-.5,2.25-.09.43-.18.85-.26,1.26,0,.13,0,.25-.07.37s-.05.24-.08.36c-.07.37-.15.75-.21,1.13-.05.21-.08.42-.12.62l-.21,1.12s0,0,0,0c-.21,1.21-.41,2.38-.57,3.53-.06.38-.11.76-.17,1.14l-.15,1.1c-.13.9-.23,1.77-.33,2.62l-.09.79c-.05.42-.09.83-.13,1.25s-.06.68-.1,1,0,.45,0,.67q-.08.76-.12,1.5c0,.43-.07.85-.1,1.27s0,.61-.05.92c0,.14,0,.27,0,.42,0,.3,0,.61-.05.9s0,.55,0,.81a.34.34,0,0,0,0,.1l0,.41c0,.31,0,.62,0,.93l0,1c0,.65,0,1.29,0,1.91,0,.33,0,.65,0,1v.82c0,.3,0,.58,0,.87,0,.85,0,1.66,0,2.43,0,.51,0,1,0,1.49v.71c0,.46,0,.89,0,1.3s0,.71,0,1c0,.17,0,.33,0,.49s0,.26,0,.39,0,.26,0,.38,0,.21,0,.31v0s0,0,0,.06c0,.22,0,.44-.05.64s-.06.54-.1.8l-.09.56c0,.18-.07.35-.12.52a2.61,2.61,0,0,1-.06.27h0c0,.13-.07.25-.11.37l0,.05a.06.06,0,0,1,0,0l-.07.2c0,.09-.07.18-.11.27l-.12.26c0,.09-.09.17-.14.26l-.12.2-.13.18a3.39,3.39,0,0,1-.28.34,2.35,2.35,0,0,1-.33.3h0a3.12,3.12,0,0,1-.35.25l-.18.1-.3.14-.26.1-.37.1-.25.06-.27,0-.28,0c-1.86.18-3.22.36-4.5.36h-.53l-.52,0h0l-.52-.06h0l-.53-.09h0a10.8,10.8,0,0,1-1.13-.27h0l-.61-.18h0l-.65-.22c-.56-.21-1.17-.45-1.85-.75l-.83-.38-.45-.21c-.61-.28-1.25-.6-2-1l-1-.53c-.4-.21-.83-.42-1.27-.66-.29-.14-.58-.3-.85-.45-.53-.3-1-.6-1.5-.92l-.35-.23-.34-.24c-.45-.31-.86-.63-1.25-1s-.67-.58-1-.88l-.61-.61c-.3-.32-.58-.63-.84-1-.13-.16-.27-.33-.39-.5l-.36-.5,0,0c-.08-.11-.16-.23-.23-.35l-.33-.53c-.06-.09-.1-.19-.16-.28a15.08,15.08,0,0,1-.74-1.52.13.13,0,0,0,0-.05.11.11,0,0,0,0-.06v0a1.43,1.43,0,0,0-.08-.22l0,0c0-.11-.08-.22-.11-.32s-.11-.3-.16-.44c-.11-.38-.22-.75-.3-1.11,0-.2-.09-.4-.12-.58s-.07-.37-.1-.55,0-.28-.05-.41,0-.26,0-.39a1.64,1.64,0,0,1,0-.22,2.46,2.46,0,0,0,0-.28V376a9.49,9.49,0,0,1,.1-2.09c2.42-11.27,13.41-49.24,18.91-69.18.12-.4.24-.81.34-1.21a.09.09,0,0,0,0-.05c.06-.24.13-.48.19-.72s.16-.65.23-1,.15-.63.21-.94.09-.41.13-.61c.15-.71.27-1.42.39-2.1s.16-1.13.23-1.67q.06-.4.09-.81l.06-.55h0c0-.17,0-.34,0-.51s0-.34,0-.5c0-.39.05-.76.07-1.13s0-.58,0-.85,0-.31,0-.46v-1c0-.17,0-.33,0-.49s0-.47,0-.7l0-.42c0-.17,0-.35,0-.51s0-.17,0-.26a1.34,1.34,0,0,0,0-.2l0-.36c0-.17,0-.33,0-.49,0-.32-.07-.64-.11-.95s-.05-.38-.07-.56a.5.5,0,0,1,0-.12c0-.12,0-.24-.05-.36s0-.24-.05-.35l-.06-.41c-.05-.26-.09-.51-.13-.76s-.06-.37-.1-.54-.06-.36-.09-.52-.05-.23-.07-.34l-.09-.51c0-.1,0-.2-.05-.3s-.05-.26-.07-.39-.09-.55-.12-.8a2,2,0,0,1,0-.24c0-.2,0-.38-.05-.55v-.21a3,3,0,0,1,0-.53,3.7,3.7,0,0,1,.07-.38h0l.05-.17,0-.11a.47.47,0,0,1,.06-.09v0l0,0s.05-.08.08-.11,0,0,.05-.05l.05-.05.12-.11,0,0h0l.14-.09a1,1,0,0,1,.24-.11l.28-.1.32-.07.17,0a1.08,1.08,0,0,1,.19,0c.34,0,.68-.05,1-.05l.58,0h.07l.31,0h0l.27,0h0l.37.05h0l.21,0h0l.4.07h0l.59.12.32.09.44.12.45.13c.26.09.53.17.79.27h0l.18.07.63.24.58.25c.15.07.3.13.45.21.47.21.92.44,1.38.68l.76.41c.5.29,1,.58,1.5.89s1,.64,1.49,1l1.09.77.54.39.54.41.79.61.78.62.77.63.74.63c.74.63,1.45,1.27,2.13,1.88l.66.62.58.54,1.09,1,.5.5C395.06,296,390.75,305,390.75,305Z" transform="translate(0 -1.2)"/><path class="cls-1" d="M378.61,427.91V428h0a2.09,2.09,0,0,1,0,.25.89.89,0,0,1,0,.15s0,.06,0,.09a2.4,2.4,0,0,1-.12.38,2.12,2.12,0,0,1-.11.21l0,.07-.06.08-.14.16-.18.15a1.25,1.25,0,0,1-.22.16l-.27.15-.23.11L377,430l-.37.12-.42.11-.25.05-.2,0-.25,0-.52.08c-.19,0-.38,0-.58.06-.36,0-.74.07-1.13.08s-1,0-1.47,0h-.29c-.38,0-.78,0-1.17,0s-.81,0-1.22-.09-.92-.08-1.38-.14l-.46-.06-.61-.09c-.42-.05-.82-.11-1.23-.19l-1.22-.23-.75-.16-1-.24-.58-.15-.57-.16-.55-.16-.51-.16c-.36-.11-.72-.23-1.07-.36l-.48-.17a18.68,18.68,0,0,1-1.77-.78l-.37-.19h0l-.36-.2,0,0a9.58,9.58,0,0,1-.88-.61l-.26-.2-.25-.23-.28-.26a17.06,17.06,0,0,1-1.82-2.15c-.1-.14-.21-.29-.31-.45s-.21-.3-.32-.46a.61.61,0,0,0-.07-.1c-.26-.41-.53-.84-.79-1.29l-.06-.1c-.1-.18-.2-.35-.29-.53s-.2-.36-.29-.54-.23-.45-.34-.67c0,0,0,0,0,0-.12-.24-.23-.49-.33-.73h0v0a.08.08,0,0,0,0,0c-.08-.19-.16-.38-.23-.57s-.15-.38-.22-.57a2.49,2.49,0,0,1-.11-.29c-.06-.19-.13-.37-.19-.56s-.15-.49-.22-.72-.12-.44-.17-.66h0l0-.11c-.05-.22-.09-.44-.13-.66a8.58,8.58,0,0,1-.16-1.1,26,26,0,0,1-.14-3.36c0-.12,0-.25,0-.37s0-.39,0-.58V409l.06-.6c0-.11,0-.22,0-.32s.06-.42.1-.63.08-.46.13-.68a1.8,1.8,0,0,1,.05-.19,1.67,1.67,0,0,1,.08-.32l0-.13a.36.36,0,0,1,0-.11c0-.16.09-.31.14-.46a.75.75,0,0,1,.05-.16,3.84,3.84,0,0,1,.14-.36.56.56,0,0,1,0-.12,2.29,2.29,0,0,1,.1-.23c.07-.16.15-.32.23-.48a4.91,4.91,0,0,1,.28-.5s0,0,0-.05.19-.31.29-.45l.08-.1a3.92,3.92,0,0,1,.25-.32l.13-.15c.13-.14.27-.29.41-.42s.26-.24.4-.35l.23-.18.25-.16a4,4,0,0,1,.52-.31l.29-.14.23-.11.34-.14.34-.11h0l.31-.09.48-.11c.12,0,.24,0,.37-.06a3.32,3.32,0,0,1,.44-.06l1.08-.08c.34,0,.69,0,1.06,0h.08a45.78,45.78,0,0,1,16.45,3.44,6.49,6.49,0,0,1,.59.31l.26.14.23.16.21.14a1.58,1.58,0,0,1,.15.12h0l.2.18.11.1.11.12.09.12.08.1a1.62,1.62,0,0,1,.1.18l.06.11a.37.37,0,0,0,0,.11c0,.09.05.17.07.25a2.17,2.17,0,0,1,0,.25c.13,1.66-1.76,3.75-1.36,7.71,0,.37.08.73.13,1.09s.08.59.13.88v0c0,.2.07.41.1.61.07.36.15.71.22,1.05l.12.53c.05.17.09.34.13.51.09.34.18.67.28,1s.18.64.28.94.27.85.42,1.24c.25.74.51,1.42.75,2,.09.22.17.43.24.62.24.64.46,1.21.63,1.74,0,.1.07.21.1.31s.11.4.16.58.08.36.1.53,0,.13,0,.18v0a.49.49,0,0,1,0,.12Z" transform="translate(0 -1.2)"/><path class="cls-1" d="M300.05,211.45,194.21,223.34c-.77.16-11.7,2.51-25.64,15l-.07.05-.08.06C150.21,251.77,139.54,257,133.87,259h0a20.45,20.45,0,0,1-5,1.26c-.22.06-.54.15-1,.25h0c-.22.06-.48.1-.78.16l-1.77.31c-1,.18-2.94.5-4.38.69a49.85,49.85,0,0,1-6.92.54,31.53,31.53,0,0,1-5.54-.46h0A22.43,22.43,0,0,1,97.79,257c-5.39-4.46-9-11.86-10.75-22,0-.22-.55-3.65-.58-3.95s-.11-1.19-.19-2.21l-.18-2.32c-.66-12.33,2.18-21.38,8.46-26.9,5.75-5.05,13.4-6.24,18.66-6.7,2.33-.2,7-.34,7.91-.37a11.81,11.81,0,0,1,1.88-.13c4.67,0,16.29,1.65,41.67,12.64l.08,0,.08,0c15.35,8.47,26,8.9,28,8.9h.3L293.6,202.69a21.89,21.89,0,0,0,3.54,5.93A20.2,20.2,0,0,0,300.05,211.45Z" transform="translate(0 -1.2)"/><path class="cls-1" d="M436.11,205.23a3.57,3.57,0,0,1-2.55,1.1h0c-4.69,0-6.09-5.56-6.62-9.14l-97,10.9a35.15,35.15,0,0,0,3.73-5.06,50.27,50.27,0,0,0,2.73-5.15l89.5-10c-.28-3.62-.14-9.37,4.45-10.4a4.13,4.13,0,0,1,.78-.08c3.61,0,4.92,5.26,5.15,6.32v.09l0,.1,1.67,14.9v.18C438,199.66,437.91,203.37,436.11,205.23Z" transform="translate(0 -1.2)"/><path class="cls-1" d="M230.37,144.36h0Zm21.76-23.62c.36-.67.71-1.33,1-2C252.83,119.41,252.48,120.07,252.13,120.74Zm11.39,35.48a15.66,15.66,0,0,0,1.2,1.45C264.31,157.22,263.91,156.74,263.52,156.22Zm88.31-48c.41-.34.82-.68,1.24-1C352.66,107.5,352.24,107.83,351.83,108.18Zm3.87,25.1a8.79,8.79,0,0,0,1.27-.36A12.4,12.4,0,0,1,355.7,133.28Zm1.43-28.64c.52-.26,1-.51,1.54-.73C358.17,104.13,357.65,104.37,357.13,104.64Zm35.81,18.24c.61.15,1.2.26,1.78.37C394.14,123.14,393.54,123,392.94,122.88Z" transform="translate(0 -1.2)"/><path class="cls-1" d="M426.44,104.53a.62.62,0,0,0-.45.19q-1,.94-2.28,2.1a36,36,0,0,1-7.95,5.91c-.28.14-.55.27-.84.39l-.44.17c-.3.12-.61.22-.92.32a19.85,19.85,0,0,1-5.66.79,20.59,20.59,0,0,1-6.8-1.11,44,44,0,0,1-10.87-5.8,171.19,171.19,0,0,0,8.36-24,41.75,41.75,0,0,0,1.12-11.64A37,37,0,0,0,396.21,57c-2.52-5.07-6.54-9.1-12.45-10.65a12.11,12.11,0,0,0-3-.38,17.71,17.71,0,0,0-7.13,1.68c-.47.21-.95.44-1.43.68s-.8.42-1.19.65h0a43,43,0,0,0-5.13,3.45l-1.35,1.08q-1,.84-2,1.71l-1.27,1.17-.94.89q-1.69,1.65-3.23,3.29L356,61.73c-.53.58-1,1.16-1.53,1.72l-.94,1.11c-3.36,4-5.45,7-5.45,7,.43-6.56.24-9-7.55-20.78a31,31,0,0,0-6.22-7.23c-.3-.24-.6-.46-.89-.67a12.61,12.61,0,0,0-4.21-2l-.8-.17a11.69,11.69,0,0,0-1.93-.16,19.55,19.55,0,0,0-4.93.78c-5.13,1.31-11.89,24-13.15,46.3s-1.31,46.14-1.31,46.14a52.24,52.24,0,0,1-3.87,7l-.42.63c-.54.79-1.12,1.59-1.73,2.37l-.63.77c-2.36,2.81-5.22,5.25-8.38,5.92a6.19,6.19,0,0,1-.86.15,8.85,8.85,0,0,1-.89,0c-.25,0-.51,0-.78,0-9.84-1-8.62-18-7.39-30s4.45-21,9-37.94-.35-18.79-5.8-24a10.49,10.49,0,0,0-3.71-2.33c-.32-.12-.66-.22-1-.31a11.73,11.73,0,0,0-4.45-.3l-.6.09L275,56l-.62.17-.58.21a5.38,5.38,0,0,0-.55.24c-.18.08-.35.17-.51.26l-.47.3a4.81,4.81,0,0,0-.8.67,2.24,2.24,0,0,0-.32.37,3.06,3.06,0,0,0-.68,1.66c-.31,4-2.78,11.51-6.56,19.65s-4.78,21-7.84,32.12a27.34,27.34,0,0,1-.93,2.77c-.15.38-.31.79-.48,1.19l-.27.61q-.27.63-.57,1.26c-.2.42-.41.86-.63,1.29-.32.65-.67,1.31-1,2a91.17,91.17,0,0,1-5.47,8.8l-.94,1.32c-.47.65-.95,1.29-1.43,1.92-.32.42-.64.84-1,1.24-1.14,1.42-2.28,2.76-3.41,4l-1,1-.95.94h0c-.62.59-1.24,1.15-1.85,1.64h0a19.08,19.08,0,0,1-2.59,1.82h0c-.24.14-.49.27-.73.38l-.09,0a5.78,5.78,0,0,1-.65.25l-.14,0-.57.15-.17,0a4.8,4.8,0,0,1-.52.05h-.3c-6.78-.49-1.26-24.48,1.86-34.91s10.65-34.22,12.1-38.5S239,61.28,235.9,58.71l-.83-.66-.63-.5-.69-.52c-.46-.35-1-.71-1.5-1.08a33.33,33.33,0,0,0-3.37-2.07c-.29-.16-.58-.3-.87-.44a11.34,11.34,0,0,0-4.67-1.28,4.35,4.35,0,0,0-.51,0,3.85,3.85,0,0,0-.49.07,3.59,3.59,0,0,0-.47.12,3,3,0,0,0-.45.18c-5.76,2.7-11.1,19.15-13.62,32.46s-5.35,41-2.1,58c.21,1.09.46,2.11.74,3.07.19.64.4,1.25.61,1.83,3,7.83,8.64,10.56,14.63,10.56a23.33,23.33,0,0,0,3.71-.32l1.24-.24,1.22-.3c.35-.09.69-.19,1-.3l.38-.11.41-.14c.6-.2,1.18-.41,1.76-.65,9.78-3.91,22.75-30.72,23.21-31a.27.27,0,0,1,.16-.06c.37,0,.6,1,.38,4.17-.26,3.58.32,11.31,6.2,23.21a23.32,23.32,0,0,0,2.14,3.52c.39.52.79,1,1.2,1.45l.42.44c.29.28.57.55.87.8a6.23,6.23,0,0,0,.7.57,14.58,14.58,0,0,0,4.11,2.23l1.05.32a17.72,17.72,0,0,0,4.47.55,23.39,23.39,0,0,0,3.29-.24c.55-.09,1.12-.19,1.69-.31.86-.18,1.72-.4,2.6-.66.58-.18,1.17-.37,1.76-.58l.89-.33c.59-.22,1.19-.46,1.79-.72s1.2-.52,1.81-.81c11.82-5.61,17-17.06,17-17.06A190.15,190.15,0,0,1,305,169.46c-.13.8-.28,1.63-.42,2.48-.25,1.44-.52,3-.77,4.51l-.27,1.69c-.11.73-.21,1.48-.32,2.23L303,182a49.84,49.84,0,0,0-.24,12.08c0,.24.07.47.11.71.12.69.26,1.36.43,2,.06.21.12.42.19.63a14.17,14.17,0,0,0,.88,2.18c.13.23.25.45.38.66a9.4,9.4,0,0,0,.75,1.08h0c1.71,2.1,4.28,3.36,8,3.36H314c3.34-.08,6.21-2.06,8.65-5.29,9.43-12.38,12.74-43.17,13.05-55.39.4-15.42,3.37-28.71,6.74-44.17s23.65-41.93,34.67-42.33h.14a2.84,2.84,0,0,1,2,.75l.15.16c.1.1.19.22.29.34a5.41,5.41,0,0,1,.65,1.32c.06.18.11.36.16.54,2.59,10.11-9,41.48-9,41.48a17.34,17.34,0,0,0-3.17-.27c-.4,0-.81,0-1.24,0-.22,0-.44,0-.66,0-.45,0-.91.08-1.39.16l-.72.11-.73.14-.76.18-.77.19c-.77.21-1.57.47-2.38.78l-1,.41c-.5.22-1,.47-1.54.73-.34.18-.69.36-1,.56l-.52.3c-.41.25-.83.51-1.25.8s-.56.37-.83.58l-.42.31c-.42.31-.83.65-1.24,1l-.83.72-.82.78a34.53,34.53,0,0,0-3.18,3.6l-.6.82a40.23,40.23,0,0,0-2.72,4.33c-8.89,16.29-6.33,21.79,1.08,27.66a9.59,9.59,0,0,0,2.31,1.36,8,8,0,0,0,.82.3,11.33,11.33,0,0,0,3.44.51,18,18,0,0,0,4.47-.63c.43-.12.85-.24,1.29-.39l.64-.21c.64-.22,1.29-.48,1.93-.74l1.26-.56c1.46-.68,2.89-1.45,4.24-2.23l1.13-.67c1.48-.9,2.84-1.79,4-2.56,6.39-4.22,15.78-19.56,15.78-19.56a46.82,46.82,0,0,0,6.86,2.17c.6.14,1.2.26,1.78.37s1,.17,1.56.25l.85.09.67.07.86.06.61,0,.83,0h1.14A29.71,29.71,0,0,0,417.38,118a34.31,34.31,0,0,0,7.72-9c.73-1.22,1.37-2.42,1.93-3.5A.65.65,0,0,0,426.44,104.53Zm-59.73,9.2c-1.46,2.53-6.31,17.93-9.28,19l-.46.16a8.79,8.79,0,0,1-1.27.36,7.42,7.42,0,0,1-1.52.16,8.43,8.43,0,0,1-4.11-1.23c-2.54-1.38-2.26-7.6-.9-10.47,2.14-4.54,5.18-7.31,10.54-8.85a23.35,23.35,0,0,1,5.72-1.12,2.88,2.88,0,0,1,1.11.17.84.84,0,0,1,.21.11C367.19,112.34,367.2,112.89,366.71,113.73Z" transform="translate(0 -1.2)"/><path class="cls-1" d="M355.7,133.28a8.79,8.79,0,0,0,1.27-.36A12.4,12.4,0,0,1,355.7,133.28Zm0,0a8.79,8.79,0,0,0,1.27-.36A12.4,12.4,0,0,1,355.7,133.28Zm0,0a8.79,8.79,0,0,0,1.27-.36A12.4,12.4,0,0,1,355.7,133.28Zm0,0a8.79,8.79,0,0,0,1.27-.36A12.4,12.4,0,0,1,355.7,133.28Zm0,0a8.79,8.79,0,0,0,1.27-.36A12.4,12.4,0,0,1,355.7,133.28Zm0,0a8.79,8.79,0,0,0,1.27-.36A12.4,12.4,0,0,1,355.7,133.28Zm-3.87-25.1c.41-.34.82-.68,1.24-1C352.66,107.5,352.24,107.83,351.83,108.18Zm5.3-3.54c.52-.26,1-.51,1.54-.73C358.17,104.13,357.65,104.37,357.13,104.64Zm35.81,18.24c.61.15,1.2.26,1.78.37C394.14,123.14,393.54,123,392.94,122.88Zm-37.24,10.4a8.79,8.79,0,0,0,1.27-.36A12.4,12.4,0,0,1,355.7,133.28Zm-92.18,22.94a15.66,15.66,0,0,0,1.2,1.45C264.31,157.22,263.91,156.74,263.52,156.22Zm-11.39-35.48c.36-.67.71-1.33,1-2C252.83,119.41,252.48,120.07,252.13,120.74Zm-21.76,23.62h0ZM355.7,133.28a8.79,8.79,0,0,0,1.27-.36A12.4,12.4,0,0,1,355.7,133.28Zm0,0a8.79,8.79,0,0,0,1.27-.36A12.4,12.4,0,0,1,355.7,133.28Z" transform="translate(0 -1.2)"/><path class="cls-1" d="M192.39,106.22c-3.27,22.63-32.41,66.42-65.13,66.92-3.72.06-7.33,0-10.69-.18h-.32a131.94,131.94,0,0,1-13.19-1.29c-.6-.09-1.17-.19-1.7-.29s-.81-.15-1.18-.23c-.87-.18-1.61-.36-2.24-.55l-.72-.22-.34-.13c-3.61-1.45-9.08-4.7-8.9-15.81s5.23-23.31,15.68-33.53l1.08-1,.66-.63,1.35-1.25.92-.83.47-.42c.62-.55,1.24-1.1,1.87-1.63.47-.41,1-.82,1.43-1.21l1-.79,1-.78,1.42-1.13,1.43-1.09,1.41-1,1.12-.8.73-.51c.6-.41,1.2-.81,1.79-1.19l1.14-.72a40.49,40.49,0,0,1,3.74-2l.58-.26a10,10,0,0,1,3.73-1,2.16,2.16,0,0,1,1.76.68c3,3.58-4.13,7.93-8.31,11.46a39.46,39.46,0,0,0-4.75,5.66c-.24.31-.47.63-.71,1l-.71,1-.37.52-.73,1.07c-.37.54-.75,1.1-1.12,1.67-.12.18-.25.37-.37.57-.38.57-.75,1.16-1.11,1.74-.5.79-1,1.59-1.45,2.39-.35.6-.69,1.21-1,1.81-.23.4-.45.81-.66,1.21-.65,1.21-1.26,2.4-1.79,3.57-.18.39-.35.78-.51,1.16-1.7,4-2.53,7.47-1.63,9.57.05.11.1.23.16.34a3.06,3.06,0,0,0,.44.58,4.16,4.16,0,0,0,3.2,1.12h.06a25.86,25.86,0,0,0,10.33-2.25c.4-.16.79-.35,1.18-.54q.87-.42,1.74-.93c.57-.32,1.15-.68,1.72-1.05,7.41-4.86,14.23-13.4,20.52-25.36,10.31-19.63,14.8-29.59,4.33-36.49-7.89-5.19-30.93-5.3-38.64-18.54a19.35,19.35,0,0,1-2.53-9.17,32.68,32.68,0,0,1,1-8.75,58,58,0,0,1,3.7-10.81c.38-.84.78-1.65,1.19-2.46.62-1.21,1.28-2.39,2-3.53s1.41-2.24,2.16-3.31c.5-.71,1-1.41,1.53-2.09s1.07-1.35,1.61-2a64.91,64.91,0,0,1,21-16.4l1.56-.73c1-.47,2-.89,3-1.27.59-.23,1.18-.44,1.76-.64l.87-.29a41.61,41.61,0,0,1,4.91-1.28,24,24,0,0,1,5.88-.5c8,.45,20.94,3.24,26.69,12.22a18.29,18.29,0,0,1,2.8,8.13,18.9,18.9,0,0,1,.12,2c.21,13.21-8.39,26.05-19.79,34.21-.47.33-1.08.74-1.78,1.16l-.48.29-1,.55c-1.85.95-3.93,1.69-5.39,1.26a2.91,2.91,0,0,1-.51-.22c-2.36-1.34-2-4.85-1.91-6.59.23-4.83,1-10.68,2.95-15.47,1.44-3.45,2.56-6.23,3.35-8.39,1.55-4.2,1.87-6.12.91-6.33h-.06c-1.61,0-18.51,8.52-24.47,18.29a2.39,2.39,0,0,0-.13.21,11.28,11.28,0,0,0-.61,1.13A11,11,0,0,0,141,49.59c1.12,12.52,19.53,17.07,29.16,22.77S195.67,83.59,192.39,106.22Z" transform="translate(0 -1.2)"/></svg>