<svg xmlns="http://www.w3.org/2000/svg" width="72.417" height="43.45" viewBox="0 0 72.417 43.45"><defs><style>.a{fill:#fff;}.b{fill:#231f20;}</style></defs><g transform="translate(0 -96)"><path class="a" d="M45.423,125.2a4.827,4.827,0,0,0,5.293,0l4.643-3.044,26.811-17.6A2.385,2.385,0,0,0,80.658,104H15.482a2.385,2.385,0,0,0-1.513.548l26.811,17.6Z" transform="translate(-11.862 -6.793)"/><path class="a" d="M77.1,107.633l-26.811,17.6-4.643,3.044a4.827,4.827,0,0,1-5.293,0l-4.643-3.044L8.9,107.633A2.4,2.4,0,0,0,8,109.5v36.208a2.414,2.414,0,0,0,2.414,2.414H75.589A2.414,2.414,0,0,0,78,145.707V109.5A2.4,2.4,0,0,0,77.1,107.633Z" transform="translate(-6.793 -9.878)"/><path class="b" d="M71.052,96.811a1.1,1.1,0,0,0-.092-.076A3.587,3.587,0,0,0,68.8,96H3.621a3.587,3.587,0,0,0-2.164.735c-.032.022-.059.051-.089.075A3.6,3.6,0,0,0,0,99.621v36.208a3.621,3.621,0,0,0,3.621,3.621H68.8a3.621,3.621,0,0,0,3.621-3.621V99.621A3.6,3.6,0,0,0,71.052,96.811ZM38.194,117.4a3.621,3.621,0,0,1-3.971,0L5.31,98.414h61.8ZM70,135.829a1.207,1.207,0,0,1-1.207,1.207H3.621a1.207,1.207,0,0,1-1.207-1.207V99.621a1.068,1.068,0,0,1,.04-.2l24.565,16.128L16.044,126.527a1.207,1.207,0,1,0,1.707,1.707l11.328-11.329,3.82,2.509a6.027,6.027,0,0,0,6.619,0l3.82-2.506,11.328,11.328a1.207,1.207,0,0,0,1.707-1.707L45.4,115.553,69.963,99.425a1.067,1.067,0,0,1,.04.2Z"/></g></svg>