<svg xmlns="http://www.w3.org/2000/svg" width="19.2" height="16" viewBox="0 0 19.2 16">
  <g id="newspaper" transform="translate(0 -2)">
    <path id="Path_385" data-name="Path 385" d="M16,18H3.2A3.209,3.209,0,0,1,0,14.8V2.8A.756.756,0,0,1,.8,2H16a.756.756,0,0,1,.8.8V14a.8.8,0,0,1-1.6,0V3.6H1.6V14.8a1.6,1.6,0,0,0,1.6,1.6H16A.8.8,0,1,1,16,18Z" fill="#3e3e3e"/>
    <path id="Path_386" data-name="Path 386" d="M11.8,3.6a.756.756,0,0,1-.8-.8.8.8,0,0,1,1.6,0A.756.756,0,0,1,11.8,3.6Z" transform="translate(-2.2)" fill="#3e3e3e"/>
    <path id="Path_387" data-name="Path 387" d="M18.8,18.4h-4a.8.8,0,1,1,0-1.6h4a1.6,1.6,0,0,0,1.6-1.6V5.6H18.8a.756.756,0,0,1-.8-.8.756.756,0,0,1,.8-.8h2.4a.756.756,0,0,1,.8.8V15.2A3.209,3.209,0,0,1,18.8,18.4Z" transform="translate(-2.8 -0.4)" fill="#3e3e3e"/>
    <path id="Path_388" data-name="Path 388" d="M8.8,12.4h-4a.756.756,0,0,1-.8-.8V6.8A.756.756,0,0,1,4.8,6h4a.756.756,0,0,1,.8.8v4.8A.756.756,0,0,1,8.8,12.4ZM5.6,10.8H8V7.6H5.6Z" transform="translate(-0.8 -0.8)" fill="#3e3e3e"/>
    <path id="Path_389" data-name="Path 389" d="M15.2,7.6H12.8a.756.756,0,0,1-.8-.8.756.756,0,0,1,.8-.8h2.4a.756.756,0,0,1,.8.8A.756.756,0,0,1,15.2,7.6Z" transform="translate(-2.4 -0.8)" fill="#3e3e3e"/>
    <path id="Path_390" data-name="Path 390" d="M15.2,10.6H12.8a.8.8,0,1,1,0-1.6h2.4a.8.8,0,0,1,0,1.6Z" transform="translate(-2.4 -1.4)" fill="#3e3e3e"/>
    <path id="Path_391" data-name="Path 391" d="M15.2,13.6H12.8a.8.8,0,1,1,0-1.6h2.4a.8.8,0,0,1,0,1.6Z" transform="translate(-2.4 -2)" fill="#3e3e3e"/>
    <path id="Path_392" data-name="Path 392" d="M13.6,17.6H4.8a.8.8,0,1,1,0-1.6h8.8a.8.8,0,1,1,0,1.6Z" transform="translate(-0.8 -2.8)" fill="#3e3e3e"/>
  </g>
</svg>
