<svg xmlns="http://www.w3.org/2000/svg" width="68.013" height="68.013" viewBox="0 0 68.013 68.013"><defs><style>.a{fill:#fff;}.b{fill:#231f20;}</style></defs><path class="a" d="M23.87,8H12.534A4.534,4.534,0,0,0,8,12.534V69.211a4.534,4.534,0,0,0,4.534,4.534H23.87A4.534,4.534,0,0,0,28.4,69.211V12.534A4.534,4.534,0,0,0,23.87,8ZM12.534,22.736V25h0Z" transform="translate(-6.866 -6.866)"/><path class="a" d="M195.075,32H152V90.944h43.075a2.267,2.267,0,0,0,2.267-2.267V34.267A2.267,2.267,0,0,0,195.075,32ZM164.469,84.143h-6.8v-6.8h6.8Zm0-11.335h-6.8v-6.8h6.8Zm0-11.335h-6.8v-6.8h6.8Zm13.6,22.671h-6.8v-6.8h6.8Zm0-11.335h-6.8v-6.8h6.8Zm0-11.335h-6.8v-6.8h6.8Zm13.6,22.671h-6.8v-6.8h6.8Zm0-11.335h-6.8v-6.8h6.8Zm0-11.335h-6.8v-6.8h6.8Zm0-12.469H157.668V37.668h34.006Z" transform="translate(-130.463 -27.466)"/><path class="a" d="M192,83.335h34.006V72H192Z" transform="translate(-164.795 -61.798)"/><path class="a" d="M192,192h6.8v6.8H192Z" transform="translate(-164.795 -164.795)"/><path class="a" d="M192,272h6.8v6.8H192Z" transform="translate(-164.795 -233.459)"/><path class="a" d="M192,352h6.8v6.8H192Z" transform="translate(-164.795 -302.124)"/><path class="a" d="M288,192h6.8v6.8H288Z" transform="translate(-247.192 -164.795)"/><path class="a" d="M288,272h6.8v6.8H288Z" transform="translate(-247.192 -233.459)"/><path class="a" d="M288,352h6.8v6.8H288Z" transform="translate(-247.192 -302.124)"/><path class="a" d="M384,192h6.8v6.8H384Z" transform="translate(-329.59 -164.795)"/><path class="a" d="M384,272h6.8v6.8H384Z" transform="translate(-329.59 -233.459)"/><path class="a" d="M384,352h6.8v6.8H384Z" transform="translate(-329.59 -302.124)"/><path class="b" d="M64.612,3.4H22.19A5.668,5.668,0,0,0,17,0H5.668A5.674,5.674,0,0,0,0,5.668V62.345a5.674,5.674,0,0,0,5.668,5.668H17a5.668,5.668,0,0,0,5.187-3.4H64.612a3.4,3.4,0,0,0,3.4-3.4V6.8A3.4,3.4,0,0,0,64.612,3.4ZM17,65.746H5.668a3.4,3.4,0,0,1-3.4-3.4V5.668a3.4,3.4,0,0,1,3.4-3.4H17a3.4,3.4,0,0,1,3.4,3.4V62.345A3.4,3.4,0,0,1,17,65.746Zm48.742-4.534a1.134,1.134,0,0,1-1.134,1.134H22.671V5.668H64.612A1.134,1.134,0,0,1,65.746,6.8Z"/><path class="b" d="M184,77.6h36.273V64H184Zm2.267-11.335h31.739v9.068H186.267Z" transform="translate(-157.928 -54.932)"/><path class="b" d="M184,193.068h9.068V184H184Zm2.267-6.8H190.8V190.8h-4.534Z" transform="translate(-157.928 -157.928)"/><path class="b" d="M184,273.068h9.068V264H184Zm2.267-6.8H190.8V270.8h-4.534Z" transform="translate(-157.928 -226.593)"/><path class="b" d="M184,353.068h9.068V344H184Zm2.267-6.8H190.8V350.8h-4.534Z" transform="translate(-157.928 -295.258)"/><path class="b" d="M280,193.068h9.068V184H280Zm2.267-6.8H286.8V190.8h-4.534Z" transform="translate(-240.326 -157.928)"/><path class="b" d="M280,273.068h9.068V264H280Zm2.267-6.8H286.8V270.8h-4.534Z" transform="translate(-240.326 -226.593)"/><path class="b" d="M280,353.068h9.068V344H280Zm2.267-6.8H286.8V350.8h-4.534Z" transform="translate(-240.326 -295.258)"/><path class="b" d="M376,193.068h9.068V184H376Zm2.267-6.8H382.8V190.8h-4.534Z" transform="translate(-322.723 -157.928)"/><path class="b" d="M376,273.068h9.068V264H376Zm2.267-6.8H382.8V270.8h-4.534Z" transform="translate(-322.723 -226.593)"/><path class="b" d="M376,353.068h9.068V344H376Zm2.267-6.8H382.8V350.8h-4.534Z" transform="translate(-322.723 -295.258)"/><path class="b" d="M43.335,113.134H34.267V112H32v3.4H45.6V112H43.335Z" transform="translate(-27.466 -96.13)"/><path class="b" d="M32,400H45.6v2.267H32Z" transform="translate(-27.466 -343.323)"/><path class="b" d="M392,120h2.267v2.267H392Z" transform="translate(-336.456 -102.997)"/></svg>