<svg xmlns="http://www.w3.org/2000/svg" width="47.596" height="67.994" viewBox="0 0 47.596 67.994"><defs><style>.a{fill:#fff;}</style></defs><g transform="translate(-88 -16)"><ellipse class="a" cx="12.5" cy="4.5" rx="12.5" ry="4.5" transform="translate(99.298 73.988)"/><path class="a" d="M118.665,24a22.658,22.658,0,0,1,22.665,22.651v.014c0,12.522-22.665,38.53-22.665,38.53S96,59.187,96,46.665A22.658,22.658,0,0,1,118.651,24Z" transform="translate(-6.867 -6.867)"/><circle class="a" cx="17.5" cy="17.5" r="17.5" transform="translate(94.298 21.988)"/><g transform="translate(99.156 28.195)"><ellipse class="a" cx="3.5" cy="3" rx="3.5" ry="3" transform="translate(0.142 7.792)"/><ellipse class="a" cx="3.5" cy="4" rx="3.5" ry="4" transform="translate(14.142 -0.208)"/><circle class="a" cx="3.5" cy="3.5" r="3.5" transform="translate(11.142 14.792)"/></g><path d="M164.264,74.132a18.132,18.132,0,1,0-18.132,18.132A18.132,18.132,0,0,0,164.264,74.132Zm-34,0A15.865,15.865,0,1,1,146.132,90,15.865,15.865,0,0,1,130.266,74.132Z" transform="translate(-34.334 -34.334)"/><path d="M180.216,115.614a4.508,4.508,0,0,0-7.461-3.431l-4.17-2.923a4.347,4.347,0,0,0,.2-2.526l5.769-2.885a4.468,4.468,0,1,0-1.03-2.019l-5.769,2.885a4.533,4.533,0,1,0-.471,6.4l4.17,2.923a4.48,4.48,0,0,0-.3,1.579,4.533,4.533,0,0,0,9.066,0Zm-2.266-17a2.266,2.266,0,1,1-2.266,2.266A2.266,2.266,0,0,1,177.949,98.616Zm-13.6,11.332a2.266,2.266,0,1,1,2.266-2.266A2.266,2.266,0,0,1,164.35,109.948Zm9.066,5.666a2.266,2.266,0,1,1,2.266,2.266A2.266,2.266,0,0,1,173.416,115.614Z" transform="translate(-61.618 -69.017)"/><path d="M117.53,73.155C124.278,64.633,135.6,48.977,135.6,39.8a23.8,23.8,0,1,0-47.6,0c0,9.179,11.318,24.835,18.066,33.357-4.092.745-7.867,2.4-7.867,5.173,0,3.72,6.841,5.666,13.6,5.666s13.6-1.946,13.6-5.666C125.4,75.552,121.622,73.9,117.53,73.155ZM111.8,18.266A21.555,21.555,0,0,1,133.329,39.8c0,10.6-17.433,31.918-21.531,36.783C107.7,71.708,90.266,50.4,90.266,39.8A21.555,21.555,0,0,1,111.8,18.266Zm0,63.461c-6.813,0-11.332-2.047-11.332-3.4,0-.942,2.528-2.493,7.243-3.125,1.8,2.209,3.029,3.632,3.235,3.87a1.133,1.133,0,0,0,1.6.11,1.153,1.153,0,0,0,.11-.11c.206-.238,1.44-1.661,3.235-3.87,4.714.632,7.243,2.184,7.243,3.125,0,1.353-4.519,3.4-11.332,3.4Z"/></g></svg>