<?xml version="1.0" encoding="UTF-8" standalone="no"?>
<svg
   xmlns:dc="http://purl.org/dc/elements/1.1/"
   xmlns:cc="http://creativecommons.org/ns#"
   xmlns:rdf="http://www.w3.org/1999/02/22-rdf-syntax-ns#"
   xmlns:svg="http://www.w3.org/2000/svg"
   xmlns="http://www.w3.org/2000/svg"
   xmlns:sodipodi="http://sodipodi.sourceforge.net/DTD/sodipodi-0.dtd"
   xmlns:inkscape="http://www.inkscape.org/namespaces/inkscape"
   width="62"
   height="63"
   viewBox="0 0 62 58"
   version="1.1"
   id="svg895"
   sodipodi:docname="profession.svg"
   inkscape:version="0.92.4 (5da689c313, 2019-01-14)">
  <metadata
     id="metadata899">
    <rdf:RDF>
      <cc:Work
         rdf:about="">
        <dc:format>image/svg+xml</dc:format>
        <dc:type
           rdf:resource="http://purl.org/dc/dcmitype/StillImage" />
        <dc:title></dc:title>
      </cc:Work>
    </rdf:RDF>
  </metadata>
  <sodipodi:namedview
     pagecolor="#ffffff"
     bordercolor="#666666"
     borderopacity="1"
     objecttolerance="10"
     gridtolerance="10"
     guidetolerance="10"
     inkscape:pageopacity="0"
     inkscape:pageshadow="2"
     inkscape:window-width="1920"
     inkscape:window-height="1001"
     id="namedview897"
     showgrid="false"
     viewbox-height="58"
     inkscape:zoom="12.825397"
     inkscape:cx="31"
     inkscape:cy="56.450495"
     inkscape:window-x="2391"
     inkscape:window-y="-9"
     inkscape:window-maximized="1"
     inkscape:current-layer="svg895" />
  <defs
     id="defs863">
    <style
       id="style858">.a{fill:#c97e81;}.b{clip-path:url(#a);}</style>
    <clipPath
       id="a">
      <rect
         class="a"
         width="62"
         height="63"
         id="rect860"
         x="0"
         y="0"
         style="fill:#c97e81" />
    </clipPath>
  </defs>
  <g
     class="b"
     clip-path="url(#a)"
     id="g893"
     transform="translate(0.46782179,0.31188119)">
    <g
       transform="translate(-0.318,3.223)"
       id="g891">
      <path
         class="a"
         d="M 58.461,2.6 H 10.439 A 4.176,4.176 0 0 0 6.264,6.776 V 40.182 H 1.044 A 1.044,1.044 0 0 0 0,41.226 4.176,4.176 0 0 0 4.176,45.4 H 34.45 v 12.529 a 1.044,1.044 0 0 0 1.782,0.738 l 5.526,-5.526 5.526,5.526 a 1.044,1.044 0 0 0 0.738,0.306 1.031,1.031 0 0 0 0.4,-0.079 1.044,1.044 0 0 0 0.644,-0.965 V 45.4 H 52.2 a 4.176,4.176 0 0 0 4.176,-4.176 V 7.82 h 5.22 A 1.044,1.044 0 0 0 62.64,6.776 4.176,4.176 0 0 0 58.461,2.6 Z M 54.285,6.776 V 40.182 H 50.109 V 42.27 H 54 a 2.088,2.088 0 0 1 -1.8,1.044 H 49.065 V 42.27 H 46.977 V 55.409 L 42.5,50.927 a 1.044,1.044 0 0 0 -1.476,0 l -4.482,4.482 V 42.27 H 34.45 v 1.044 H 4.176 A 2.088,2.088 0 0 1 2.369,42.27 H 33.406 V 40.182 H 8.352 V 6.776 A 2.088,2.088 0 0 1 10.44,4.688 h 44.425 a 4.133,4.133 0 0 0 -0.58,2.088 z m 2.369,-1.044 a 2.088,2.088 0 0 1 3.614,0 z"
         transform="translate(0,-2.6)"
         id="path865"
         inkscape:connector-curvature="0"
         style="fill:#c97e81" />
      <g
         transform="translate(31.776,19.849)"
         id="g869">
        <path
           class="a"
           d="m 46.2,31.9 -1.337,-2.4 1.343,-2.394 a 1.044,1.044 0 0 0 -0.4,-1.422 c -0.025,-0.014 -0.051,-0.028 -0.078,-0.04 l -2.492,-1.141 -0.322,-2.725 a 1.044,1.044 0 0 0 -1.16,-0.913 q -0.04,0 -0.079,0.013 L 38.984,21.411 37.128,19.4 A 1.075,1.075 0 0 0 35.607,19.388 L 35.6,19.4 33.739,21.416 31.048,20.883 a 1.044,1.044 0 0 0 -1.227,0.822 q -0.008,0.039 -0.013,0.079 l -0.322,2.725 -2.496,1.141 a 1.044,1.044 0 0 0 -0.515,1.384 q 0.018,0.04 0.04,0.078 l 1.343,2.388 -1.343,2.4 a 1.044,1.044 0 0 0 0.4,1.422 c 0.025,0.014 0.051,0.028 0.078,0.04 l 2.489,1.138 0.322,2.727 a 1.044,1.044 0 0 0 1.16,0.913 q 0.04,0 0.079,-0.013 l 2.691,-0.533 1.866,2.018 a 1.044,1.044 0 0 0 1.475,0.057 q 0.03,-0.028 0.057,-0.057 l 1.857,-2.012 2.691,0.533 a 1.029,1.029 0 0 0 0.816,-0.18 1.044,1.044 0 0 0 0.418,-0.721 l 0.322,-2.725 2.492,-1.143 A 1.044,1.044 0 0 0 46.243,31.98 C 46.23,31.951 46.217,31.925 46.2,31.9 Z m -3.444,-1.886 1.074,1.917 -2,0.916 a 1.044,1.044 0 0 0 -0.6,0.827 l -0.257,2.185 -2.158,-0.427 a 1.029,1.029 0 0 0 -0.969,0.313 l -1.491,1.616 -1.491,-1.614 a 1.044,1.044 0 0 0 -0.766,-0.335 0.943,0.943 0 0 0 -0.2,0.021 L 31.74,35.86 31.483,33.675 a 1.044,1.044 0 0 0 -0.6,-0.827 l -2,-0.916 1.074,-1.917 a 1.024,1.024 0 0 0 0,-1.021 v 0 l -1.067,-1.913 2,-0.916 a 1.044,1.044 0 0 0 0.6,-0.827 l 0.257,-2.185 2.158,0.427 a 1.034,1.034 0 0 0 0.969,-0.313 l 1.491,-1.619 1.491,1.614 a 1.028,1.028 0 0 0 0.969,0.313 l 2.158,-0.427 0.257,2.185 a 1.044,1.044 0 0 0 0.6,0.827 l 2,0.916 -1.074,1.917 a 1.044,1.044 0 0 0 -0.007,1.02 z"
           transform="translate(-26.38,-19.078)"
           id="path867"
           inkscape:connector-curvature="0"
           style="fill:#c97e81" />
      </g>
      <g
         transform="translate(36.538,25.055)"
         id="g873">
        <path
           class="a"
           d="m 35.553,23.4 a 5.22,5.22 0 1 0 5.22,5.22 5.22,5.22 0 0 0 -5.22,-5.22 z m 0,8.352 a 3.132,3.132 0 1 1 3.132,-3.132 3.132,3.132 0 0 1 -3.132,3.132 z"
           transform="translate(-30.333,-23.4)"
           id="path871"
           inkscape:connector-curvature="0"
           style="fill:#c97e81" />
      </g>
      <g
         transform="translate(22.967,6.264)"
         id="g877">
        <rect
           class="a"
           width="16.702999"
           height="2.0880001"
           id="rect875"
           x="0"
           y="0"
           style="fill:#c97e81" />
      </g>
      <g
         transform="translate(12.527,12.527)"
         id="g881">
        <rect
           class="a"
           width="37.582001"
           height="2.0880001"
           id="rect879"
           x="0"
           y="0"
           style="fill:#c97e81" />
      </g>
      <g
         transform="translate(12.527,16.703)"
         id="g885">
        <rect
           class="a"
           width="37.582001"
           height="2.0880001"
           id="rect883"
           x="0"
           y="0"
           style="fill:#c97e81" />
      </g>
      <g
         transform="translate(13.571,30.274)"
         id="g889">
        <rect
           class="a"
           width="13.571"
           height="2.0880001"
           id="rect887"
           x="0"
           y="0"
           style="fill:#c97e81" />
      </g>
    </g>
  </g>
</svg>
