<svg id="Layer_1" data-name="Layer 1" xmlns="http://www.w3.org/2000/svg" width="216" height="216" viewBox="0 0 500 500"><defs><style>.cls-1{fill:#606060;}</style></defs><title>splywy</title><path d="M249.3157,403.9589c.0668.1821.1335.3645.2005.5528-48.9135,13.8363-83.2069,40.8653-106.1846,61.7839a4.2524,4.2524,0,1,1-5.7216-6.2925c23.6459-21.5139,58.9171-49.3143,109.3551-63.6123a43.2454,43.2454,0,0,0,1.3909,5.1507C248.66,402.41,248.9815,403.218,249.3157,403.9589Z"/><path d="M494.5566,436.43c-42.2562,6.8818-71.2957-5.5395-102.0358-18.69-11.9595-5.1142-24.0833-10.3014-37.2333-14.3345.0243-.0668.0427-.1335.0608-.2l1.8284-3.5533-.0792-.2189.0365-.0848-.6134-1.64q.0272-.2278.0546-.4556c.0181-.1334.0365-.2915.0546-.4677.0427-.3339.0729-.6619.1035-.9962l.0667-.6133v-.2248c13.8485,4.1788,26.5429,9.6091,39.0674,14.9662,29.574,12.6521,57.5081,24.6057,97.3226,18.1186a4.2523,4.2523,0,0,1,1.3666,8.3941Z"/><path d="M139.4808,406.7165c23.3-21.2042,57.9028-48.5064,107.1806-62.9806-.31,3.201-.565,6.238-.7836,9.129-45.9919,14.2435-78.56,40.0212-100.6692,60.1441a4.2545,4.2545,0,0,1-5.7278-6.2925Z"/><path d="M259.0278,343.3228c-.0729.395-.1456.8019-.2248,1.2088l-.024.0911.0181-.0911C258.876,344.1247,258.9549,343.7178,259.0278,343.3228Z"/><path d="M496.4337,383.1435c-42.2565,6.8756-71.296-5.54-102.0361-18.69-18.52-7.92-37.4336-16.017-59.9558-19.7159l-.1577-.1578-.2676-.2735-.31-.3158-.1821-.1821c-.2553-.2492-.51-.5042-.7717-.7655l-.1456-.14-.0243-.03-.03-.0244c-.2067-.2-.4072-.4009-.6136-.6014-.401-.3885-.82-.7836-1.245-1.1843l-.0244-.0243c-.4858-.4618-1.0083-.9475-1.5487-1.4517l-.401-.3645-.492-.4556-.1216-.1032-.091-.0851-.0244-.0181a1.2738,1.2738,0,0,0-.1334-.1216l-.0184-.0181c-.0546-.0486-.1154-.1032-.17-.1581l-.0122-.0243-.6984-.6133a.7173.7173,0,0,0-.0671-.0667c-.1578-.14-.3158-.2735-.4736-.4132l-.0184-.0181-.2064-.1824c-.2064-.182-.4129-.3641-.6255-.5465l-.3464-.31c-.492-.4315-.9959-.8687-1.5185-1.3183,28.9061,2.5512,51.7438,12.33,74.0412,21.8662,29.568,12.652,57.5021,24.5994,97.3229,18.1126a4.2523,4.2523,0,0,1,1.3666,8.3941Z"/><path d="M494.5566,329.8569c-42.2562,6.8818-71.2957-5.5395-102.0358-18.69-25.93-11.0908-52.6308-22.5159-88.9163-21.7629q7.17-3.99,14.5228-8.1936c30.6672,2.0043,54.5073,12.1965,77.74,22.1393,29.574,12.652,57.5081,24.6057,97.3226,18.1186a4.2493,4.2493,0,1,1,1.3666,8.3881Z"/><path d="M496.4337,276.5766c-42.2565,6.8815-71.296-5.5395-102.0361-18.6958-7.4406-3.1825-14.9479-6.3957-22.7286-9.3357q1.8311-1.2024,3.6381-2.399,2.5149-1.6584,5.0659-3.3469c5.8856,2.3507,11.65,4.8168,17.3712,7.2644,29.568,12.6521,57.5021,24.6057,97.3229,18.1186a4.2525,4.2525,0,0,1,1.3666,8.3944Z"/><path d="M209.3918,229.473,13.4043,325.3015c1.5244-1.8344,3.1461-3.6687,4.847-5.4909,20.4933-22.03,52.0232-42.76,60.6664-48.6217,13.879-9.4024,40.8166-27.5756,49.9156-32.8479,8.7829-5.09,14.3586-8.3214,15.4945-8.9955q5.1111-2.9974,9.5362-5.5819c12.6823-7.4892,27.5634-15.3186,42.651-22.7772l11.7225,25.9358Z"/><path d="M434.4977,119.4014,241.1462,213.9421l-1.154-2.5449-11.5648-25.5957c19.3942-8.91,36.978-16.4847,48.9619-21.55.6866-.2915,1.4153-.583,2.138-.8989,14.4562-5.4606,28.9909-11.1152,42.8031-16.3023l.237-.0914c2.4112-.9048,4.774-1.7735,7.1-2.6238,17.1648-6.2439,32.6839-11.0728,51.2094-16.29a1.7529,1.7529,0,0,1,.1942-.0548c10.04-2.8244,28.79-7.246,46.5629-8.34Q431.1056,119.4318,434.4977,119.4014Z"/><path d="M469.7567,140.7634,299.7718,227.8149l-21.2466,10.8844L257.2543,249.59l-1.154-2.545-1.4761-3.2677-3.553-7.8658-4.92-10.8907-1.154-2.5509L452.2942,121.1082q2.0775.501,3.9845,1.1662a26.1887,26.1887,0,0,1,7.7748,4.1423c.17.14.3461.2856.5164.4375.2731.2245.5466.4736.8076.7165.1153.1094.2369.2189.3523.328.0973.1154.2067.2429.3037.3523.2248.2735.4434.5407.65.8079.1278.164.2491.334.3707.51a15.1322,15.1322,0,0,1,2.7757,8.0178A18.6036,18.6036,0,0,1,469.7567,140.7634Z"/><path d="M35.0151,374.6035c-.1578.0063-.31.0063-.4677.0063h-.54C34.341,374.61,34.6812,374.61,35.0151,374.6035Z"/><path d="M45.1587,374.1177c-1.7311.1578-3.4317.2735-5.1083.3583-.2731.0122-.5466.0243-.8138.0305l.826-.0364C41.7329,374.3849,43.4338,374.2633,45.1587,374.1177Z"/><path d="M244.262,306.6363c-6.7783,3.2434-13.4293,6.2866-19.8191,9.0258q-5.02,2.1775-10.8115,4.6892c-1.4153.6255-4.422,1.7916-16.5942,7.2644-6.1406,2.7635-17.2923,7.0639-28.79,11.3278h-.006c-8.4913,3.1464-17.1772,6.2744-24.18,8.7405h-.0063c-3.128,1.1053-5.9158,2.0834-8.2057,2.867-2.9459,1.0143-9.105,3.2677-17.2561,6.0191-.4677.1518-.9414.31-1.4153.4739-.7228.2367-1.4515.48-2.1985.7287-.7471.2429-1.5.492-2.2718.7471q-1.5486.5013-3.1524,1.0143c-.5344.17-1.0751.34-1.6217.5163-.82.2551-1.646.5164-2.49.7776-.5588.17-1.1238.3461-1.6885.5223q-1.7037.5191-3.4622,1.0508-2.6238.7835-5.339,1.5609c-1.0327.2977-2.0773.5893-3.1343.8868-.5525.1518-1.1175.31-1.6762.4617-.5407.1519-1.0814.2975-1.6279.4434q-.41.11-.82.2186c-.2672.0729-.5466.1459-.82.2189-.5529.1456-1.1116.2912-1.6644.4431l-.3461.0913q-.6469.1637-1.294.328c-.7954.2064-1.5912.4069-2.3931.6012q-1.5486.392-3.1159.7655c-.96.2307-1.9191.4555-2.8851.6741q-1.4579.3372-2.9153.656c-.2068.0424-.4191.0911-.6258.1335-1.0751.2429-2.1562.4677-3.2434.6865a.021.021,0,0,0-.0122.006c-1.057.2186-2.12.4312-3.1766.6317-.8809.1762-1.7614.34-2.636.4979q-1.6309.2919-3.2559.565c-.5768.0973-1.1539.1943-1.7308.2853a.34.34,0,0,0-.1035.0184c-.0483.006-.1032.0181-.1518.0243-.54.0852-1.0689.1641-1.61.2429-.5709.0852-1.1418.17-1.7127.2492-.6377.091-1.2694.1761-1.9073.261-.5769.0791-1.16.1518-1.7371.2188s-1.148.14-1.7249.2c-.5893.0608-1.1664.1216-1.7433.1824-.583.0608-1.16.1095-1.7311.164-1.7249.1456-3.4258.2672-5.0961.3524l-.826.0364c-.091.006-.1761.006-.2672.0122q-.5832.0178-1.1661.0362c-.1946.0062-.3951.0121-.5893.0184-.5831.0181-1.16.0181-1.7312.0243-.1578,0-.31.0059-.4677.0059-.3339.0063-.6741.0063-1.008.0063h-.34L229.6241,274.25l1.154,2.5509,7.1306,15.78,3.529,7.8113Z"/><path d="M465.3594,153.5246c-.82,1.5125-1.7312,3.0189-2.709,4.5252-7.7807,11.9352-20.0137,23.3541-27.2416,29.3978-.0424.0424-.0973.0788-.14.1275-13.6177,11.3643-25.6926,20.7486-40.2641,30.7949-1.9862,1.3726-4.0148,2.7576-6.1226,4.1729l-.2005.1394c-7.2217,4.8532-14.7717,9.8277-22.4006,14.863q-4.5372,2.9976-9.0865,6.0132-3.034,2.0228-6.0556,4.0394-1.0116.6285-1.9865,1.2207c-5.6851,3.45-12.7733,7.7078-20.8637,12.4575q-1.7314,1.02-3.529,2.0713c-1.1967.6984-2.4115,1.4093-3.6443,2.12-1.2332.7166-2.4845,1.4455-3.7538,2.1745-.6377.37-1.2756.7409-1.9195,1.1054q-.3.1819-.6012.3461-1.8768,1.0752-3.7962,2.1745c-1.154.662-2.3263,1.3242-3.5046,1.9924-.5345.31-1.0751.6133-1.6158.917q-5.3023,2.9976-10.866,6.08-1.0659.5925-2.1381,1.1845h-.0062q-5.5578,3.0612-11.31,6.1591c-1.9192,1.0264-3.8446,2.0591-5.7821,3.0794l-3.0189-6.6814-10.5383-23.3238-1.154-2.5449,42.8941-21.9694,16.0716-8.23Z"/><path class="cls-1" d="M40.0626,374.47l-.826.0364c.2672-.0062.5407-.0183.8138-.0305,1.6766-.0848,3.3772-.2,5.1083-.3583C43.4338,374.2633,41.7329,374.3849,40.0626,374.47Zm-6.0555.14h.54c.1581,0,.31,0,.4677-.0063C34.6812,374.61,34.341,374.61,34.0071,374.61Z"/><path d="M225.7671,265.7161,17.1762,372.5447H17.17a34.2533,34.2533,0,0,1-3.6687-1.2575,22.0665,22.0665,0,0,1-10.5686-8.2058c-3.59-5.4849-3.6867-11.79-1.3607-18.4768A38.48,38.48,0,0,1,3.17,340.7111L213.2426,237.9949l1.154,2.5509,3.2555,7.2039,3.5109,7.7683,3.456,7.6532Z"/><path class="cls-1" d="M39.2366,374.5065c.2672-.0062.5407-.0183.8138-.0305l.0122-.0059Zm-5.23.1033h.54c.1581,0,.31,0,.4677-.0063C34.6812,374.61,34.341,374.61,34.0071,374.61Z"/><path d="M260.1759,335.3964c-.0244.2308-.0487.4737-.073.7106-.03.2248-.0546.4556-.0851.6925.03-.2369.0549-.4677.0792-.6925C260.1213,335.87,260.1515,335.6272,260.1759,335.3964Z"/><path d="M344.7251,392.0539c.0059.3343,0,.6682,0,.9962-.0122.2248-.0184.4615-.0305.6925,0,.0668-.0122.1276-.0181.1943a.5072.5072,0,0,1,0,.1337c-.0122.1457-.0184.2975-.0306.4494v.0364c-.03.3218-.06.638-.097.9535,0,.073-.0184.1338-.0243.2-.0365.3343-.0851.6623-.14.99a.811.811,0,0,1-.0305.1824c-.0608.3888-.1335.7773-.2186,1.16a.493.493,0,0,0-.0181.0911c-.0486.2005-.0913.3947-.1459.5952-.0059.0243-.0181.0424-.0243.0667.0062.0063,0,.0122,0,.0184-.006.006,0,.0119-.006.0243-.0062.0181-.0121.0425-.0183.0668-.0122.0545-.0244.1032-.0425.164a2.5921,2.5921,0,0,1-.1094.4128.2133.2133,0,0,1-.0122.067c-.06.2246-.1334.4494-.2.6742-.0181.0608-.0362.1213-.0546.1821a1.058,1.058,0,0,1-.0424.1275c-.1216.3707-.2491.7352-.3829,1.0994a31.0845,31.0845,0,0,1-7.6227,11.2733,58.1432,58.1432,0,0,1-13.7817,9.6637c-.5831.3037-4.1061,2.0348-4.2941,2.1137-.1581.0789-1.2635.5407-2.4053,1.02-1.1421.474-2.3264.9719-2.6544,1.0935q-1.4031.5374-2.7638,1.0022-1.3573.4648-2.66.8565c-.4312.1275-.8625.2491-1.2877.37-.85.237-1.6885.45-2.5023.6379a44.8093,44.8093,0,0,1-10.0706,1.2389A28.4957,28.4957,0,0,1,280.7,428.3092q-.5739-.2731-1.13-.5647a25.75,25.75,0,0,1-4.2882-2.867c-.3947-.3218-.7836-.6561-1.154-.9962-.4374-.4007-.8627-.8076-1.2756-1.2389-.0729-.067-.14-.14-.2126-.2188-.2-.2064-.401-.425-.5953-.6439-.2672-.2915-.5222-.5831-.7714-.8868q-.246-.282-.4739-.583c-.1821-.2124-.352-.4372-.5223-.6561-.0608-.0848-.1275-.17-.1942-.255-.2-.2673-.401-.54-.5893-.8138-.1762-.2429-.3461-.4858-.5164-.735q-.7559-1.13-1.4393-2.29c-.1761-.2856-.34-.5771-.5041-.8686-.1581-.2732-.31-.5526-.4556-.8322-1.0143-1.8827-1.8951-3.7838-2.6725-5.63-.7289-1.7311-1.81-4.6589-2.5571-6.73-.3828-1.0508-.68-1.8771-.8019-2.2232a12.11,12.11,0,0,1-.7044-1.6946,33.3583,33.3583,0,0,1-1.0935-4.2153c-1.2877-6.5295-2.4841-19.5763-.4009-43.9874.1278-1.5063.2734-3.0553.4253-4.6527l.0062-.1032.024-.0911c.0792-.4069.1519-.8138.2248-1.2088.073-.4007.14-.7957.2067-1.1843.0911-.5285.1821-1.0507.2551-1.5612,0-.0121.0059-.018.0059-.0243l.0365-.2185c.0667-.4313.1275-.8625.1821-1.2816.0427-.2307.067-.45.0973-.6741.0364-.2248.0608-.4437.091-.6682a2.1174,2.1174,0,0,0,.0243-.2186q.0459-.3465.0911-.6925c.03-.2369.0549-.4677.0851-.6925.0243-.2369.0486-.48.073-.7106.0243-.237.0486-.4739.0729-.7047.0365-.3461.0668-.6862.097-1.0143.0122-.1459.0243-.2793.0365-.4252.0243-.261.0427-.5223.0608-.7774.0184-.2613.0365-.5163.0546-.7714.0243-.328.0486-.65.0608-.96a.5148.5148,0,0,1,.0062-.0973c.0243-.4128.0424-.82.0667-1.2207,0-.0973.0062-.1943.0122-.2853.0059-.3523.0181-.7047.03-1.0449.0122-.3461.0243-.6925.0243-1.0264q.0276-2.287-.0424-4.3c-.0121-.2491-.0181-.48-.0243-.7168q-.0183-.355-.0365-.6923c-.0121-.1824-.0243-.3645-.03-.5347-.0122-.1578-.0243-.3158-.0306-.4736l-.0364-.4556c-.03-.3158-.0484-.6255-.0727-.9291-.0306-.2735-.0549-.5407-.0792-.8079-.0119-.0973-.0181-.2005-.03-.2978-.0365-.3218-.073-.6439-.11-.9476,0-.0181-.0059-.03-.0059-.0545-.0851-.6985-.1762-1.3607-.2794-1.9681-.0424-.2975-.091-.5831-.1275-.85-.0851-.48-.17-.9233-.2491-1.3361-.0425-.2127-.0852-.4191-.1276-.6136q-.1094-.4739-.2005-.8746c-.1821-.7774-.3461-1.391-.48-1.816a2.9835,2.9835,0,0,0-.0911-.2978c-.0486-.1761-.0973-.3037-.1275-.3888l-.03-.097-3.3044-7.313-1.9741-4.3674-3.553-7.86-8.0542-17.8209-1.148-2.5508-3.8567-8.5341-1.1543-2.5449-3.0248-6.7-3.5166-7.78-3.59-7.9388-1.1481-2.5509-3.857-8.5219-1.1478-2.5508-11.7166-25.93-5.0051-11.0725-27.7152-61.3286-.0063-.0181-7.6407-16.8978v-.0122L142.0925,51.0513c-.3159.1276-.6317.2551-.9535.3767s-.65.2369-.9719.3523c-.328.1154-.656.2186-.9841.3218-.3277.0973-.6619.1946-.99.2794s-.6561.164-.99.2369c-.328.0668-.65.1276-.9778.1762-.1581.0243-.3221.0424-.48.0667-.3221.0365-.6439.0608-.9538.073-.1578.0059-.3159.0122-.4677.0122a8.142,8.142,0,0,1-2.235-.2856c-.0911-.0244-.1883-.0546-.2794-.0849a5.6221,5.6221,0,0,1-2.12-1.2331,6.5931,6.5931,0,0,1-.589-.6377,6.7177,6.7177,0,0,1-.5226-.7655,4.4284,4.4284,0,0,1-.3461-.753c-1.3969-4.0512,4.1242-7.4832,5.2417-8.1268l.0973-.0487.0851-.0427,16.4907-7.4527.091-.0424.1032-.0365a15.2232,15.2232,0,0,1,4.683-.8381c.2978,0,.5831.0122.8687.0365.2853.03.5647.0667.8322.1213a5.3121,5.3121,0,0,1,1.8281.7046,3.7688,3.7688,0,0,1,.6014.4618,4.0368,4.0368,0,0,1,1.063,1.6641l.0181.0424c1.7554,5.339-4.2031,8.9834-8.0845,10.8848l18.6166,41.1933,6.7848,15.0208.0059.0121,34.8463,77.1087,5.0047,11.0728,11.6621,25.808,1.154,2.5511,3.8508,8.5278,1.1542,2.545,4.1059,9.0866,3.529,7.811,2.4114,5.339,1.154,2.5449,3.857,8.5341,1.1478,2.5449,9.1171,20.1774,3.5836,7.9205.9051,2.0045,3.5044,7.7562a30.6678,30.6678,0,0,0,2.0411,3.0494c3.2617,4.3671,10.7023,12.7125,24.7085,20.9064l.0851.0546.0852.0545q2.5966,1.877,4.95,3.6385c.5285.3947,1.0507.7773,1.5549,1.1661.51.3826,1.0143.7652,1.5123,1.1419.0608.0486.1216.091.1824.1337h.0059c.34.261.6623.51.9841.7652.3888.2977.7776.5952,1.148.8868.2732.2126.5525.4312.8138.6379.3826.2975.7593.589,1.1238.8746.0608.0546.1275.1032.1883.1519.3826.3036.753.5952,1.1116.8867.3947.31.7773.6133,1.1477.917q.5922.4739,1.1665.9476a.1138.1138,0,0,1,.03.0243c.3523.2794.6925.5709,1.0327.85.3642.2916.7106.5834,1.0567.8687.2856.2429.5709.48.85.7228.3947.328.79.656,1.1661.984.5893.5042,1.16.9962,1.7131,1.482l.0059.0122c.0608.0545.1154.0973.164.14.31.2672.6074.5285.899.7957.17.1456.3342.2856.492.425q.492.4465.9656.8749c.0852.0789.17.1578.2554.2307.31.2853.6133.5647.917.8382.492.4555.96.893,1.4153,1.33.401.3767.7957.7471,1.1661,1.1116.1943.1883.3826.37.571.5528.3342.334.656.65.9718.9657.2248.2248.4372.4434.6561.6619.2064.2068.4009.4072.5952.6074.1943.2067.3826.401.5709.5953.5345.5649,1.0386,1.1056,1.5126,1.6279.0483.0486.0848.0973.1334.1518.1338.14.2672.2856.3888.4313.1578.17.31.3461.4556.5163.1518.164.2975.3339.4312.498.1456.158.2853.322.4191.48s.2613.3159.3826.4677c.2613.3037.5042.6015.7227.8868.1154.1459.2311.2856.3343.4253.3947.5042.7471.9656,1.0629,1.4031.1154.164.2307.3218.34.4736.03.0487.06.0911.0848.1338.1216.1762.237.3461.3523.51.0365.0546.0668.1094.1033.1581.0305.0483.067.097.0972.1518.0608.0911.1154.1762.1762.261.0546.0851.1094.17.1578.2492.067.1091.1278.2126.1883.31.073.1216.1459.2369.2.3464a.2361.2361,0,0,1,.03.0546c.0063.0059.0125.0121.0125.0183.0546.0911.1091.1821.1518.2673.0789.14.1457.2731.2065.3885.0486.091.091.1824.1213.2553a3.0165,3.0165,0,0,1,.17.3521l.0059.0243c.0427.0729.0671.1459.0973.2067.14.2064.37.5525.6439,1.02h-.0122c.3037.4983.7349,1.318,1.4942,2.7576.5771,1.1057,1.6582,3.201,2.4174,4.7741.0608.1337.1275.2553.1821.3888.14.2856.2734.5771.4072.8565.1275.2794.2551.5466.37.8138.0243.0486.0487.1094.073.1581.1154.261.2245.51.3339.7651.1032.2492.2065.498.3159.7471.1216.2978.2429.5893.3583.8809.091.2366.1824.4677.2734.6984.2.5223.3826,1.0324.5588,1.5366v.0062c.17.48.328.9657.4677,1.44.0059.0059.0059.0059.0059.0181.0184.0546.0305.1032.0486.1578.1095.3645.2189.723.3159,1.0813.0365.1518.0792.2978.1154.4372s.0729.28.1094.4193c.0181.06.0305.1154.0424.17.0062.0243.0122.0545.0184.0788a.857.857,0,0,0,.03.1216c.0365.1641.073.334.1154.4921.0427.2064.0914.4069.1278.6074.0668.2915.1276.589.1821.8746v.0365c.0365.1883.073.3766.1033.5646.0972.565.1761,1.1238.2369,1.6825.0181.1338.03.2554.0424.3951q.0364.2913.0546.6011v.0122q.0365.3827.0549.7655c.0181.2731.03.5466.0424.8138,0,.0181-.006.0365-.006.0545v.0852C344.7189,391.8353,344.7251,391.9448,344.7251,392.0539Z"/><path d="M322.3183,349.8644c-.4556-.4371-.9233-.8746-1.4153-1.33C321.395,348.9839,321.8627,349.4273,322.3183,349.8644Z"/><path d="M333.8466,362.9355c-.0608-.0848-.1154-.17-.1762-.261-.03-.0548-.0667-.1035-.0972-.1518.0364.0483.067.097.1035.1518C333.7372,362.7656,333.792,362.8507,333.8466,362.9355Z"/><path d="M344.2877,387.31c-.03-.188-.0668-.3763-.1033-.5646v-.0365a.0783.0783,0,0,0,.006.0365C344.2269,386.9338,344.2574,387.1221,344.2877,387.31Z"/><path class="cls-1" d="M320.903,348.5343c.492.4555.96.893,1.4153,1.33C321.8627,349.4273,321.395,348.9839,320.903,348.5343Zm12.7737,14.14c-.0365-.0548-.0671-.1035-.1035-.1518.0305.0483.067.097.0972.1518.0608.0911.1154.1762.1762.261C333.792,362.8507,333.7372,362.7656,333.6767,362.6745Zm10.5137,24.071a.0783.0783,0,0,1-.006-.0365v.0365c.0365.1883.073.3766.1033.5646C344.2574,387.1221,344.2269,386.9338,344.19,386.7455ZM260.097,336.107c-.0243.2248-.0487.4556-.0792.6925.03-.2369.0549-.4677.0851-.6925.0243-.2369.0486-.48.073-.7106C260.1515,335.6272,260.1213,335.87,260.097,336.107Z"/></svg>