<svg id="Layer_1" data-name="Layer 1" xmlns="http://www.w3.org/2000/svg" width="216" height="216" viewBox="0 0 500 500"><defs><style>.cls-1{fill:#606060;}</style></defs><title>symulator</title><path d="M47.4172,329.0659a109.6505,109.6505,0,0,0,15.398,7.3784L13.1243,360.7406C22.4622,349.5292,35.4248,338.3545,47.4172,329.0659Z"/><path d="M425.3964,159.1575,259.4854,240.279q-2.5355-.1739-5.1021-.177h-5.102a75.092,75.092,0,0,0-60.7007,31.1865c-.1648.2259-.3237.4577-.4885.69q-1.7392,2.5725-3.65,4.9924l-69.3731,33.9266c-.33.006-.6651.006-.9947.006H102.7841a77.9874,77.9874,0,0,1-24.4062-3.8937c13.8662-9.3926,39.09-26.3834,47.7562-31.4061,8.6054-4.98,14.0677-8.1477,15.1784-8.8068q4.9983-2.9292,9.3315-5.4621c15.465-9.1363,34.2807-18.7853,52.6631-27.6224,26.6641-12.8042,52.4494-23.9544,68.2807-30.6433.6654-.2867,1.3854-.5737,2.0872-.8788,14.1531-5.3462,28.3791-10.8878,41.9035-15.9654l.2381-.0855c2.3557-.891,4.6687-1.7394,6.9451-2.5694,16.8078-6.1152,32.0043-10.8451,50.1364-15.9534.0673-.0122.1222-.0366.1892-.0488C384.2009,164.4425,406.1963,159.3161,425.3964,159.1575Z"/><path d="M288.4688,290.7205a118.8321,118.8321,0,0,0,14.69,17.9c-8.6235,4.9128-17.8817,10.0638-27.4514,15.2087-18.5776,9.9785-38.3147,19.9082-55.9646,27.4759q-4.9161,2.133-10.5766,4.5895c-1.3917.6162-4.3392,1.7576-16.2523,7.1162-12.4442,5.5964-45.8583,17.6255-59.9075,22.4531-10.6132,3.6556-64.0818,23.8748-100.0349,23.5515l247.49-126.7479A42.3324,42.3324,0,0,1,288.4688,290.7205Z"/><path d="M455.6186,192.5654c-7.171,13.213-21.3606,26.5544-29.3312,33.2126-.0426.0429-.0915.08-.1281.1222-13.3412,11.1258-25.1628,20.317-39.4257,30.1489-1.9468,1.3488-3.93,2.7038-5.999,4.0892l-.1955.1341c-11.7361,7.8853-24.3692,16.1182-36.7523,24.3939-.6592.4089-1.3121.8118-1.9468,1.1962-2.6612,1.6113-5.6271,3.4055-8.8739,5.3461a86.02,86.02,0,0,1-17.1251-18.8461c-.1588-.2378-.3236-.4759-.4822-.7018q-1.9226-2.6913-4.0462-5.1876Z"/><path d="M114.0747,343.86a123.57,123.57,0,0,0,37.143-5.6939l-134.4008,68.83h-.0063c-6.103-1.74-10.9488-4.7055-13.9392-9.2646-4.1929-6.3959-3.5155-13.9392.2318-21.9035l72.3209-35.3613a111.3219,111.3219,0,0,0,27.36,3.3934Z"/><path d="M254.3833,273.0583a41.3592,41.3592,0,0,1,16.8993,3.6192l-83.6175,42.825a120.811,120.811,0,0,0,27.6711-28.9772,42.0574,42.0574,0,0,1,33.9451-17.467Z"/><path d="M459.9152,180.0726,304.6359,259.595A75.1832,75.1832,0,0,0,274.81,242.9765l168.01-82.1469a29.2737,29.2737,0,0,1,11.51,5.1938c.177.14.3477.2807.5125.4271.2626.2258.5311.4639.7873.702.116.11.2319.22.3418.3234.1037.1159.2015.2381.2992.3477.2256.2626.4333.5251.6348.7874.1281.1648.244.3295.3659.5006A15.5113,15.5113,0,0,1,459.9152,180.0726Z"/><path d="M470.8884,120.0919a98.4028,98.4028,0,0,0-70.0016-29.1113H102.7841A99.3832,99.3832,0,0,0,3.6709,190.0938V232.54a98.4333,98.4333,0,0,0,29.1053,70.0019A99.7333,99.7333,0,0,0,58.1649,321.016a98.0565,98.0565,0,0,0,20.5,7.6777,99.1279,99.1279,0,0,0,15.5261,2.5938h.0062q4.2657.366,8.5869.3659h11.2906a109.8593,109.8593,0,0,0,91.1977-48.0307c.0426-.0673.0852-.1281.1341-.1955a54.6551,54.6551,0,0,1,27.7018-20.06,53.3805,53.3805,0,0,1,16.173-2.5145h5.102a53.9344,53.9344,0,0,1,29.9538,9.1363A54.65,54.65,0,0,1,298.46,283.702c.0426.067.0852.1281.1281.1952a106.9143,106.9143,0,0,0,15.5687,18.4009,108.36,108.36,0,0,0,74.451,29.3553h12.2794A99.3941,99.3941,0,0,0,500,232.54V190.0938A98.4029,98.4029,0,0,0,470.8884,120.0919ZM491.4558,232.54a90.674,90.674,0,0,1-90.569,90.569H388.6074a99.8835,99.8835,0,0,1-66.73-25.3214,98.2549,98.2549,0,0,1-16.1856-18.6446c-.0915-.1344-.1829-.2688-.2744-.3969a62.08,62.08,0,0,0-5.3464-6.5242,60.7729,60.7729,0,0,0-7.2137-6.5911,62.5054,62.5054,0,0,0-37.1615-13.3048c-.4392-.0122-.8725-.0182-1.3121-.0182h-5.102A62.8619,62.8619,0,0,0,198.48,278.4289c-.0915.1281-.1889.2625-.2807.4029-.5552.8239-1.1229,1.6294-1.6965,2.4349a101.39,101.39,0,0,1-82.4276,41.8425H102.7841a91.6284,91.6284,0,0,1-11.2724-.6956A90.626,90.626,0,0,1,12.2151,232.54V190.0938a90.67,90.67,0,0,1,90.569-90.569H400.8868a90.67,90.67,0,0,1,90.569,90.569Z"/><path class="cls-1" d="M218.7843,270.3731l14.324-7.0063A54.0951,54.0951,0,0,0,218.7843,270.3731Z"/><path d="M115.1243,127.7025a4.273,4.273,0,0,1-4.2722,4.2721H105.75a54.1374,54.1374,0,0,0-54.0729,54.0729,4.2722,4.2722,0,0,1-8.5443,0A62.6911,62.6911,0,0,1,105.75,123.43h5.102A4.2768,4.2768,0,0,1,115.1243,127.7025Z"/></svg>