<svg id="Layer_1" data-name="Layer 1" xmlns="http://www.w3.org/2000/svg" width="216" height="216" viewBox="0 0 500 500"><defs><style>.cls-1{fill:#606060;}</style></defs><title>wypozyczalnia</title><path d="M187.6026,337.1649c-.0346-.3576-.0635-.71-.0981-1.0617a.0057.0057,0,0,1,.0058.0059v.0113C187.5449,336.4667,187.5737,336.8189,187.6026,337.1649Z"/><path d="M188.5547,347.35a.0219.0219,0,0,1-.0057-.0175c-.0924-.9406-.1847-1.8755-.2713-2.81C188.3643,345.4633,188.4566,346.4038,188.5547,347.35Z"/><path d="M219.941,498.0552c-.098.0462-.1961.0925-.3.1328-.202.0924-.4155.1848-.6175.2713-.3347.1327-.6751.26-1.0156.375-.3751.1327-.7559.2539-1.1483.3635s-.7906.2136-1.1773.2945c-.3635.08-.7155.15-1.0733.2135-.2481.04-.49.0806-.7328.0981-.531.0806-1.0561.1268-1.5812.1614-.2943.0175-.5886.0291-.8829.0291h-.1327c-.1039,0-.2078.0056-.3174.0056-.2424,0-.4847-.0116-.7329-.0172h-.04a.3218.3218,0,0,1-.075-.0059c-.2193-.0056-.4443-.0231-.6636-.04-.1789-.0059-.3636-.0231-.5425-.0406-.2827-.0228-.56-.0575-.8482-.098h-.0058a.401.401,0,0,1-.1154-.0172c-.3462-.0347-.6982-.0981-1.0445-.1674q-.5452-.0951-1.0906-.2251c-.352-.075-.7156-.173-1.0676-.2654-.3231-.0865-.6463-.1846-.9694-.2827a2.4962,2.4962,0,0,0-.2482-.0752c-.3058-.1037-.6059-.202-.9175-.3173l-.0058.0057c-.352-.1384-.6982-.2654-1.0445-.4038-.15-.0578-.3-.1212-.4558-.1848-.0174-.0057-.04-.0172-.0577-.0231-.2713-.1153-.5425-.2364-.8137-.3576-.2539-.1155-.502-.2308-.75-.3463-.277-.1386-.56-.277-.8367-.4156L73.7139,54.0532c.1615-.2538.34-.5021.5078-.7444.3289-.4731.6752-.9405,1.0214-1.3908a32.5367,32.5367,0,0,1,2.3429-2.712c.2019-.2077.41-.4156.6059-.6174.2135-.1964.4155-.3925.6231-.5886s.4214-.3869.6349-.577c.4328-.3638.86-.7214,1.3041-1.0677.2308-.1733.45-.3291.6809-.4964A21.7863,21.7863,0,0,1,83.5008,44.52c.2539-.15.5193-.2942.7733-.4385.352-.1789.71-.3578,1.0618-.5252.577-.2713,1.1772-.5193,1.7716-.756.26-.0924.5424-.19.802-.2885.2828-.0577.5771-.1211.8484-.1789.6289-.11,1.2695-.2077,1.9042-.277.3925-.0462.7849-.0749,1.183-.11.2886-.0115.5886-.0287.8829-.0346.225-.0057.4444-.0116.6636-.0116.6059,0,1.2061.029,1.8121.0752.3577.0229.7271.0634,1.0905.0981q.6579.0777,1.3158.1905a27.9606,27.9606,0,0,1,3.1334.6923c.2885.0749.5886.1673.8829.26.3.0865.5944.19.8829.2826.11.0346.2135.0749.3232.11.19.0693.3808.1386.5713.2136.2943.1039.5828.2192.8829.34.3115.1271.6347.2657.9521.4041l67.6488,239.7284v.0057q.0606,4.0075.1039,7.9174c.0058.577.0115,1.1482.0173,1.72v.2192l.0115.2136c.04.8771.0866,1.7368.1386,2.5852.5251,9.21,1.0848,17.6637,1.7023,25.8466.3289,4.4029.6232,8.0845.9175,11.5871.5655,6.7055,1.1888,13.3186,1.8466,19.6722.34,3.2719.7329,6.85,1.2464,11.2468l.0116.0636.0058.0634c.0173.1559.0346.3058.0519.4559.0288.2193.0519.4328.0808.658,1.2638,10.4445,2.6833,19.9892,4.2067,28.3625.4963,2.7179,1.01,5.3493,1.5293,7.819.5482,2.58,1.1079,5.0321,1.6677,7.2941l.3924,1.6388c.3924,1.6506.8021,3.37,1.2464,5.17.1039.4328.4617,1.9448,1.01,4.2993.3866,1.6272.86,3.6469,1.4138,5.9957,1.0791,4.6165,4.4434,15.0264,10.2774,31.8017.0981.2886.2078.6.329.9465A138.3523,138.3523,0,0,0,212.37,485.285Z"/><path d="M186.1888,487.5413c-1.0272-.9811-2.0255-1.985-2.9776-2.9892a133.3416,133.3416,0,0,1-12.99-16.4291c-4.6165-6.6015-14.2476-20.4738-16.9887-25.4366-2.7468-4.9627-4.5414-8.2115-4.9165-8.8754-1.1541-2.0369-2.2217-3.9526-3.2316-5.7647-1.0791-1.887-2.1582-3.8779-3.2488-5.9495-1.0849-2.0775-2.1813-4.2414-3.2777-6.4745-3.647-7.4558-7.3345-15.7308-10.8949-24.26-.1442-.3407-.2827-.6754-.427-1.0214-1.3388-3.2491-2.6834-6.5382-3.9818-9.816-2.3082-5.8168-4.553-11.6277-6.6823-17.2943-1.31-3.4855-2.5737-6.9248-3.7913-10.2544-3.1219-8.5348-5.886-16.429-8.16-23.0075-.2482-.71-.4963-1.4486-.75-2.2043-4.478-15.2692-9.5561-31.8307-14.4554-48.6635l-.0808-.3c-.9-3.07-1.7543-6.1113-2.5968-9.1293-1.2983-4.6568-2.5333-9.2964-3.7451-13.9647q-1.4282-5.54-2.7871-11.1777c-1.3793-5.69-2.7123-11.4835-4.04-17.4908-.11-.479-.2136-.9521-.3058-1.4367-.4213-1.8929-.831-3.82-1.2523-5.7593q-.5106-2.4408-1.0329-4.9222a1.114,1.114,0,0,1-.04-.179c-.1616-.7731-.3232-1.5522-.479-2.3254q-.5279-2.5275-1.0445-5.0955c-.8713-4.3108-1.7485-8.7424-2.6429-13.3417-.0115-.1152-.04-.2136-.052-.3288-4.68-24.2194-13.4454-85.8031-2.8853-122.9083.3463-1.2291.7214-2.4351,1.1138-3.6123Z"/><path d="M184.1691,267.358q-.0865-4.8647-.15-9.8044Q184.0883,262.4877,184.1691,267.358Z"/><path class="cls-1" d="M188.2777,344.5224c.0866.9349.1789,1.87.2713,2.81a.0219.0219,0,0,0,.0057.0175C188.4566,346.4038,188.3643,345.4633,188.2777,344.5224Zm-.7674-8.402v-.0113a.0057.0057,0,0,0-.0058-.0059c.0346.3519.0635.7041.0981,1.0617C187.5737,336.8189,187.5449,336.4667,187.51,336.12Z"/><path d="M176.4769,145.9039v.006c-.0231.2885-.0462.56-.0693.8078l-.0231.1386-.04.4672c-.427,5.1245-.8021,9.8216-1.1426,14.369-.1327,1.7253-.2539,3.4393-.3808,5.1414l-.0231.3751-.0981,1.3389-.0808,1.1542-.0288.4153v.0693c-.1155,1.6909-.2309,3.3643-.3463,5.0321v.04l-.0057.0346-.0578.97c-.11,1.7368-.2192,3.4624-.3173,5.1645-.04.56-.0751,1.1023-.1039,1.6619-.404,7.0287-.704,13.2783-.9233,19.1239-.1731,4.72-.2943,8.6328-.3751,12.3087-.1154,5.4012-.1847,10.4505-.202,15.4479-.0115,3.82-.0057,6.8208.0116,9.6368v.0059c.0057.15.0057.3.0057.45v.3694c.0174,2.3373.0462,4.6686.0693,6.994L117.2127,52.0682c.3058.2482.6117.5077.9233.7616a1.0176,1.0176,0,0,0,.0808.0693c.4385.3694.8656.7388,1.2984,1.12.1731.15.3462.3.5136.4559q.251.2163.502.45c.5944.5424,1.2,1.102,1.7947,1.6735.3173.3.6347.6173.9579.9289q.8569.84,1.7138,1.7256c.4559.4615.9.9405,1.3562,1.4195.45.4788.8944.9693,1.3387,1.4658.4559.4962.9.9867,1.3388,1.506.45.5022.8887,1.0215,1.333,1.5351.8137.9521,1.6158,1.9214,2.4179,2.9141.5136.6348,1.0214,1.2809,1.535,1.9332.41.5249.8137,1.05,1.2233,1.5869.4559.5942.9118,1.2,1.3562,1.8061.4328.5771.86,1.16,1.281,1.7371.3693.4962.7271.998,1.0849,1.5061.49.6807.9694,1.3674,1.4484,2.06.4155.6.831,1.2,1.2522,1.812q1.87,2.7439,3.6817,5.5861c.4039.623.8021,1.2637,1.2061,1.8982.8251,1.31,1.65,2.6374,2.464,3.9761.3578.6.7156,1.2,1.0791,1.7946q1.16,1.9475,2.2967,3.9126c.3751.6579.756,1.31,1.1253,1.9619.2366.4156.4847.8369.71,1.2581.3751.6636.75,1.3272,1.1137,1.9907.3577.6464.7156,1.2869,1.0676,1.9391,2.21,4.0164,4.3221,8.0558,6.3245,12.0315.3347.658.6637,1.31.9868,1.9679,1.72,3.4277,3.3412,6.8036,4.8935,10.0929.4443.9578.8771,1.9042,1.3215,2.8391.375.8135.7386,1.6157,1.1021,2.412.329.7328.6579,1.4542.9753,2.17.1385.3116.2769.6232.4155.9289.2423.5368.4789,1.0677.7155,1.5985.5482,1.2465,1.0849,2.4756,1.6042,3.676.0174.04.0347.0865.052.1267.225.5253.45,1.0389.6694,1.5582.0346.0809.0692.1558.1038.2367C176.0729,144.9634,176.2749,145.4365,176.4769,145.9039Z"/><path d="M430.6836,193.65c-.0115.1152-.04.2136-.0519.3288-.8945,4.5993-1.7716,9.0309-2.6429,13.3417q-.5195,2.571-1.0387,5.0955c-.1616.7732-.3232,1.5523-.4848,2.3254a1.114,1.114,0,0,1-.04.179q-.5193,2.4843-1.0329,4.9222c-.4155,1.9391-.831,3.8664-1.2465,5.7593-.0981.4846-.2019.9577-.3116,1.4367-1.3272,6.0073-2.66,11.801-4.0394,17.4908q-1.3677,5.6436-2.7872,11.1777c-1.2118,4.6683-2.4468,9.3079-3.7451,13.9647-.8425,3.018-1.6966,6.0591-2.5968,9.1293l-.0808.3c-4.8993,16.8328-9.9774,33.3943-14.4554,48.6635-.2539.7557-.502,1.4945-.75,2.2043-2.2679,6.5785-5.0378,14.4727-8.16,23.0075-1.2118,3.33-2.4813,6.7689-3.7913,10.2544-2.1293,5.6666-4.3683,11.4775-6.6823,17.2943-1.2984,3.2778-2.643,6.5669-3.9818,9.816-.1442.346-.2827.6807-.427,1.0214-3.56,8.5288-7.2479,16.8038-10.8949,24.26-1.0964,2.2331-2.187,4.397-3.2777,6.4745-1.0849,2.0716-2.17,4.0625-3.2431,5.95-1.0156,1.8121-2.0831,3.7278-3.2373,5.7647-.3751.6639-2.17,3.9127-4.9165,8.8754-2.7411,4.9628-12.3722,18.8351-16.9887,25.4366-.277.3925-.6059.8775-.9983,1.4314-.1154.173-.2366.346-.3636.5309-.3231.4559-.6694.9521-1.05,1.4888-.19.2655-.3866.5365-.5886.8194-.3116.4269-.6348.8656-.9695,1.3215-.1673.2308-.3405.4615-.5194.6982s-.3577.4731-.5424.7154c-.2423.3176-.4963.6464-.75.9811a.8452.8452,0,0,0-.0634.0865c-.2424.306-.4848.6174-.7329.929-.2828.3638-.5771.7273-.8771,1.1023q-.77.9522-1.5985,1.9273c-.1269.15-.2539.3-.3866.4559-.2251.2654-.45.5252-.6809.7906-.1847.2077-.3694.4213-.554.629s-.3751.4212-.5655.6291c-.1847.2133-.3751.4213-.5714.6289-.3866.4272-.779.8425-1.1771,1.2638v.0059c-.2424.2479-.479.4962-.7214.7444-.0288.0288-.0577.0634-.0865.0922-.34.3463-.681.6925-1.0272,1.0329-.3751.3751-.7559.75-1.1426,1.1138L432.4552,67.13c.0981.2942.1962.5886.2885.8887.0981.2942.19.5943.2828.9.0923.2941.1847.5942.2712.8943.0923.3.1789.6058.2655.9118,0,.0056,0,.0056.0057.0115v.0057c.1154.3981.2251.8022.3347,1.2119.0866.3288.1789.6579.2655.9926.0288.1327.0635.26.0981.3923.0923.3578.1789.7213.2654,1.0848.0981.3925.19.7906.2828,1.1887.0115.0578.0288.1215.04.179.0865.3865.1731.7734.26,1.1656.0924.4328.1847.8715.2771,1.31.0115.0693.0288.1442.04.2136.0749.3578.1442.7213.2135,1.0791.0807.4328.1615.8713.2423,1.304.1616.8831.3116,1.7774.4559,2.6777l.0173.104c.1039.6576.202,1.3215.3,1.985.0923.6692.1846,1.3387.277,2.0138.0577.4618.1154.9234.1731,1.3908.0519.41.0981.8194.1443,1.2291.04.3173.075.6348.11.958.0462.4153.0866.8366.1327,1.2578.0231.26.052.5252.075.7907.0462.4733.0924.952.1327,1.4254.0808.929.1559,1.858.2309,2.7988a.435.435,0,0,0,.0058.0865c.0634.8772.1269,1.76.1788,2.643.0058.0865.0116.1671.0173.2539.0578,1.01.11,2.0253.1616,3.0411.0058.1327.0116.2711.0174.4038.0173.4156.0346.8309.0461,1.2465.0173.41.0288.8253.0462,1.2466.0173.4961.0346.9923.0462,1.4888.0115.3.0172.6058.023.9115.0231.9.04,1.8065.052,2.7123.0057.2942.0115.5827.0115.8772C438.8779,143.8267,433.8459,177.2788,430.6836,193.65Z"/><path d="M426.2864,54.0532,301.3643,496.7222c-.277.1386-.56.277-.8367.4156-.2481.1155-.4963.2308-.75.3463-.2712.1212-.5424.2423-.8137.3576-.0173.0059-.04.0174-.0577.0231-.1558.0636-.3058.127-.4558.1848-.3463.1384-.6867.2654-1.0445.4038l-.0058-.0057c-.3116.1153-.6117.2136-.9175.3173a2.486,2.486,0,0,0-.2481.0752c-.3232.0981-.6464.1962-.97.2827-.352.0924-.71.19-1.0676.2654q-.5452.13-1.0906.2251c-.3463.0693-.6983.1327-1.0445.1674a.3731.3731,0,0,1-.1154.0172h-.0058c-.2885.0405-.5655.0752-.8425.098-.1846.0175-.3693.0347-.5482.0406-.2193.0172-.4443.0347-.6578.04a.4008.4008,0,0,1-.0808.0059h-.04c-.2482.0056-.49.0172-.7329.0172-.1039,0-.2135-.0056-.3174-.0056h-.1327c-.2943,0-.5828-.0175-.8829-.0291-.5251-.0346-1.05-.0808-1.5812-.1614-.2423-.0175-.4847-.0578-.7328-.0981-.3578-.0636-.71-.133-1.0734-.2135-.3866-.0809-.7848-.1849-1.1772-.2945s-.7732-.2308-1.1483-.3635c-.34-.1152-.6809-.2423-1.0156-.375-.202-.0865-.4155-.1789-.6175-.2713-.2366-.0981-.4616-.2021-.6867-.3173l-.0058-.0059,7.0921-11.3333c.3347-.5424.6406-1.05.9233-1.5582.202-.3347.3924-.6695.5886-1.01,1.1484-1.9966,2.2621-4.1029,3.3931-6.4227.1616-.3291.3174-.6579.4732-.9867.1962-.3925.3809-.7906.554-1.1832l.04-.0805c.15-.3176.2943-.6292.4328-.9465,2.5737-5.661,4.3395-10.5948,5.3955-13.5437.2308-.6461.4213-1.1829.5771-1.587l.0115-.0287.0058-.0287c1.7312-4.6455,8.5636-23.8038,10.5083-32.6848,1.1945-5.3784,1.7715-7.6345,2.0485-8.7193.11-.4328.19-.75.2482-1.01.577-2.3776,1.1137-4.6165,1.6215-6.7345l.1154-.4616c.1385-.577.3-1.229.4559-1.9216.2077-.8887.3866-1.6734.5482-2.4063.4559-2.02.9175-4.23,1.4888-7.15l.0173-.0749.0116-.0693c.1385-.75.2769-1.5061.4154-2.2621.1155-.6.2251-1.2119.329-1.8177l.1327-.7388.0058-.0287.0057-.0287c.127-.7329.26-1.4774.3867-2.2218.0865-.479.1615-.958.2423-1.437.1616-.929.3059-1.8408.4386-2.6889.3347-2.0487.6694-4.27,1.056-6.9825.1328-.8887.2655-1.8121.3867-2.741.1327-.9.2539-1.8062.3693-2.7123l.0115-.0519c.2481-1.8351.4732-3.6238.7213-5.5976l.0058-.0518.0058-.0519c.04-.3116.075-.6292.1154-.9408.0461-.3576.0865-.7213.1327-1.0848.3232-2.6889.6521-5.5742,1.0387-9.0712l.0231-.19v-.0175c.0115-.098.0231-.2017.0289-.3q.2423-2.2332.4674-4.4666c.1847-1.7255.3693-3.5663.5482-5.4764l.277-2.9312.0231-.2195v-.0288l.0057-.0287c.0289-.3176.0577-.6348.0866-.9408v-.0232l.0058-.0228.1789-2.0141.0288-.2941.2193-2.4353.0173-.2021.0058-.0172v-.0231c.352-3.9991.6636-7.8827.9579-11.5124l.0346-.4616v-.0521c.1385-1.8811.277-3.7278.4155-5.5511s.26-3.5951.3751-5.3378l.0692-1.0273c.0693-.9521.1328-1.8927.1962-2.81l.0231-.4272c.0173-.1673.0231-.3347.0347-.5077l.0115-.1558.0057-.0981.0058-.0868c.0577-.9521.1212-1.887.1789-2.8044v-.0462c.0635-.9693.1212-1.91.1789-2.8391.0231-.3694.0462-.7329.0692-1.0964q.0346-.5625.0693-1.1079v-.0521l.0058-.0459c.0634-1.0851.1269-2.1412.1846-3.1739l.0923-1.6275c.0578-.8425.0982-1.6734.1386-2.5908l.0115-.2136v-.2192c.0058-.5771.0115-1.1541.0231-1.7312.0288-2.6142.0635-5.2457.0981-7.9174v-.0056L394.7616,44.5664c.3174-.1384.6405-.277.9522-.4041.3-.1211.5885-.2364.8886-.34.1847-.075.3751-.1443.5655-.2077.1039-.0406.2136-.075.3232-.1155.2885-.0925.5886-.1961.8829-.2826.2943-.0925.6-.1849.8829-.26a27.9574,27.9574,0,0,1,3.1335-.6923q.6577-.1129,1.3156-.1905c.3636-.0347.7329-.0752,1.0907-.0981.6059-.0462,1.2061-.0752,1.812-.0752.2193,0,.4385.0059.6636.0116.2943.0059.5944.0231.8829.0346.3982.0347.7906.0634,1.183.11.6347.0693,1.2753.1674,1.9042.277.2713.0578.5656.1212.8483.1789.26.0981.5425.1961.8021.2885.5944.2367,1.1946.4847,1.7716.756.352.1674.71.3463,1.0618.5252.2539.1443.5194.2886.7733.4385a21.7721,21.7721,0,0,1,2.0658,1.3387c.2309.1673.45.3231.681.4964.4443.3463.8771.7039,1.3041,1.0677.2135.19.4271.3806.6348.577.2135.1961.41.3922.6232.5886.1962.2018.404.41.6059.6174a32.5367,32.5367,0,0,1,2.3429,2.712c.3463.45.6925.9177,1.0214,1.3908C425.946,53.5511,426.1249,53.7994,426.2864,54.0532Z"/><path d="M311.4571,347.3387c-.0115.1212-.0231.2364-.0346.3519.0115-.1155.0231-.2307.0288-.3463Z"/><path class="cls-1" d="M312.4958,336.0745a.0184.0184,0,0,0,.0058-.0116c.075-.9118.15-1.812.2251-2.7123C312.6516,334.2568,312.5766,335.1627,312.4958,336.0745Z"/><path d="M313.748,170.9368c.04-.1153.0866-.2364.1328-.352v.0231C313.8346,170.7235,313.7942,170.8215,313.748,170.9368Z"/><path d="M327.73,239.6188c.0231-3.0873.0231-6.2786.0058-9.7351-.0115-1.8061-.0231-3.6181-.04-5.4186-.0173-2.5622-.0577-5.286-.1327-8.8349-.0289-1.5291-.0693-3.07-.11-4.6221v-.1212c-.1154-4.0509-.2539-8.0557-.427-12.2625l-.0058-.1155v-.0116c-.0057-.15-.0115-.3-.0173-.4443l-.0057-.1386c-.0577-1.31-.1155-2.6371-.1847-3.9586l-.0231-.727-.0057-.0865-.0058-.0924-.0173-.4212c-.1154-2.193-.2309-4.4666-.3636-6.7518-.1442-2.6139-.2943-5.2513-.4559-7.8421v-.04c-.1615-2.5449-.34-5.1936-.5424-8.0963l-.0058-.0347v-.0287c-.0461-.6292-.0923-1.2522-.1385-1.8755-.0346-.5539-.075-1.1138-.1211-1.6734-.1963-2.8391-.3751-5.1995-.554-7.4212l-.0116-.1615c-.0634-.8886-.1327-1.7889-.2077-2.6832-.1847-2.372-.4328-5.4937-.704-8.7137l-.04-.4618-.0173-.1212c-.0231-.271-.0462-.5424-.0751-.8194v-.0056c.0462-.11.0924-.2192.1443-.3347.3059-.71.6117-1.4371.9291-2.17q1.42-3.298,3.0007-6.8267c.352-.785.704-1.5754,1.0676-2.3719.1789-.3982.3635-.7963.5482-1.2s.3693-.8078.5539-1.2116c.4444-.9349.8772-1.8813,1.3215-2.8391,1.5523-3.2893,3.1739-6.6652,4.8935-10.0929.3232-.6579.6521-1.31.9868-1.9679,2.0024-3.9757,4.1144-8.0151,6.3245-12.0315.352-.6522.71-1.2927,1.0676-1.9391.3636-.6635.7387-1.3271,1.1138-1.9907.225-.4212.4731-.8425.71-1.2581.3751-.652.756-1.304,1.1253-1.9619q1.134-1.965,2.2967-3.9126c.3635-.5943.7213-1.1945,1.0791-1.7946.8137-1.3387,1.6389-2.6661,2.4641-3.9761.4039-.6345.8021-1.2752,1.206-1.8982q1.8177-2.8393,3.6816-5.5861c.4213-.6117.8368-1.2119,1.2523-1.812.4847-.6926.9579-1.3793,1.4484-2.06.3578-.5081.7213-1.01,1.0849-1.5061.4212-.577.8483-1.16,1.2811-1.7371.4443-.6058.9059-1.2119,1.356-1.8061.41-.5368.8137-1.062,1.2234-1.5869.5136-.6523,1.0214-1.2984,1.535-1.9332q1.2031-1.489,2.4179-2.9141c.4443-.5136.8829-1.0329,1.333-1.5351.4386-.5193.8829-1.01,1.3388-1.506.4443-.4965.8886-.987,1.3388-1.4658.4558-.479.9-.958,1.356-1.4195q.857-.8829,1.7139-1.7256c.3232-.3116.6406-.6289.9579-.9289q.9-.8573,1.7947-1.6735c.1674-.1558.3347-.306.5078-.4559.1673-.15.34-.3.5078-.45.4328-.3807.86-.75,1.3042-1.12.0231-.0231.0519-.0462.075-.0693.3116-.2539.6175-.5134.9233-.7616L327.6552,247.4263q.0434-3.4881.0693-6.994v-.375C327.7245,239.913,327.7245,239.7631,327.73,239.6188Z"/><path class="cls-1" d="M312.4958,336.0745a.0184.0184,0,0,0,.0058-.0116c.075-.9118.15-1.812.2251-2.7123C312.6516,334.2568,312.5766,335.1627,312.4958,336.0745Zm1.2522-165.1377c.0462-.1153.0866-.2133.1328-.3289v-.0231C313.8346,170.7,313.7884,170.8215,313.748,170.9368Z"/><path d="M188.5547,347.35a.0219.0219,0,0,1-.0057-.0175c-.0924-.9406-.1847-1.8755-.2713-2.81C188.3643,345.4633,188.4566,346.4038,188.5547,347.35Z"/><path d="M222.3012,19.13V479.3988q-.8049-1.3588-1.5465-2.7179c-.7905-1.4483-1.5234-2.891-2.21-4.31-.1212-.2482-.2366-.4906-.352-.7329-.2366-.5021-.4674-.9926-.6867-1.4773-.1385-.3-.2713-.6-.404-.8943-1.3388-2.9837-2.4409-5.7822-3.3239-8.1657-.1615-.4268-.3116-.8424-.4558-1.2406-.2482-.681-.4732-1.3156-.681-1.9042q-.1385-.4154-.277-.7965c-.2769-.7963-.5077-1.477-.6982-2.02-2.7872-8.0152-8.5867-24.8365-9.9485-30.6533-1.3676-5.8168-2.2563-9.6255-2.4467-10.4045-.5887-2.4-1.12-4.6453-1.6274-6.7746-.5482-2.2217-1.0791-4.5531-1.5926-6.9594-.5079-2.4178-.9984-4.9281-1.4658-7.5077-1.57-8.6038-2.9372-18.05-4.1087-27.7161-.0519-.3866-.0923-.7675-.1385-1.16-.4328-3.6757-.854-7.3919-1.2291-11.091q-.251-2.458-.4963-4.9106c-.0173-.2021-.04-.3984-.0577-.6V347.35c-.0981-.9465-.19-1.887-.277-2.8279-.1269-1.2984-.2423-2.5967-.3635-3.8836-.075-.8078-.1443-1.6156-.2193-2.4178-.0289-.352-.0635-.7039-.0923-1.0561-.0289-.346-.0577-.6982-.0923-1.0445v-.0113a.0057.0057,0,0,0-.0058-.0059v-.0172q-.1125-1.3419-.2251-2.6661c-.3289-3.9067-.629-7.7556-.9117-11.4834-.7214-9.5446-1.27-18.3392-1.6908-25.6677-.0462-.7906-.0866-1.61-.127-2.4468-.0115-1.0849-.0231-2.17-.0346-3.2663v-.0287c-.0346-2.614-.0692-5.2454-.11-7.9231-.0058-.5367-.0174-1.0732-.0231-1.6156-.0173-1.0851-.0347-2.1815-.0462-3.2778-.0173-.929-.0346-1.8639-.0461-2.8045-.0231-1.2753-.04-2.5508-.0635-3.8317-.0173-1.235-.04-2.4756-.0577-3.7163q-.078-4.8647-.15-9.8044c-.0115-.4962-.0173-.9924-.0231-1.4945v-.173q-.0345-2.38-.0634-4.7666-.0346-2.6835-.0635-5.3781-.0346-2.7007-.0519-5.4012v-.3348c-.0289-3.3643-.0289-6.694-.0174-9.9949.0174-5.0955.0924-10.15.202-15.2284.0866-4.0222.2193-8.0557.3694-12.1357q.0864-2.311.1846-4.6453l.1039-2.3372q.1125-2.3457.2308-4.7146c.04-.7906.0808-1.5869.1212-2.3832q.13-2.3892.2654-4.8126c.0289-.5195.0635-1.0273.1039-1.5466.1154-2.0372.2481-4.1087.3751-6.1977q.1818-2.6226.3635-5.2857c0-.0406.0058-.0809.0058-.1156v-.0115a.235.235,0,0,0,.0058-.0634c.0577-.8309.1154-1.6678.1789-2.4987.1269-1.8121.26-3.63.3981-5.4706.352-4.6164.7271-9.3656,1.1368-14.2822.0231-.1212.0231-.2308.04-.3463.0289-.3.052-.6058.0808-.9118v-.0056c.0289-.3117.0577-.6233.0866-.9406a.4722.4722,0,0,1,.0057-.0924c.0116-.1443.0231-.2885.04-.4387.0116-.15.0231-.3.04-.4441.0289-.3291.0635-.6638.0924-1.0042l.0173-.1905c.0462-.4731.0923-.9636.1442-1.46.0751-.7444.1559-1.5061.2367-2.2851s.1673-1.5813.26-2.4007c.0289-.2714.0577-.5483.0924-.8253q.13-1.1856.2769-2.4235c.0635-.5368.127-1.0792.1963-1.6331.0807-.6695.1615-1.3562.2481-2.0488.0808-.6058.1558-1.2175.2366-1.8407.0519-.4038.1038-.8135.1616-1.2291.0346-.2942.075-.5886.1154-.8828s.075-.5945.1211-.8887l.1212-.9q.2511-1.8957.5367-3.8434.1471-1.0038.2943-2.0253c.0288-.1905.0577-.3866.0865-.5771.0982-.6635.202-1.3274.3059-1.9966.0462-.3232.0981-.6463.15-.9695.0289-.1961.0577-.3925.0924-.5943.0692-.45.1384-.9118.2135-1.3677.0923-.6.19-1.2062.2885-1.812.0577-.3579.1154-.7154.1789-1.0733.11-.6751.2193-1.35.3347-2.0313.0635-.3634.127-.7328.19-1.1022.0577-.34.1154-.6751.1731-1.0155.0116-.0693.0231-.1327.0347-.1964.0634-.3691.1327-.7329.1962-1.102.1269-.7388.26-1.4773.3924-2.2161.0981-.548.2019-1.102.3058-1.656.0635-.3463.127-.6982.19-1.0445.11-.5945.2251-1.1888.3405-1.7833.2135-1.1251.4328-2.262.6578-3.3987.0808-.3809.1559-.7619.2309-1.1425.1558-.7619.3058-1.5179.4674-2.2852.04-.19.0808-.3868.1212-.577q.2943-1.437.6059-2.8738c.352-1.639.7155-3.2893,1.0906-4.94.1558-.6635.3117-1.333.4675-2.0025.11-.4846.225-.9636.34-1.4483.1616-.6751.3232-1.35.49-2.0256.1847-.7732.3809-1.5466.5713-2.32.1962-.7732.3924-1.5407.5886-2.3139.1039-.3866.202-.7734.3-1.16.1558-.5771.3058-1.1541.4616-1.7312s.3059-1.1482.4674-1.7253c.1039-.3865.2078-.7675.3174-1.1484.0577-.2249.1212-.4444.1847-.6695.0346-.1268.075-.26.11-.3866a.5272.5272,0,0,0,.0231-.0922l.5367-1.87.1212-.4153c.15-.5137.3-1.0273.45-1.5351.0692-.2482.1442-.4962.2193-.7385.225-.7619.45-1.5119.6867-2.2623.0865-.2942.1789-.5827.2712-.8771q.2163-.6838.4328-1.3675,1.1166-3.5143,2.3255-6.9362c.202-.583.41-1.16.6175-1.7312q.6839-1.8871,1.3907-3.7394c.0866-.2135.1673-.4328.2539-.6463.2077-.5252.41-1.05.6175-1.57.2077-.5249.4212-1.0445.629-1.5579.1385-.3462.2827-.6866.427-1.0273.5655-1.3674,1.1483-2.7064,1.7427-4.0279.0866-.19.1731-.3865.26-.5711l.26-.5714c.2769-.6058.56-1.2119.8482-1.8121.2713-.5655.5425-1.131.82-1.6849.0288-.0634.0634-.1328.0981-.1962q.4068-.8308.8309-1.6446c.0347-.075.0751-.15.1155-.2252.225-.4384.45-.8712.6809-1.2984.0923-.1786.19-.3519.2827-.5308.2424-.45.4848-.8943.7329-1.333.2481-.45.5021-.8944.756-1.3331.0692-.1212.1385-.2364.2077-.3576.2655-.4559.5367-.9118.8079-1.3617.0346-.0578.0692-.1215.11-.179.3059-.508.6117-1.0042.9233-1.4947.0116-.0231.0289-.04.04-.0634Q221.5164,20.2807,222.3012,19.13Z"/><path class="cls-1" d="M188.2777,344.5224c.0866.9349.1789,1.87.2713,2.81a.0219.0219,0,0,0,.0057.0175C188.4566,346.4038,188.3643,345.4633,188.2777,344.5224Z"/><path d="M316.1832,240.0054v.3348q-.0173,2.7-.0519,5.4012-.026,2.6918-.0635,5.3781c-.0173,1.65-.04,3.3009-.0634,4.94q-.0606,4.1721-.127,8.2925c-.0173,1.1251-.0346,2.25-.0519,3.37-.0346,2.2389-.0693,4.4722-.1039,6.6824q-.026,1.6618-.0519,3.3066c-.0289,1.6387-.052,3.2778-.0751,4.8993-.0115.6692-.0173,1.3328-.0288,1.9967-.0289,1.9906-.052,3.9354-.075,5.8917v.04c-.0116,1.1023-.0231,2.1927-.0347,3.2835-.04.8368-.0808,1.6562-.1327,2.4468-.0923,1.5407-.1789,3.1392-.277,4.8011-.0519.7272-.0923,1.4773-.1442,2.2389-.0577.9465-.1154,1.9045-.1789,2.8969-.0577.9292-.1212,1.87-.1789,2.8275-.0173.2482-.0289.508-.0519.7675-.0693,1.062-.1385,2.1409-.2193,3.2432-.1385,2.0484-.277,4.1434-.4386,6.2843q-.225,2.9513-.45,6.007v.0115c-.0519.6579-.11,1.3159-.1616,1.9794-.0519.658-.1038,1.3215-.1616,1.991-.11,1.3387-.2192,2.6774-.3346,4.0335-.0751.9062-.15,1.8121-.2309,2.7239v.0115c-.0173.2249-.0346.4616-.0577.6923-.0808.8831-.1616,1.76-.2424,2.6374-.0692.7731-.1385,1.5407-.2077,2.32-.0346.3229-.0635.652-.0923.9808-.0981,1.05-.202,2.1006-.3,3.1566-.0462.4847-.0923.9693-.1385,1.46v.0059l-.0058.0056c-.0057.1156-.0173.2308-.0288.3463s-.0231.2367-.0346.3579c-.11,1.0732-.2193,2.1524-.329,3.2257-.15,1.4945-.3116,2.9949-.4731,4.4953-.0116.1327-.0289.2482-.04.3809q-.4935,4.5009-1.0272,8.9732c-.0808.6926-.1731,1.3733-.2539,2.06-.2251,1.8411-.4559,3.67-.71,5.488-.1154.9118-.2366,1.8177-.3693,2.7179-.1154.9-.2481,1.8-.3751,2.6892-.3347,2.2967-.6694,4.5759-1.0329,6.8092-.1385.8772-.277,1.7484-.4271,2.6084-.0692.4384-.1442.8771-.2192,1.3155-.1328.75-.26,1.5-.3924,2.2393-.15.8309-.2886,1.6618-.45,2.4812-.1385.7675-.2769,1.5407-.4212,2.2967-.4674,2.3775-.9348,4.68-1.4369,6.896-.1731.7791-.352,1.5579-.5309,2.32-.1673.7731-.3578,1.5176-.5367,2.262-.5136,2.1293-1.05,4.3742-1.6331,6.7746-.1961.8715-.727,2.6489-2.337,9.9024-1.587,7.2767-7.5769,24.4789-10.0524,31.1554-.831,2.1986-2.7007,7.8886-5.7072,14.4958-.1442.3176-.2943.6292-.4443.9465-.1385.3231-.2885.64-.45.9636-.1385.2945-.277.5945-.427.8946-.277.5655-.56,1.1367-.8541,1.7137-.19.381-.3866.756-.5886,1.137-.0058.0056-.0058.0171-.0115.0231-.0231.0459-.0462.0921-.0751.1383-.0172.0288-.0288.0578-.0461.0865-.0115.0175-.0173.0347-.0289.0521-.023.0463-.0461.0865-.0692.1328-.1847.3519-.3809.71-.5771,1.0676-.1789.3172-.3578.64-.5424.9636-.0866.1674-.1847.3288-.277.4962-.1789.3173-.3578.6289-.5482.9465-.2308.41-.4732.8134-.7213,1.2116V18.0678c.2423.34.4789.6923.7213,1.0386.0173.029.04.0634.0577.0924.26.381.5136.7676.7675,1.1541.075.1153.1558.2367.2308.352.2654.404.5251.8022.7733,1.2119.45.7213.9,1.46,1.3387,2.21.2424.3982.4675.8079.71,1.2176.4212.7272.8309,1.4773,1.2406,2.2389.3289.6.6463,1.2119.9695,1.8292.3174.6117.629,1.2409.9406,1.87.3174.6289.629,1.2581.929,1.91.3059.6349.606,1.2869.906,1.9389.5483,1.2,1.0907,2.4063,1.6216,3.6472.3405.79.6694,1.5869.9983,2.4.2712.6463.5309,1.2984.7906,1.9563.2885.7269.577,1.4773.86,2.2217.2712.71.5367,1.42.7963,2.1234.2308.6117.45,1.2235.6694,1.8408.3.8312.5944,1.6622.8829,2.4987.2482.7329.4963,1.46.75,2.1987q1.108,3.3153,2.1351,6.717c.2308.75.45,1.512.681,2.268.4616,1.5694.9233,3.1507,1.3618,4.7376.19.71.3809,1.42.5771,2.1294.41,1.5407.8194,3.0814,1.2118,4.628.19.7732.3867,1.5407.5771,2.3082.1212.4906.2539.9924.3635,1.483.1905.7791.3751,1.5582.56,2.337.1789.7619.3578,1.5119.5251,2.2679,1.0906,4.7089,2.0832,9.4063,2.9719,14.0168.15.756.3,1.5176.4385,2.2736.7618,3.97,1.4369,7.86,2.0717,11.6393.1789,1.0966.3462,2.1755.5251,3.2547,1.1714,7.4268,2.1005,14.3516,2.8218,20.4338.1212,1.0676.2366,2.1062.3578,3.1276.1327,1.2466.26,2.4466.3809,3.6067.0692.6694.1385,1.3215.202,1.9563.0288.3.0519.5942.0807.8887l.0346.3635c.0174.2192.04.4327.0578.64.0173.19.0346.381.0519.5655.0577.5886.11,1.1657.1558,1.72.0173.1846.0288.3694.0462.554.023.1155.023.2251.04.3463.2481,2.9487.4789,5.8515.6982,8.679.0808.9406.15,1.8755.2193,2.8044.202,2.4931.3809,4.94.554,7.3519.0865,1.1657.1615,2.3139.2539,3.4624v.0056c-.0462.1156-.0924.2367-.1328.352.0462-.1153.0866-.2133.1328-.3289a.5588.5588,0,0,0,.0058.0925c.19,2.7294.3692,5.4012.5366,8.0385.1616,2.6255.3116,5.2279.45,7.7844.1385,2.4007.26,4.7667.3809,7.1152.0115.2826.0173.554.0288.8194.0693,1.3908.1327,2.7813.19,4.1606.0115.1614.0115.3288.023.49.1674,4.0682.3059,8.073.4155,12.0721.04,1.57.0808,3.1276.11,4.6858q.0952,4.3537.1327,8.6962c.0173,1.789.0288,3.59.04,5.39C316.2121,233.2824,316.2121,236.618,316.1832,240.0054Z"/><path d="M312.7267,333.3506c-.0751.9-.15,1.8-.2251,2.7123a.0184.0184,0,0,1-.0058.0116C312.5766,335.1627,312.6516,334.2568,312.7267,333.3506Z"/><path d="M313.8808,170.5848v.0231c-.0462.1156-.0866.2136-.1328.3289C313.7884,170.8215,313.8346,170.7,313.8808,170.5848Z"/><path class="cls-1" d="M312.4958,336.0745a.0184.0184,0,0,0,.0058-.0116c.075-.9118.15-1.812.2251-2.7123C312.6516,334.2568,312.5766,335.1627,312.4958,336.0745Z"/><path d="M266.9773,7.0343v485.81c-.3116.2654-.6117.5368-.9291.7963-.2019.1789-.41.3519-.6174.5136-.0462.04-.0981.0806-.1443.1153a2.5409,2.5409,0,0,1-.2077.1617c-.202.1615-.3982.3173-.6117.4675-.6059.45-1.2292.8828-1.87,1.2924-.1789.11-.3693.2308-.56.3407-.2019.1212-.41.2364-.6174.3519-.0577.04-.1212.0693-.1789.104-.2424.1443-.49.2711-.7386.4038-.2309.1155-.4617.2367-.6983.3463-.2827.1383-.56.26-.854.3809q-.19.0863-.3809.173c-.1039.04-.2077.0809-.3174.1268-.1615.0578-.3174.1215-.49.1789-.1962.0809-.41.1618-.629.2311-.3289.11-.6809.2192-1.0214.3173-.3693.1039-.7271.202-1.0964.2826-.352.0924-.6982.1617-1.05.2195-.26.0518-.5194.0921-.7906.1211-.2309.04-.4674.0693-.6983.0981-.3808.04-.7617.0693-1.1425.0924-.4155.0287-.8368.04-1.27.04-.427,0-.854-.0116-1.2753-.04-.3924-.0231-.7732-.0521-1.1483-.0924-.26-.0288-.5194-.0578-.7733-.11-.56-.0693-1.1079-.1674-1.65-.2886-.3462-.0808-.6982-.1617-1.0387-.26-.3578-.0922-.71-.2018-1.056-.3117a.4959.4959,0,0,1-.1212-.04c-.2193-.0693-.4386-.15-.6579-.2307-.1846-.0578-.3635-.1271-.5424-.1961-.1212-.0463-.2423-.0925-.3693-.1443-.15-.0637-.3058-.1271-.4617-.1964a.4137.4137,0,0,1-.1153-.0519c-.3405-.1386-.681-.3-1.01-.4674-.352-.173-.704-.3519-1.0445-.5424-.075-.04-.15-.0809-.225-.1271-.26-.1442-.5252-.3-.7791-.45-.3-.1789-.6-.3694-.9-.56a2.2873,2.2873,0,0,0-.2308-.15c-.2828-.19-.56-.381-.8425-.583h-.0058c-.3232-.2364-.6348-.4675-.9406-.71-.202-.15-.4039-.3057-.6-.4615-.1442-.1156-.2885-.2367-.4327-.3579-.052-.04-.1039-.0808-.1559-.1268-.2192-.19-.4443-.3809-.6636-.5714-.2366-.2192-.49-.4384-.7271-.6579V7.6345c.2366-.2136.49-.41.7271-.6117.2712-.2192.5425-.4384.82-.6464.0115-.0115.0288-.0231.04-.0344.2769-.2079.5539-.4156.8309-.6176a.4965.4965,0,0,1,.0577-.04c.277-.2077.56-.4041.8483-.5945.0808-.0578.1616-.11.2424-.1674.2654-.173.5251-.346.7905-.5134.3174-.202.6348-.3925.9579-.583.26-.15.531-.3.7906-.45.2712-.1387.5309-.2829.8021-.4213.2655-.1386.5367-.2713.8079-.3981.5425-.2483,1.0791-.4906,1.6273-.71.2828-.11.554-.2079.831-.3116a23.6651,23.6651,0,0,1,2.4814-.7676c.3-.0808.6059-.15.906-.2192.41-.0808.8194-.1617,1.2291-.231.6636-.11,1.3388-.1905,2.0082-.2595.2943-.0231.6116-.0406.9-.0578.3.0172.6232.0347.9117.0578.6694.069,1.35.15,2.0082.26.41.0693.8194.15,1.2291.231.3.0691.6117.1384.9118.2192a23.3444,23.3444,0,0,1,2.4871.7676c.3578.1327.7214.271,1.0791.41q.6492.2683,1.2811.5711A29.1882,29.1882,0,0,1,262.88,4.1144c.2712.1617.5482.34.8194.5193.2769.1733.5482.3637.8194.5424.2712.1905.5424.3753.8079.577.0346.0231.0692.0522.1039.0753.2366.1673.4616.3463.6982.5249C266.406,6.5728,266.7,6.8036,266.9773,7.0343Z"/></svg>