<svg xmlns="http://www.w3.org/2000/svg" xmlns:xlink="http://www.w3.org/1999/xlink" width="20" height="20" viewBox="0 0 20 20">
  <defs>
    <clipPath id="clip-path">
      <rect id="Rectangle_341" data-name="Rectangle 341" width="20" height="20" transform="translate(1012 2378)" stroke="#000" stroke-width="1"/>
    </clipPath>
  </defs>
  <g id="Mask_Group_88" data-name="Mask Group 88" transform="translate(-1012 -2378)" clip-path="url(#clip-path)">
    <g id="youtube" transform="translate(1012 2378.226)">
      <path id="Path_354" data-name="Path 354" d="M18.782,5.35a2.317,2.317,0,0,0-1.617-1.667A60.008,60.008,0,0,0,10,3.333a54.834,54.834,0,0,0-7.166.383A2.317,2.317,0,0,0,1.217,5.383,24.165,24.165,0,0,0,.833,9.791a24.165,24.165,0,0,0,.383,4.441,2.317,2.317,0,0,0,1.617,1.6A54.834,54.834,0,0,0,10,16.216a54.834,54.834,0,0,0,7.166-.383,2.317,2.317,0,0,0,1.617-1.667,24.165,24.165,0,0,0,.383-4.375,24.166,24.166,0,0,0-.383-4.441Z" fill="none" stroke="#000" stroke-linecap="round" stroke-linejoin="round" stroke-width="1.667"/>
      <path id="Path_355" data-name="Path 355" d="M8.125,12.516l4.791-2.725L8.125,7.066v5.45Z" fill="none" stroke="#000" stroke-linecap="round" stroke-linejoin="round" stroke-width="1.667"/>
    </g>
  </g>
</svg>
