<svg id="Layer_1" data-name="Layer 1" xmlns="http://www.w3.org/2000/svg" width="120" height="120" viewBox="0 0 500 500"><defs><style>.cls-1{fill:#4abae9;}.cls-2{fill:#ffd629;}</style></defs><title>logo</title><path class="cls-1" d="M61.276,329.1766a59.5979,59.5979,0,0,1-6.49,6.3788,223.8594,223.8594,0,0,0,33.956,46.7814,226.9047,226.9047,0,0,0,17.0613,16.3019c.105-4.1928.2039-8.04.3026-11.436A217.1173,217.1173,0,0,1,61.276,329.1766Zm279.1817,95.7673a213.3454,213.3454,0,0,1-38.9514,13.3133,31.7167,31.7167,0,0,1-4.6992,4.1063,69.3281,69.3281,0,0,1-15.0483,8.367,221.9069,221.9069,0,0,0,51.27-13.2083q6.2613-2.4358,12.3315-5.2239A35.698,35.698,0,0,1,340.4577,424.9439ZM460.8445,147.2874a222.4427,222.4427,0,0,0-22.7051-43.5334,11.6321,11.6321,0,0,1-1.229,6.817c-.7162,1.3893-1.451,2.7356-2.192,3.9953a214.1956,214.1956,0,0,1,32.0727,98.1075c3.0009-.568,5.897-1.1484,8.5584-1.7413A222.0048,222.0048,0,0,0,460.8445,147.2874Zm5.9281,109.6794c-.4384.1358-.8892.2778-1.34.4136a215.3708,215.3708,0,0,1-80.9412,140.8754,12.9088,12.9088,0,0,1,2.3836,4.89,13.1182,13.1182,0,0,1,.3581,4.0508,225.66,225.66,0,0,0,68.53-85.4488,222.0043,222.0043,0,0,0,18.7719-67.4244C471.978,255.2686,469.3784,256.1518,466.7726,256.9668ZM103.6237,71.9839a28.5881,28.5881,0,0,1-3.94-8.1511c-.5682.525-1.1362,1.0559-1.7043,1.587A224.748,224.748,0,0,0,31.1978,268.656q4.0847-.3241,8.7-.6793A215.7431,215.7431,0,0,1,103.6237,71.9839ZM414.903,74.6575q-2.0471-2.1675-4.1434-4.273a54.3219,54.3219,0,0,1-.6051,12.01q5.5574,6.0206,10.6518,12.461a11.6946,11.6946,0,0,1,10.8987-.1913A225.9489,225.9489,0,0,0,414.903,74.6575ZM345.07,24.56A225.369,225.369,0,0,0,199.3045,10.4813a29.6273,29.6273,0,0,1,2.5812,8.2436,216.1829,216.1829,0,0,1,49.7762-5.7736q3.2143,0,6.4406.0926A214.1115,214.1115,0,0,1,360.6067,42.4614a46.7562,46.7562,0,0,1,8.5893-5.0265A224.26,224.26,0,0,0,345.07,24.56Z"/><path class="cls-1" d="M199.6009,285.2481c-.3642.0309-.7348.0679-1.1052.0987-.4817.0433-.9572.0865-1.445.13-.0987.0064-.2038.0186-.3087.0248-.3766.0371-.7534.068-1.13.1051q-1.3616.12-2.76.2407c-.4693.0433-.9385.0865-1.4079.1235a18.802,18.802,0,0,1,5.6811-.8768h.006A19.6441,19.6441,0,0,1,199.6009,285.2481Z"/><path class="cls-1" d="M329.1637,270.1565c-1.4015.21-2.7909.4137-4.1495.6113C326.3728,270.564,327.7622,270.36,329.1637,270.1565Z"/><path class="cls-1" d="M380.36,262.586c-.3767.0617-.7533.1173-1.1238.1729-.1668.0246-.34.0493-.5126.0741.1729-.0309.3458-.0555.5126-.08C379.607,262.6971,379.9836,262.6415,380.36,262.586Z"/><path class="cls-1" d="M466.9393,241.9554v.0062c-.5188.1729-1.0313.352-1.5561.5249C465.9019,242.3136,466.4205,242.1345,466.9393,241.9554Z"/><path class="cls-1" d="M500,221.8437c0,.074-.0062.1482-.0124.2284v.0062c-.0061.0742-.0185.1482-.0309.2223-.0061.0246-.0123.0555-.0185.08s-.0124.0495-.0186.08a.0875.0875,0,0,1-.0123.0371.5073.5073,0,0,1-.0371.13c-.0124.0432-.0308.0864-.0431.1359a3.0438,3.0438,0,0,1-.1358.34c-.0248.0617-.0557.1235-.0866.1851-.0062.0062-.0062.0124-.0123.0186-.0123.0247-.0186.0433-.0309.068-.0308.0616-.0679.13-.105.1975-.0678.105-.13.2162-.2038.3211-.0184.0247-.0307.0556-.0493.08-.0556.0864-.1111.1668-.1791.2532-.0433.0618-.0927.1358-.1482.2038-.0123.0123-.0247.0185-.0309.0309-.0433.0616-.0926.1234-.142.1853-.0433.0554-.0926.1172-.1482.1789-.08.0989-.1729.2038-.2655.3088s-.1914.21-.29.3149c-.1236.13-.2532.2656-.3891.3953-.1358.1358-.2716.2716-.42.4075-.29.2778-.6052.5495-.9386.8336q-.3982.3333-.8337.6854a51.4312,51.4312,0,0,1-5.0325,3.4518c-.2409.1482-.4817.2964-.7286.4446-.2471.142-.4941.29-.7473.4384-.21.1235-.4261.2531-.6421.3706-.6546.3765-1.3277.7533-2.0254,1.1238-.2347.13-.4693.2532-.704.3766-.13.068-.2532.1359-.3828.1977-.284.1543-.5682.3025-.8646.4507-.3457.1791-.7039.3581-1.0621.5372-.3827.1914-.778.3829-1.1731.5743s-.7966.3828-1.1979.5743c-.4077.1914-.8152.3827-1.235.5742l-.1668.0742c-.2655.1234-.5311.2469-.8089.3642-.2717.1236-.5435.2471-.8213.3644a.62.62,0,0,1-.0926.0432c-.426.1915-.8583.3766-1.2906.5619-.2161.0927-.4384.1853-.6546.2779-.4444.1852-.8953.3767-1.3523.5558q-.426.1853-.8706.352c-.4446.1789-.8953.358-1.3461.531-.4384.1729-.8769.34-1.3153.5064-.2964.1172-.599.2283-.9016.34q-.4445.1667-.9077.3333c-.34.1235-.6793.2471-1.0251.3706-.3766.13-.7532.2655-1.13.3951-.5188.1791-1.0374.3582-1.5561.5311-.21.074-.42.142-.63.21s-.42.1359-.63.2037-.42.142-.63.2038c-.3149.1049-.636.2038-.9509.3026-.6792.21-1.3709.426-2.0809.6422-2.89.8768-6.0515,1.7969-9.423,2.7293-.7781.2162-1.5623.4384-2.3651.6546-.1543.0432-.3149.0863-.4754.13-.6977.1915-1.3956.3829-2.1056.5681-1.7476.4693-3.5321.9447-5.3476,1.4141-.9139.2347-1.8278.4693-2.7479.71-.4631.1172-.9262.2345-1.3955.3518q-2.436.6207-4.9276,1.235c-1.6549.4138-3.3282.8213-5.0078,1.2228-.4817.1111-.9633.2284-1.4388.3457l-2.89.6855q-2.51.5927-5.0079,1.1608-1.5375.3521-3.0751.6978l-.5743.13c-.8275.1853-1.6548.37-2.4823.55-.1235.0309-.2531.0556-.3767.0865-.8892.1915-1.7722.389-2.6491.58-.0617.0124-.1235.0247-.1851.0433-.9448.1976-1.8772.4013-2.81.5989-.4631.0926-.9262.1915-1.3893.29q-.6209.13-1.2412.2593c-.8213.173-1.6426.34-2.4514.5064-.4075.08-.809.1668-1.21.247-.1853.0371-.3644.068-.5435.1112q-2.01.3983-3.9457.7781c-.4322.08-.8646.1666-1.2906.2469-.8521.1606-1.692.3211-2.5195.4755-.4136.074-.8211.1482-1.2286.2224-.29.0493-.5744.1049-.8584.1543-.76.1359-1.5067.2655-2.2415.3952q-.5557.0924-1.0929.1852c-.42.0741-.8337.1421-1.2414.21-.8891.1483-1.76.284-2.6056.42-.3211.0431-.6422.0926-.9572.142-.3767.0555-.7533.1111-1.1238.1668-.1668.0247-.34.0493-.5126.08q-.2592.0277-.5186.0741c-.352.0493-.704.105-1.0622.1544-.3643.0493-.7286.1049-1.099.1606q-1.1118.1574-2.2786.3333-1.1673.1668-2.39.352c-.3088.0433-.6114.0927-.9263.1358-.6175.0927-1.2473.1853-1.8834.278-.3211.0493-.6422.0926-.9633.142-2.1489.3148-4.39.6483-6.6874.9879-.92.1359-1.8525.2718-2.7911.4139-3.2851.4876-6.6751.9879-10.09,1.4942-.9755.1421-1.9512.29-2.9331.4384-.4878.0679-.9819.1421-1.47.2162-.9817.142-1.9636.29-2.9391.4384-.4879.074-.9757.142-1.4636.2161-.9757.1421-1.945.2841-2.9145.4322q-1.4543.2131-2.89.4262c-.4816.0678-.9571.142-1.4326.21-.951.142-1.8957.2778-2.8282.42-1.4015.2037-2.7909.4075-4.1495.6113-.9015.1359-1.7969.2655-2.68.3952s-1.7537.2594-2.6059.3829c-.8583.13-1.6981.2531-2.5255.37q-1.8525.278-3.5938.5249c-.7719.1173-1.5252.2222-2.26.3335-.2964.0431-.5928.0864-.8831.13s-.5743.08-.8583.1235c-.8522.1235-1.6734.2408-2.4576.3582-.5188.074-1.025.1482-1.519.216-.5064.0742-.9943.142-1.4636.21-.4384.0618-.8644.1235-1.2719.1791-1.05.1482-1.9823.2779-2.7911.389-12.7019,1.7414-72.994,8.4289-78.7924,8.9351-.0678.0063-.1482.0124-.2346.0186-.0865.0123-.1853.0185-.2964.0309-.0741.0061-.1543.0123-.2347.0185s-.1667.0124-.2594.0247c-.0926.0062-.1913.0124-.29.0248-.1112.0061-.2224.0185-.34.0309-.26.0184-.5435.0431-.8461.074-.636.0556-1.3646.1235-2.1859.1976-.1359.0124-.2779.0247-.42.0371s-.284.0246-.4322.0369c-.1791.0124-.3582.0309-.5435.05-.37.0309-.76.068-1.1608.1049l-.2038.0186c-.2284.0185-.4693.037-.71.0618-.0247,0-.0556.0062-.0865.0062-.2222.0185-.4446.0369-.673.0616-.0618.0062-.13.0124-.1914.0186-.2286.0185-.4632.037-.6977.0618-.42.0369-.8461.074-1.2845.1111-.1173.0123-.2347.0247-.352.0309-.1606.0123-.3211.0309-.4817.0432-.1851.0184-.3765.037-.568.0493-.0556.0062-.1113.0124-.1729.0186-.5.0432-1.0066.0865-1.5314.1358-.4015.0371-.809.0742-1.2288.1111-.389.0309-.7842.068-1.1856.1051q-.8337.074-1.6857.1482c-.278.0247-.55.0494-.8337.0742-.2778.0245-.562.0493-.846.074-.5681.0494-1.1423.0987-1.7229.1544h-.0123a19.6441,19.6441,0,0,0-2.47-.1544h-.006a18.802,18.802,0,0,0-5.6811.8768c-.006.0062-.006.0062-.0124.0062-.5186.0432-1.0435.0927-1.5683.1358-.5.0433-1.0066.0927-1.5191.1358s-1.0188.0927-1.5374.136c-.26.0247-.5188.0493-.7782.0678-.4261.0371-.8583.0742-1.2905.1113q-1.0375.1017-2.0934.1851c-1.4017.1236-2.8095.2471-4.2359.3706-.3521.0371-.71.0678-1.0683.0925-.71.068-1.4264.13-2.1427.1915l-.4262.0371q-1.3983.13-2.7971.2407c-.7164.068-1.4388.13-2.1552.1915-2.5131.216-5.014.4384-7.49.6484-.6052.0555-1.2041.1049-1.8031.1544-.4693.0431-.9324.08-1.4017.1235-.6855.0556-1.3708.1172-2.05.1729-.3459.0309-.6915.0618-1.0374.0864q-3.1029.2685-6.07.5187c-.494.0433-.988.0864-1.47.1235-.2471.0247-.4878.0432-.7287.0618-.247.0246-.4815.0432-.7224.0616-.315.0248-.6361.0557-.951.08-.599.0493-1.1979.0987-1.7907.1482-.0309,0-.0556.0062-.0865.0062q-.7965.0648-1.5745.13c-.3891.0309-.7719.068-1.1548.0988-.5928.0494-1.1732.0927-1.7536.142-.5744.0494-1.1424.0927-1.6981.142-1.5315.1236-2.9949.2409-4.3719.352-.8768.068-1.7167.1358-2.5194.1976-.457.0371-.9077.0679-1.34.105-.4324.0309-.8585.0618-1.2659.0927-.5682.0431-1.1054.0864-1.6241.1234-.037,0-.08.0062-.1173.0062-.3642.0248-.71.0493-1.05.074-.37.0248-.7286.0495-1.0621.0742-.1853.0124-.3706.0247-.5433.0371-.4077.0247-.7782.0493-1.1177.0678-.2039.0124-.4015.0248-.58.0371-.3151.0124-.5868.0248-.8214.0371-.1543.0062-.3149.0124-.4878.0184-.34.0124-.704.0309-1.0992.0433h-.0061q-.593.0278-1.26.0556c-.4445.0186-.92.0433-1.414.0618-.9879.0431-2.0686.0926-3.2234.1481h-.0061q-.602.0281-1.2227.0556c-.1851.0123-.3765.0185-.568.0247-.4322.0247-.8708.0433-1.3215.0618-.4446.0186-.9015.0431-1.3647.0679-.2284.0123-.4569.0247-.6853.0309-.4569.0247-.9262.0432-1.3956.0678-.352.0187-.71.0309-1.0682.0495-1.0744.0494-2.1736.0989-3.2975.1543-.7224.0309-1.4572.068-2.1983.105a.2475.2475,0,0,1-.0678.0063c-.6979.0369-1.4018.0678-2.1118.0987l-1.18.0557c-1.025.0493-2.0624.0987-3.1.148-.0987.0063-.1975.0124-.2964.0124-.6175.0309-1.2288.0556-1.8463.0865-.1358.0062-.2778.0124-.42.0185q-.5652.0279-1.13.0557c-.1914.0122-.3766.0184-.5618.0245-.1853.0124-.3768.0186-.5621.0248-.3766.0247-.7471.0371-1.1175.0556-.1853.0062-.3706.0185-.5559.0247-.1852.0124-.37.0184-.5556.0247-.1853.0123-.3706.0184-.55.0246-.37.0186-.7348.0371-1.0992.0495l-1.0742.0556c-.3644.0184-.7226.0369-1.0807.0493-.5311.0185-1.0622.0433-1.5808.068-.1729.0123-.3458.0185-.5187.0247-.1729.0124-.3459.0184-.5126.0247-.1666.0124-.3333.0184-.5.0246h-.0123c-.34.0185-.6731.0309-1.0066.0433-.3273.0185-.6608.0371-.9819.0432-.3211.0186-.6359.0309-.9508.0433-.0062,0-.0062.006-.0124,0-.16.006-.3149.0184-.4693.0184-.3087.0185-.6175.0309-.9138.0433-.1606.0061-.315.0123-.4693.0185-.1482.0062-.2964.0185-.4446.0185-.1484.0124-.3027.0186-.4448.0186-.142.0124-.284.0124-.42.0185-.29.0122-.5742.0246-.8583.037-.2038.0061-.4076.0185-.6051.0247-.2038.0124-.4015.0185-.5928.0247h-.0123c-.2533.0124-.5064.0186-.7535.0309-.13.0062-.2593.0124-.3828.0124-.3582.0123-.71.0247-1.0435.0432-.1174,0-.2347.0061-.3458.0124q-.3242.009-.63.0184c-.21.0062-.4137.0124-.6113.0247-.1915.0062-.3766.0124-.55.0186-.0925,0-.1913.0062-.2777.0062-.0865.0061-.173.0061-.2532.0061-.1668.0062-.3273.0124-.4755.0124-.08.0062-.1544.0062-.2222.0062q-.75.0184-1.2043.0185H65.5a.0194.0194,0,0,1-.0061.0124c-.0062.0122-.0186.0369-.031.0678-.0245.0495-.0616.1359-.1111.2409a1.7009,1.7009,0,0,0-.08.179,2.3906,2.3906,0,0,0-.105.2162c-.0308.0679-.0617.1358-.0988.2161-.0309.0617-.0616.13-.0925.1975q-.0743.1484-.1482.315c-.0495.1112-.1113.2285-.1668.352l-.0185.0371c-.0618.13-.1235.2593-.1977.4013-.1049.2347-.2285.4816-.3582.7471-.0493.1051-.1049.2162-.16.3273-.0494.1111-.105.2286-.1667.3458-.0556.1173-.1113.2348-.1729.3582-.0556.1173-.1174.2408-.1791.3643-.0988.1976-.1976.4014-.3026.6113-.1791.3582-.3643.7287-.5557,1.1177-.1854.37-.3767.7471-.5743,1.1362-.08.1544-.1606.3088-.2408.4693-.1544.3026-.3087.6052-.4755.9139-.3953.7719-.8151,1.5746-1.2535,2.39-.1729.3273-.352.6546-.5311.9819-.0864.1606-.179.3273-.2717.494-.1729.315-.3458.6361-.5311.9572-.37.673-.7532,1.3523-1.1423,2.0252-.1605.2842-.3273.5682-.494.8523-.5062.8582-1.0188,1.71-1.5376,2.5316-.1914.3087-.3891.6175-.5865.92-.0926.1482-.1915.3026-.2964.4508-.08.1358-.1729.2716-.2593.4013-.0124.0123-.0187.0309-.0309.0432-.1853.2841-.3768.5619-.5621.8336-.3025.4323-.5989.8522-.8953,1.2473-.29.3953-.5742.7657-.8582,1.1239-.3273.4075-.6608.809-1,1.21-.2531.2964-.5063.5866-.7656.8769a1.1263,1.1263,0,0,0-.0864.0926c-.3211.352-.6484.7039-.9819,1.0435-.1667.1729-.3273.3458-.5.5126-.1667.1729-.3335.34-.5062.5062-.3521.3458-.71.6793-1.0683,1.0066-.1791.1667-.3582.3273-.5435.4879-.2531.2284-.5064.4507-.7657.6667-.5187.4386-1.0373.8646-1.5746,1.2721-.2655.2038-.5311.4015-.8028.5991-.1914.1481-.3889.29-.5866.4261-.5247.37-1.05.7224-1.587,1.062-.1975.13-.4013.2532-.6051.3766-.2469.1482-.4939.2966-.741.4386-.21.1234-.42.2407-.63.358-.4693.26-.9448.5064-1.4263.7349-.1668.08-.3335.1605-.5.2346-.3953.1853-.79.3643-1.1919.525-.2469.1049-.5.2036-.7471.2963-.2532.0926-.5063.1852-.7534.2717-.2531.0864-.5.1667-.7533.2469-.2469.08-.5.1482-.7471.2162-.5.1359-.9943.247-1.4883.3459-.4384.0863-.883.16-1.3152.216-.0987.0124-.1976.0247-.2964.0309-.1976.0247-.3889.0433-.5866.0556-.1482.0122-.2964.0246-.4445.0309-.1237.0122-.2533.0184-.3706.0246-.1606.0124-.3149.0185-.4631.0247-.1359.0062-.2593.0124-.389.0186-.2532.0123-.5.0185-.7349.0247-.1173.0062-.2346.0062-.3457.0062-.4138.0062-.79,0-1.1424-.0124a3.5257,3.5257,0,0,1-.3644-.0185q-.3612-.0186-.6668-.0557-.1577-.0183-.2964-.0369c-.0927-.0124-.1853-.0309-.278-.0433a5.4968,5.4968,0,0,1-.6977-.1729,2.9328,2.9328,0,0,1-.5433-.2222c-.0494-.0247-.0989-.0556-.1483-.0865-.0431-.0309-.0864-.0557-.13-.0926a1.3512,1.3512,0,0,1-.1111-.0865c-.0433-.0371-.08-.074-.1173-.1111a1.7235,1.7235,0,0,1-.3211-.4508,1.482,1.482,0,0,1-.0927-.2038v-.0062a2.3723,2.3723,0,0,1-.1049-.3149c-.05-.1913-.0866-.3828-.1235-.5866l-.0556-.3149c-.0124-.0557-.0186-.105-.0308-.1606-.3829-2.0563,4.81-6.5455,9.2377-13.7947,4.4274-7.2556,5.1191-14.3815,3.1244-21.3592,0,0-.074,0-.2222.0061-.0742,0-.16.0062-.2655.0062-.105.0062-.2285.0062-.3643.0124s-.29.0062-.457.0062c-.1667.006-.3458.0123-.5373.0123-.3889.0061-.8335.0184-1.3275.0246-.9695.0185-2.1242.0371-3.4024.0494-1.2845.0186-2.6924.0248-4.1619.0248-.6423,0-1.2907,0-1.9451-.0062-.5,0-1-.0062-1.5006-.0124-.3828,0-.7595-.0062-1.1361-.0123-1.5808-.0248-3.1617-.0555-4.6868-.1111-.7226-.0248-1.4265-.0557-2.118-.0928h-.0371c-.3273-.0184-.6422-.0369-.9571-.0554q-.9819-.0557-1.89-.13c-.3026-.0247-.599-.0494-.883-.0742-.29-.0309-.568-.0554-.84-.0863-.0865-.0062-.1731-.0186-.2533-.0309-.1914-.0186-.3829-.0433-.5618-.068-.0927-.0124-.1915-.0246-.2779-.037-.1607-.0247-.3087-.0432-.4571-.068-.0184,0-.0369-.0061-.0493-.0061-.2718-.0433-.5311-.0866-.7718-.1359a7.4207,7.4207,0,0,1-1.7909-.5125c-4.2853-2.0625-4.7916-6.5023,4.5078-7.8607.1174-.0186.2409-.0371.37-.0493.1111-.0187.2284-.0309.3521-.05.0183,0,.0369-.0062.0554-.0062.142-.0185.29-.0371.4508-.0556.4631-.0555.988-.1173,1.5623-.1791.1914-.0247.3891-.0431.5927-.0617.4077-.0432.8337-.0865,1.2845-.1358.216-.0185.4322-.0433.6607-.0618.7286-.0742,1.5129-.1482,2.34-.2222.2469-.0247.5-.0495.7533-.068.0864-.0062.1729-.0185.2593-.0247.5187-.0433,1.05-.0926,1.5994-.142.7286-.068,1.4881-.13,2.2661-.1977.389-.0371.7843-.0678,1.1856-.1049.8646-.068,1.7537-.142,2.6614-.2224.34-.0245.6793-.0554,1.0188-.08.8893-.0741,1.8032-.1482,2.7294-.2223.9016-.0741,1.8216-.1482,2.7479-.2222q1.89-.1483,3.8531-.3026c.3828-.0309.7657-.0618,1.1547-.0927.4878-.0371.9695-.074,1.4635-.1111.4878-.0371.9819-.08,1.4759-.1173s.9941-.08,1.4943-.1175,1-.074,1.5-.1172c.5682-.0432,1.13-.0864,1.6981-.13.1852-.0124.3767-.0309.5618-.0431.4941-.0371.9881-.0742,1.4821-.1175h.0309c.5063-.0369,1.0126-.074,1.519-.1172.0248,0,.0555-.0062.08-.0062.4817-.0371.9634-.0742,1.4388-.1111.34-.0248.6854-.0495,1.025-.08.1668-.0123.3335-.0247.4941-.0371.494-.0369.988-.074,1.4882-.1173h.0308c.4507-.037.8955-.0678,1.3462-.1049.4137-.0309.8212-.0618,1.235-.0925l1.1856-.0928c1.5-.1172,2.9825-.2284,4.4459-.3458.2407-.0185.4878-.0369.7286-.0555.37-.0309.7411-.0556,1.1115-.0865.3582-.0309.71-.0555,1.0559-.0864q1.7876-.1389,3.52-.2778c.6051-.0495,1.21-.0989,1.8032-.1422q.7967-.0646,1.5746-.13c.34-.0248.673-.0555,1.0065-.08.1049-.0062.2038-.0186.3025-.0248.4323-.0371.8583-.0741,1.2783-.1049.2531-.0185.5062-.0433.7533-.0618.3149-.0247.63-.0495.9386-.08q.6946-.0557,1.3708-.1113c.1977-.0184.3953-.0369.5866-.0493.1915-.0185.383-.037.5743-.0494.3458-.0309.6916-.0617,1.0251-.0926.0926-.0062.1853-.0123.2717-.0185.2532-.0247.5064-.0433.7533-.068q1.1949-.1017,2.2787-.2037c.3087-.0309.6111-.0556.9075-.08.1544-.0186.3088-.0309.4631-.0433.2966-.0308.5868-.0617.8708-.0864.1976-.0185.3889-.0371.58-.0556.2224-.0247.4324-.0431.6422-.0617.0186,0,.0309-.0061.0495-.0061.2655-.031.5248-.0557.7718-.08,15.8635-1.6487,86.4061-9.2006,97.6321-10.7691,11.22-1.5746,83.9362-9.8243,96.0637-11.35s66.8686-9.5341,80.3484-11.0593c13.4738-1.5314,67.3441-10.6394,83.1891-13.7886.4939-.0989.9941-.1976,1.4943-.29.494-.0988.994-.1975,1.5-.29.6052-.1173,1.2165-.2346,1.834-.3457q2.13-.3893,4.2917-.7782c1.0312-.1851,2.0623-.3642,3.1-.5433.5186-.0926,1.0374-.1853,1.5561-.2717q2.8527-.5,5.6808-.988c.6793-.1173,1.3586-.2408,2.0379-.3582,1.3583-.2408,2.7169-.4815,4.0507-.7286,1.6548-.3026,3.2851-.6114,4.8783-.9263.9262-.1791,1.8339-.358,2.7292-.5433.3459-.0742.6917-.142,1.0374-.2162.1544-.0309.3026-.0616.4569-.0987,1.3709-.29,2.7109-.5868,3.9952-.9016q1.343-.315,2.6122-.6484.963-.2594,1.8894-.5187c.13-.0371.2594-.074.3829-.1111.321-.0927.636-.1853.9508-.2778.0556-.0186.1174-.0371.1791-.0557.3706-.1173.7348-.2284,1.093-.3458,1.2968-.42,2.4452-.7781,3.47-1.0806.29-.0864.5742-.1668.8459-.247s.5373-.1543.7842-.2223c.2224-.0617.4322-.1173.636-.1728.0557-.0124.1113-.0309.1668-.0433.1605-.0432.3211-.0865.4693-.1174.0247-.006.0432-.0124.068-.0184a.9747.9747,0,0,1,.13-.0309c.1915-.0494.3766-.0927.5557-.1358.0989-.0248.1976-.05.29-.068.29-.068.5558-.1235.8028-.1668.1667-.0309.3273-.0616.4755-.0863a.9571.9571,0,0,1,.13-.0248.4832.4832,0,0,1,.0926-.0123c.0741-.0124.142-.0247.21-.0309.1358-.0186.2655-.037.3891-.0493a.9232.9232,0,0,1,.1791-.0186,6.0941,6.0941,0,0,1,.6359-.0371,3.03,3.03,0,0,1,.7842.0864c.0124,0,.0185.0062.0309.0062.0433.0124.0864.0247.1235.0371a.2244.2244,0,0,1,.068.0247.3106.3106,0,0,1,.08.0309c.037.0184.068.0308.0989.0493a1.3224,1.3224,0,0,1,.1789.1235.7938.7938,0,0,1,.1051.0989.4341.4341,0,0,1,.068.08,1.4705,1.4705,0,0,1,.142.1976,2.35,2.35,0,0,1,.1173.21v.0062c.0431.074.08.1482.1173.2222A1.8727,1.8727,0,0,1,500,221.8437Z"/><path class="cls-1" d="M480.45,224.326c-1.2843.3148-2.6243.6114-3.9952.9016C477.8257,224.9312,479.16,224.6348,480.45,224.326Z"/><path class="cls-1" d="M325.0142,270.7678c1.3586-.1976,2.748-.4014,4.1495-.6113C327.7622,270.36,326.3728,270.564,325.0142,270.7678Zm54.2223-8.015c-.1668.0247-.34.0493-.5126.08.1729-.0248.3458-.05.5126-.0741.3705-.0556.7471-.1112,1.1238-.1729C379.9836,262.6415,379.607,262.6971,379.2365,262.7528Zm97.2183-37.5252c1.3709-.29,2.7109-.5868,3.9952-.9016C479.16,224.6348,477.8257,224.9312,476.4548,225.2276Zm-11.0716,17.2589c.5248-.1729,1.0373-.352,1.5561-.5249v-.0062C466.4205,242.1345,465.9019,242.3136,465.3832,242.4865ZM197.1249,296.2086a6.9039,6.9039,0,0,0-.877.0494,8.5766,8.5766,0,0,1,1.8649.0123A7.6507,7.6507,0,0,0,197.1249,296.2086Zm-1.7167.1915c.2779-.0619.5557-.1051.84-.1421A6.4373,6.4373,0,0,0,195.4082,296.4Z"/><path class="cls-2" d="M286.0625,407.3886c-.0245.0555-.0493.1173-.074.1791a1.5611,1.5611,0,0,1,.08-.1791Z"/><path class="cls-2" d="M345.9164,396.3477a.6236.6236,0,0,0-.4569.1977c-.068.0678-.142.142-.2162.21-.0925.0925-.1853.1913-.284.29-.1667.1667-.3458.3458-.5311.5186-.3272.3211-.6792.6422-1.0621.988a1.566,1.566,0,0,1-.1482.142,49.2676,49.2676,0,0,1-5.2549,4.4892,26.0807,26.0807,0,0,1-2.5811,1.5808,17.9011,17.9011,0,0,1-8.2743,1.834,20.9585,20.9585,0,0,1-6.2677-.9324.654.654,0,0,1-.0987-.0371c-.2593-.08-.525-.1729-.7719-.2593-.2346-.0866-.4569-.1729-.6855-.2593-.6668-.2471-1.3152-.5126-1.9327-.79-.3025-.1359-.6051-.2657-.8893-.4077-.2964-.13-.58-.2716-.8644-.4136-.6606-.3212-1.2781-.6546-1.84-.97-.2779-.1482-.531-.2963-.7781-.4384-.1729-.0987-.3457-.1914-.5064-.29-1.377-.8275-2.3032-1.47-2.6-1.6733-.08-.0557-.1173-.0866-.1173-.0866h.0062a1.0941,1.0941,0,0,0,.0556-.1482,3.7048,3.7048,0,0,0,.1728-.42c.1544-.3768.37-.9263.6484-1.6241.1358-.3519.2842-.7348.4509-1.1547.0493-.142.1049-.2778.16-.4322.1667-.426.3335-.8831.5187-1.3708.1359-.3644.2779-.7533.4261-1.1486.1482-.3889.29-.7966.4446-1.2288a156.6239,156.6239,0,0,0,4.9894-16.66c2.822-12.1894-.0618-33.11-15.5856-36.84a12.0653,12.0653,0,0,0-2.7787-.3211c-4.2176,0-8.62,2.0809-12.7821,5.07-.4632.3335-.92.673-1.3709,1.025q-1.0283.7966-2.0192,1.6488c-.4446.3766-.883.76-1.3153,1.1546-1.0806.9757-2.13,1.9883-3.143,3.0135-.4014.4075-.7966.8211-1.1857,1.2288a110.3748,110.3748,0,0,0-8.8671,10.7073c-.1791.2532-.352.4878-.5064.704-.7719,1.0806-1.1979,1.7227-1.1979,1.7227.3026-6.5639.0555-8.9659-7.9656-20.6181-.1731-.247-.34-.494-.5126-.7286-.5064-.71-1.0066-1.3708-1.5006-1.9883-.16-.2039-.3272-.4015-.4879-.593-.3271-.3889-.6482-.7531-.9632-1.099a24.87,24.87,0,0,0-1.871-1.8463c-.3087-.2718-.6113-.5187-.9077-.76a12.2177,12.2177,0,0,0-7.7681-2.9268,19.1663,19.1663,0,0,0-5.15.8706,4.5949,4.5949,0,0,0-2.2105,1.8092c-.0864.1113-.1667.2224-.2531.34-.1668.2407-.3275.494-.5.7719-.1606.2654-.3273.5495-.4941.8582q-.25.454-.5.9633c-.1605.3335-.3334.6917-.494,1.05-.16.3644-.3271.7473-.4878,1.1425-3.569,8.7066-6.7245,24.2861-7.28,39.6246-.1051,2.9887-.1914,6.002-.2594,8.9907-.0248,1.1856-.0493,2.3775-.0741,3.5568-.0494,2.9146-.0863,5.7613-.1174,8.5029,0,.8274-.006,1.6425-.0184,2.4515-.0185,3.2171-.0309,6.2489-.0185,8.9722,0,.3335,0,.6793.0062,1.0064-.0062,1.4141.0061,2.7418.0061,3.9583.0062.21.0062.4137.0124.6237,0,.0061,0,.0061-.0062.0185a.0086.0086,0,0,1,0,.0124,40.2652,40.2652,0,0,1-3.1431,7.8854c-1.1423,2.4945-5.2425,9.9168-6.9592,12.6586-.13.21-.2716.4384-.42.673a32.2128,32.2128,0,0,1-2.3156,3.2728c-.2224.2716-.457.5371-.6977.7966a9.4268,9.4268,0,0,1-5.44,3.2109,6.47,6.47,0,0,1-.988.0742c-.13,0-.2593-.0064-.389-.0124a2.2519,2.2519,0,0,1-1.42-.636c-1.4944-1.3894-2.3279-4.8969-2.581-9.4539,0-.0433-.0064-.08-.0064-.1235a91.9115,91.9115,0,0,1,2.1243-22.8349c3.1924-14.5792,12.708-82.1887,13.7886-93.5445.846-8.88-4.2112-18.3458-12.498-22.9646a22.6379,22.6379,0,0,0-7.6632-2.6182c-.1111-.0185-.2222-.0309-.34-.0432a8.5766,8.5766,0,0,0-1.8649-.0123c-.284.037-.5618.08-.84.1421a1.2177,1.2177,0,0,0-.2038.0492c-.1915.05-.3828.1051-.5681.1668H194.63c-.1853.068-.3706.136-.55.21a9.3791,9.3791,0,0,0-3.2233,2.3836,12.4453,12.4453,0,0,0-.9324,1.1546,28.7942,28.7942,0,0,0-4.0076,8.997q-.1387.4816-.2593.9633c-.0927.34-.1791.6791-.2594,1.0126-.0864.3459-.1666.6915-.2469,1.0374-.531,2.3527-.9386,4.7424-1.2536,7.0086q-.0832.5742-.1482,1.13c-.4136,3.2418-.6422,6.1626-.7966,8.2558-.568,7.9349-5.15,58.7855-7.2308,77.9587-.3271,3.0072-.599,5.2426-.7781,6.4034-.5063,3.2975-3.76,8.4289-7.947,13.5232-1.9267,2.3342-4.0447,4.6621-6.1812,6.7986-5.329,5.3166-10.7876,9.46-13.696,9.6454-.0865,0-.1667.006-.2409.006a2.8758,2.8758,0,0,1-1.92-.673,1.6811,1.6811,0,0,1-.1915-.1729c-2.4514-2.4143-2.1859-9.633-1.2782-17.42v-.0062c.3644-3.1.8275-6.2922,1.2659-9.3.0431-.3211.0925-.6422.1358-.9571,1.3956-9.6329,5.1684-39.0566,8.1695-61.2617.9262-6.811,1.7721-12.9365,2.4638-17.611,2.1426-14.5049.8707-26.5152-4.5942-31.9491a10.7284,10.7284,0,0,0-7.873-3.143h-.0062c-4.0632,0-7.0025.9076-9.1884,2.5131-.1358.0989-.2655.1976-.3951.3026a11.0816,11.0816,0,0,0-1.4018,1.34c-.16.1852-.3149.37-.4693.5619a13.7517,13.7517,0,0,0-1.0744,1.587c-.1482.2593-.2964.5248-.4384.7966s-.2778.5495-.4075.8335c-.1174.2593-.2347.525-.34.79a2.05,2.05,0,0,0-.0987.247c-.08.1914-.1544.3829-.2285.58a41.05,41.05,0,0,0-1.2907,4.2484c-.074.2964-.1482.599-.216.9077-.0865.352-.1729.7164-.2533,1.0806-.2531,1.1363-.5,2.3157-.7471,3.52-.0742.3335-.142.6732-.21,1.0128-.247,1.167-.494,2.3649-.7658,3.5753-2.896,12.9365-7.2308,43.7556-7.731,49.14-.2717,2.8343-.5557,12.5228-.815,22.9029-.0926,3.637-.1791,7.3543-.2657,10.8926-.13,5.5451-.2469,10.6518-.3456,14.2951-.3459,12.6092.9077,28.9357,6.9282,37.9821a15.2784,15.2784,0,0,0,2.2291,2.68c.1667.1606.3458.315.5188.4632.142.1174.2778.2223.42.3272a9.39,9.39,0,0,0,.9324.6237c.1853.1113.3706.21.562.3026.1853.0927.3766.1791.5681.2594.142.0617.29.1173.4384.1668.142.0555.29.0987.4384.142a9.53,9.53,0,0,0,2.76.3889,18.9442,18.9442,0,0,0,7.7867-2.0686c.3458-.16.7038-.3334,1.062-.5124a79.0828,79.0828,0,0,0,8.0955-4.8227c6.6257-4.4028,13.1463-14.0728,17.654-21.68,1.797-3.0195,3.2728-5.7179,4.31-7.6322.8026-1.4819,1.3461-2.4885,1.5745-2.8158.1173-.1667.2223-.3273.3211-.4693.068-.0988.13-.1853.1853-.2717.0864-.1234.1605-.2347.2284-.3273.0371-.0494.068-.0925.0989-.13.13-.1667.2284-.2533.3087-.2533a.1277.1277,0,0,1,.0988.0556.38.38,0,0,1,.0618.1112,1.1482,1.1482,0,0,1,.0863.2594c.0186.074.0371.1544.0557.2469s.0369.1977.0556.3088a1.5416,1.5416,0,0,1,.0308.1791c.0247.1235.0432.2593.068.4015.0123.074.0247.148.0369.2283a28.5782,28.5782,0,0,1,.1174,3.7914c-.0123,2.68-.1051,6.1873-.0494,9.2748a37.3258,37.3258,0,0,0,.3582,5.1376c.1111.636.2531,1.4573.4755,2.402.0369.1607.08.3334.1234.5064.1668.6607.3706,1.377.6237,2.1243q.1206.3517.2593.7224c.2038.5309.4262,1.0682.6917,1.6177.0987.21.2036.4262.3087.6361.2655.5064.5495,1.0128.8706,1.519.1606.2471.3273.5.5.7471.0926.1237.1791.2471.2717.3706.1853.2469.3767.494.5744.7348.2036.2409.4136.4755.63.7164.1111.1173.2223.2284.34.3458,3.0751,3.1244,7.8669,5.5388,15.4065,5.5388q.7689,0,1.5746-.037c10.6087-.4445,16.95-5.8909,21.0567-11.8189a44.76,44.76,0,0,0,3.0195-5.082c.5373-1.0435,1.025-2.0623,1.47-3.0256.883-1.9205,1.5992-3.637,2.2538-4.9462a23.4975,23.4975,0,0,0,2.1118-5.718l.1667,4.6559s.0618,2.5749-.0124,6.5639c-.0554,2.4454-.1543,5.4278-.358,8.67-.2409,3.9088-.63,8.2-1.2412,12.3932-1.519,10.3-4.5633,26.052,1.5932,32.3443.1666.1667.3333.3273.5124.4816.1729.1544.3582.2964.5495.4384.1915.1359.3891.2719.593.3953a6.9027,6.9027,0,0,0,.636.3457,3.9509,3.9509,0,0,0,.3642.1731,9.0672,9.0672,0,0,0,.9448.358c.0371.0124.08.0247.1173.0371a9.58,9.58,0,0,0,1.0066.2531c.0431.0062.0926.0186.142.0247.3582.068.7286.1235,1.1115.1606.0309,0,.0555.0062.0864.0062.4076.0371.8275.0556,1.2659.0556.2469,0,.494-.0062.7471-.0124,12.3067-.55,17.6974-26.8241,19.5993-46.1084.3088-3.1182.525-6.0575.667-8.67.13-2.4267.1914-4.5755.2038-6.3353.08-15.4127,2.7911-28.7692,5.8415-44.2869,3.0442-15.5176,22.804-42.4033,33.8139-43.0208.0741-.0062.1421-.0062.2161-.0062,10.5778,0-4.909,44.7005-4.909,44.7005a16.5427,16.5427,0,0,0-2.754-.2161q-.5926,0-1.2412.037c-.2162.0124-.4322.031-.6608.0493-.4445.0371-.9077.0928-1.3831.1607-.2346.037-.4817.08-.7225.1235-.7347.13-1.4942.3026-2.2724.5186-.2593.0742-.5248.1482-.79.2347-.2656.08-.5311.173-.7966.2655-.2347.08-.4693.1668-.704.2531-.1668.068-.3459.136-.5186.21-.4077.1668-.8213.3459-1.235.5435q-.417.1945-.8337.4075c-.42.216-.84.4446-1.26.6915-.2779.1606-.5619.3335-.84.5126-.34.21-.6793.4384-1.019.6731q-.3333.2316-.6668.4817c-.2162.16-.4384.3271-.6545.5a32.9209,32.9209,0,0,0-7.3605,8.3053c-.2471.3891-.4879.7906-.7288,1.1981q-.5373.917-1.0559,1.9081c-8.5584,16.4685-5.8847,21.9211,1.6487,27.6389a9.9636,9.9636,0,0,0,1.8588,1.1177c.2531.1113.5124.2162.7719.3088a9.2235,9.2235,0,0,0,1.2039.3458,11.6749,11.6749,0,0,0,2.5071.2655,13.8477,13.8477,0,0,0,1.587-.0926c.5311-.0618,1.0682-.1482,1.6055-.2594h.0062a24.7051,24.7051,0,0,0,3.2479-.9386c.4323-.16.8646-.3272,1.2906-.5063h.0062c.426-.1791.8522-.37,1.2782-.562a47.6088,47.6088,0,0,0,4.31-2.2847c.3891-.2346.7781-.4693,1.1547-.6977,1.7044-1.0559,3.26-2.118,4.5881-3.0318,6.2984-4.3472,15.3817-19.8773,15.3817-19.8773.4508.1729.8954.3273,1.3338.4755.6051.21,1.198.3951,1.7722.5742a41.6512,41.6512,0,0,0,6.5085,1.4574c.71.0925,1.4017.1605,2.0747.21.6916.0431,1.3646.0678,2.0192.0678.5125,0,1.0189-.0185,1.5066-.0431a27.6955,27.6955,0,0,0,7.6756-1.5685,29.4219,29.4219,0,0,0,8.256-4.4461c.0246-.0184.0555-.0431.08-.0616a34.3879,34.3879,0,0,0,7.5519-9.17c.5681-1.025,1.0992-2.0192,1.5561-2.9455.105-.2036.2039-.4013.2964-.5989A.653.653,0,0,0,345.9164,396.3477Zm-59.5451,10.411a2.2025,2.2025,0,0,0-.142.2717c-.0555.1049-.1049.2286-.1544.3458l-.006.0124a1.5611,1.5611,0,0,0-.08.1791c-.0247.0617-.0494.1235-.08.1975-1.6918,4.0817-5.4339,16.1228-8.1138,18.0124a1.2156,1.2156,0,0,1-.3273.1975,9.0933,9.0933,0,0,1-3.3654.7473,8.5383,8.5383,0,0,1-4.0075-1.161c-2.5565-1.3213-2.4082-7.5519-1.1053-10.4479a15.273,15.273,0,0,1,10.3616-9.0526c.7842-.2469,1.519-.4631,2.1983-.636q.6112-.1575,1.167-.2779a12.2772,12.2772,0,0,1,2.4452-.3273C286.606,404.82,287.1248,405.4,286.3713,406.7587Z"/><path class="cls-2" d="M205.2881,447.8531a2.2519,2.2519,0,0,0,1.42.636c.13.006.2593.0124.389.0124a6.47,6.47,0,0,0,.988-.0742C207.1468,448.2482,206.2206,448.0567,205.2881,447.8531Zm80.7744-40.4645c-.0245.0555-.0493.1173-.074.1791a1.5611,1.5611,0,0,1,.08-.1791Zm0,0c-.0245.0555-.0493.1173-.074.1791a1.5611,1.5611,0,0,1,.08-.1791Zm0,0c-.0245.0555-.0493.1173-.074.1791a1.5611,1.5611,0,0,1,.08-.1791Zm0,0c-.0245.0555-.0493.1173-.074.1791a1.5611,1.5611,0,0,1,.08-.1791Zm-80.7744,40.4645a2.2519,2.2519,0,0,0,1.42.636c.13.006.2593.0124.389.0124a6.47,6.47,0,0,0,.988-.0742C207.1468,448.2482,206.2206,448.0567,205.2881,447.8531Zm80.7744-40.4645c-.0245.0555-.0493.1173-.074.1791a1.5611,1.5611,0,0,1,.08-.1791Zm0,0c-.0245.0555-.0493.1173-.074.1791a1.5611,1.5611,0,0,1,.08-.1791Zm-80.7744,40.4645a2.2519,2.2519,0,0,0,1.42.636c.13.006.2593.0124.389.0124a6.47,6.47,0,0,0,.988-.0742C207.1468,448.2482,206.2206,448.0567,205.2881,447.8531Zm80.7744-40.4645c-.0245.0555-.0493.1173-.074.1791a1.5611,1.5611,0,0,1,.08-.1791Zm0,0c-.0245.0555-.0493.1173-.074.1791a1.5611,1.5611,0,0,1,.08-.1791Zm-80.7744,40.4645a2.2519,2.2519,0,0,0,1.42.636c.13.006.2593.0124.389.0124a6.47,6.47,0,0,0,.988-.0742C207.1468,448.2482,206.2206,448.0567,205.2881,447.8531Zm80.7744-40.4645c-.0245.0555-.0493.1173-.074.1791a1.5611,1.5611,0,0,1,.08-.1791Zm0,0c-.0245.0555-.0493.1173-.074.1791a1.5611,1.5611,0,0,1,.08-.1791Zm-80.7744,40.4645a2.2519,2.2519,0,0,0,1.42.636c.13.006.2593.0124.389.0124a6.47,6.47,0,0,0,.988-.0742C207.1468,448.2482,206.2206,448.0567,205.2881,447.8531Zm80.7744-40.4645c-.0245.0555-.0493.1173-.074.1791a1.5611,1.5611,0,0,1,.08-.1791Zm0,0c-.0245.0555-.0493.1173-.074.1791a1.5611,1.5611,0,0,1,.08-.1791Zm-80.7744,40.4645a2.2519,2.2519,0,0,0,1.42.636c.13.006.2593.0124.389.0124a6.47,6.47,0,0,0,.988-.0742C207.1468,448.2482,206.2206,448.0567,205.2881,447.8531Zm80.7744-40.4645c-.0245.0555-.0493.1173-.074.1791a1.5611,1.5611,0,0,1,.08-.1791Zm0,0c-.0245.0555-.0493.1173-.074.1791a1.5611,1.5611,0,0,1,.08-.1791Zm-80.7744,40.4645a2.2519,2.2519,0,0,0,1.42.636c.13.006.2593.0124.389.0124a6.47,6.47,0,0,0,.988-.0742C207.1468,448.2482,206.2206,448.0567,205.2881,447.8531Zm80.7744-40.4645c-.0245.0555-.0493.1173-.074.1791a1.5611,1.5611,0,0,1,.08-.1791Zm0,0c-.0245.0555-.0493.1173-.074.1791a1.5611,1.5611,0,0,1,.08-.1791Zm0,0c-.0245.0555-.0493.1173-.074.1791a1.5611,1.5611,0,0,1,.08-.1791Zm-80.7744,40.4645a2.2519,2.2519,0,0,0,1.42.636c.13.006.2593.0124.389.0124a6.47,6.47,0,0,0,.988-.0742C207.1468,448.2482,206.2206,448.0567,205.2881,447.8531Zm80.7744-40.4645c-.0245.0555-.0493.1173-.074.1791a1.5611,1.5611,0,0,1,.08-.1791Zm0,0c-.0245.0555-.0493.1173-.074.1791a1.5611,1.5611,0,0,1,.08-.1791ZM197.1309,285.0937h-.006a18.802,18.802,0,0,0-5.6811.8768c-.006.0062-.006.0062-.0124.0062.4755-.0432.951-.0864,1.42-.13q1.3986-.12,2.76-.2407c.3767-.0371.7535-.068,1.13-.1051.1049-.0062.21-.0184.3087-.0248.4878-.0431.9633-.0863,1.445-.13.37-.0308.741-.0678,1.1052-.0987A19.6441,19.6441,0,0,0,197.1309,285.0937Zm8.1572,162.7594a2.2519,2.2519,0,0,0,1.42.636c.13.006.2593.0124.389.0124a6.47,6.47,0,0,0,.988-.0742C207.1468,448.2482,206.2206,448.0567,205.2881,447.8531Zm80.7744-40.4645c-.0245.0555-.0493.1173-.074.1791a1.5611,1.5611,0,0,1,.08-.1791Zm0,0c-.0245.0555-.0493.1173-.074.1791a1.5611,1.5611,0,0,1,.08-.1791Zm-80.7744,40.4645a2.2519,2.2519,0,0,0,1.42.636c.13.006.2593.0124.389.0124a6.47,6.47,0,0,0,.988-.0742C207.1468,448.2482,206.2206,448.0567,205.2881,447.8531Zm80.7744-40.4645c-.0245.0555-.0493.1173-.074.1791a1.5611,1.5611,0,0,1,.08-.1791Zm0,0c-.0245.0555-.0493.1173-.074.1791a1.5611,1.5611,0,0,1,.08-.1791Zm-80.7744,40.4645a2.2519,2.2519,0,0,0,1.42.636c.13.006.2593.0124.389.0124a6.47,6.47,0,0,0,.988-.0742C207.1468,448.2482,206.2206,448.0567,205.2881,447.8531Zm80.7744-40.4645c-.0245.0555-.0493.1173-.074.1791a1.5611,1.5611,0,0,1,.08-.1791Zm0,0c-.0245.0555-.0493.1173-.074.1791a1.5611,1.5611,0,0,1,.08-.1791Zm-80.7744,40.4645a2.2519,2.2519,0,0,0,1.42.636c.13.006.2593.0124.389.0124a6.47,6.47,0,0,0,.988-.0742C207.1468,448.2482,206.2206,448.0567,205.2881,447.8531Zm80.7744-40.4645c-.0245.0555-.0493.1173-.074.1791a1.5611,1.5611,0,0,1,.08-.1791Zm0,0c-.0245.0555-.0493.1173-.074.1791a1.5611,1.5611,0,0,1,.08-.1791Zm-80.7744,40.4645a2.2519,2.2519,0,0,0,1.42.636c.13.006.2593.0124.389.0124a6.47,6.47,0,0,0,.988-.0742C207.1468,448.2482,206.2206,448.0567,205.2881,447.8531Zm80.7744-40.4645c-.0245.0555-.0493.1173-.074.1791a1.5611,1.5611,0,0,1,.08-.1791Zm0,0c-.0245.0555-.0493.1173-.074.1791a1.5611,1.5611,0,0,1,.08-.1791Z"/><path class="cls-2" d="M390.7466,304.9584l-10.5345,36.2593c-.1543.5682-.2963,1.1239-.4384,1.68-.13.4815-.247.9631-.3643,1.4386-.0927.3768-.1853.7533-.2718,1.1239-.1234.5126-.247,1.025-.3581,1.5314-.1791.76-.34,1.5066-.5,2.2477-.0864.4261-.1791.8521-.2593,1.2658-.0247.1236-.0494.2471-.0742.3644-.0245.1234-.0493.2407-.074.358-.0742.3767-.1482.7535-.2162,1.13-.0431.21-.08.42-.1173.6236-.0678.3706-.142.7472-.21,1.1178,0,.0185-.0061.0309-.0061.0494-.2161,1.21-.4075,2.3834-.5743,3.5321-.0616.3827-.1111.76-.1667,1.136-.0556.3706-.1049.7412-.1544,1.1054-.1234.8955-.2284,1.7661-.3273,2.6182-.0307.2654-.0616.5311-.0864.79-.0494.42-.0927.8336-.13,1.2473-.0371.34-.068.6793-.0989,1.0188-.0246.2286-.0433.4508-.0555.6732-.0494.5125-.0927,1.0126-.1234,1.5-.0371.4262-.068.8522-.0928,1.2659-.0185.3088-.0432.6175-.0556.92-.0123.142-.0184.278-.0247.42-.0184.3087-.0369.6111-.0493.9077-.0124.2716-.0309.5433-.0371.8088a.53.53,0,0,0-.0062.0989l-.0185.4075c-.0122.3149-.0246.6237-.037.9324-.0123.3335-.0247.6669-.0309.9942-.0185.6545-.037,1.29-.0432,1.9142-.0124.3273-.0124.6546-.0186.9757v.3334c0,.1668-.0061.3335-.0061.4939-.0062.2966-.0062.5806-.0124.8646-.0062.8522-.0124,1.661-.0124,2.4329,0,.5126-.006,1.0128-.006,1.4944,0,.2408-.0063.4815-.0063.71q-.0091.6762-.0184,1.2968c-.0064.358-.0186.7039-.0309,1.0373-.0062.1668-.0124.3273-.0186.4879-.0062.1358-.0123.2655-.0185.3951s-.0186.2533-.0247.3829c-.0062.105-.0124.21-.0186.3088v.0123c0,.0246-.0062.0432-.0062.0679-.0185.2162-.0369.4322-.0554.636-.0309.2779-.0619.5435-.0989.7966-.0246.1977-.0617.3828-.0926.5619s-.068.352-.1111.5187c-.0186.0926-.0433.1791-.068.2717v.0062c-.0371.1234-.068.2469-.1049.3644l-.0186.0554c-.0061.0124-.0061.0186-.0123.0309-.0248.068-.0495.142-.0742.2039-.0308.0925-.0678.1851-.1049.2716s-.08.1729-.1173.2593c-.0495.0866-.0926.1729-.142.26-.0433.0678-.08.1358-.1236.1975s-.08.1234-.13.1852a3.04,3.04,0,0,1-.284.34,3.6512,3.6512,0,0,1-.3211.2964.006.006,0,0,0-.0061.0062,3.4606,3.4606,0,0,1-.3458.2409c-.0618.0369-.1236.074-.1853.1049-.0927.0494-.1914.0926-.2964.1358a2.4936,2.4936,0,0,1-.2594.0988c-.1173.0371-.2408.0741-.37.1049-.08.0187-.1668.0371-.2531.0556s-.1731.0309-.2657.0433l-.2778.0371c-1.8649.1851-3.2233.3642-4.5078.3642-.179,0-.3581-.0062-.5309-.0124s-.3458-.0184-.5188-.0307h-.0061c-.173-.0186-.3459-.0371-.5186-.0618H364.8c-.1791-.0248-.352-.05-.5311-.0866h-.0062a11.0154,11.0154,0,0,1-1.1362-.2654H363.12c-.1975-.0555-.4013-.1173-.6052-.1853h-.0061q-.3148-.1019-.6484-.2222c-.5619-.2039-1.1732-.4508-1.8462-.7472-.2718-.1173-.55-.2471-.8337-.3767-.1482-.0679-.2964-.1358-.4507-.21-.6052-.284-1.2536-.5988-1.9638-.9632-.3333-.1667-.6791-.34-1.0373-.5249-.4013-.21-.8275-.4261-1.2719-.6608-.29-.148-.5744-.3024-.8461-.4568-.5309-.2965-1.0312-.5991-1.5005-.914-.1234-.074-.2347-.1544-.352-.2346-.1173-.0742-.2285-.1544-.34-.2347-.4446-.3148-.8583-.6359-1.2474-.9632-.3457-.29-.6731-.5806-.9818-.8769-.21-.2037-.4137-.4075-.6052-.6114-.3024-.3211-.58-.636-.84-.9571-.1358-.1667-.2717-.3333-.3953-.5062-.1234-.1668-.2469-.3335-.358-.5-.0062-.0062-.0124-.0186-.0186-.0248-.08-.1173-.1605-.2345-.2345-.3518-.1113-.1791-.2224-.352-.3275-.5311-.0555-.0928-.1049-.1853-.16-.2779a15.5362,15.5362,0,0,1-.7411-1.519.2152.2152,0,0,0-.0247-.0556.2475.2475,0,0,0-.0246-.0618c0-.0062-.0062-.0062-.0062-.0124-.0247-.08-.0556-.1544-.0865-.2284-.006-.0062-.006-.0185-.0124-.0247-.0431-.1111-.08-.2162-.1173-.3211-.0554-.1482-.1049-.2964-.1543-.4384-.1173-.3829-.2222-.7534-.3026-1.1115-.0493-.1977-.0864-.3952-.1235-.5805-.0371-.1914-.0678-.37-.0925-.5495-.0248-.1421-.0371-.278-.0557-.4076s-.0309-.2655-.037-.389a1.3456,1.3456,0,0,1-.0186-.2223c-.0062-.0988-.0123-.1915-.0184-.284a1.1672,1.1672,0,0,1-.0063-.1482,9.5544,9.5544,0,0,1,.1051-2.0872c2.4205-11.2755,13.4058-49.2453,18.9076-69.178.1173-.4075.2347-.815.34-1.21.0062-.0184.0062-.0308.0124-.0493.0617-.2409.13-.4817.1853-.7226.0864-.3271.16-.6482.2346-.9633s.1481-.63.21-.9384c.0432-.2039.0863-.4077.13-.6053.1482-.7163.2717-1.42.3828-2.0995.0927-.568.1667-1.13.2347-1.6733.0371-.2717.068-.5434.0927-.809.0184-.1851.037-.37.0555-.55V295.14c.0185-.1729.0309-.34.0433-.5064.0185-.1667.0309-.34.0432-.5.0248-.3889.0431-.7656.0617-1.1361.0123-.29.0185-.5743.0247-.846.0062-.1544.0062-.3087.0062-.4631.0062-.1544.0062-.3026.0062-.4508,0-.1914-.0062-.3827-.0062-.568,0-.1668,0-.3335-.0062-.494-.0062-.2348-.0124-.4693-.0247-.6979-.0062-.142-.0124-.284-.0247-.42-.0062-.173-.0186-.3457-.0309-.5125-.0061-.0865-.0124-.1667-.0184-.2532,0-.0679-.0062-.1359-.0124-.2039-.0062-.1234-.0185-.2407-.0309-.358-.0124-.1667-.0309-.3273-.0433-.4878-.0371-.3273-.0678-.6423-.1049-.951-.0247-.1913-.0494-.3766-.0742-.5619-.006-.0371-.0123-.08-.0184-.1173-.0123-.1236-.0309-.2471-.0494-.3643s-.0309-.2348-.05-.3521c-.0185-.1358-.0431-.2716-.0618-.4013-.0431-.2656-.0863-.5187-.13-.7657-.0308-.1852-.0617-.37-.0988-.5434q-.0464-.2686-.0927-.5186c-.0184-.1113-.0431-.2224-.0616-.3335-.0309-.1791-.0617-.3458-.0927-.5126q-.0276-.1481-.0555-.2964c-.0247-.1358-.0433-.2654-.0679-.3951-.0494-.2842-.0927-.55-.1236-.7966-.0123-.08-.0247-.1605-.0307-.2409-.0248-.1975-.0371-.3828-.0495-.5557,0-.068-.0062-.1358-.0062-.2038a3.7707,3.7707,0,0,1,.0186-.5371,3.1086,3.1086,0,0,1,.074-.3768.0216.0216,0,0,0,.0062-.0123l.0556-.1668c.0185-.0369.0309-.074.0493-.1049a.7785.7785,0,0,1,.0556-.0987v-.0124a.1086.1086,0,0,1,.0248-.0309.709.709,0,0,1,.08-.1111c.0184-.0186.0308-.0371.0431-.0495a.1876.1876,0,0,1,.05-.0494c.0371-.0371.08-.074.1234-.1111l.0186-.0186c.0062,0,.0123-.0061.0185-.0123l.1482-.0926a1.363,1.363,0,0,1,.2346-.1112,1.8381,1.8381,0,0,1,.278-.0926,2.2231,2.2231,0,0,1,.3211-.074c.0555-.0062.1111-.0186.1728-.0248a1.5149,1.5149,0,0,1,.1852-.0247c.34-.0309.6793-.0494,1.019-.0494.1913,0,.389.0062.58.0185h.0308a.1046.1046,0,0,1,.0432.0062,2.608,2.608,0,0,1,.3088.0247h.0371a2.0232,2.0232,0,0,1,.2716.0247.0371.0371,0,0,0,.0247.0062h.0186c.1235.0124.2469.0247.3706.0495h.0247a1.3013,1.3013,0,0,1,.216.0369.0782.0782,0,0,1,.0371.0062,2.8684,2.8684,0,0,1,.4013.068c.0124,0,.0247.0062.0371.0062.1976.037.3951.08.5928.1234.105.0309.21.0557.3211.0864.142.0371.29.08.4384.1173.1482.0433.2964.0865.4507.136.26.0864.525.1727.79.2716h.0062c.0618.0248.1235.0433.1853.0679.21.0742.4137.1544.6237.2409.1913.08.3827.1605.58.2531.1544.068.3026.13.4569.2038.4631.21.92.4384,1.377.6792.2533.136.5064.2718.76.4138q.75.426,1.5007.8892c.4938.3149.994.6422,1.4881.9757.3643.2531.7347.5124,1.0929.7718.1853.13.3644.2593.5434.3952.1852.1358.3582.2716.5373.4014.2654.2037.5311.4075.79.6175.2654.2037.5247.4137.778.6175.2593.21.5124.42.7657.63s.5.42.7472.63c.7409.63,1.4511,1.2659,2.1241,1.8834.2285.21.4508.4138.6669.6175q.2962.2687.5743.5372c.3767.3581.7348.7039,1.0868,1.0436.1729.1667.34.3335.5064.5C395.0568,295.9862,390.7466,304.9584,390.7466,304.9584Z"/><path class="cls-2" d="M378.6128,427.9141v.08c0,.0866-.0062.1606-.0124.2409a.6629.6629,0,0,1-.0185.1544.4824.4824,0,0,0-.0124.0864,2.4844,2.4844,0,0,1-.1173.3829c-.0371.074-.0741.142-.1111.21l-.0556.0741a.5809.5809,0,0,1-.0555.0741,1.7676,1.7676,0,0,1-.142.1605,2.0331,2.0331,0,0,1-.1731.1544c-.0678.0556-.148.1051-.2284.1605-.0863.0495-.1729.0989-.2654.1482-.0742.0371-.1482.068-.2286.1051-.08.0309-.1605.0617-.2469.0988-.1173.037-.2409.08-.3706.1172s-.2655.068-.4137.105c-.08.0187-.16.0371-.2469.0556-.068.0124-.13.0247-.2038.0371-.08.0185-.1606.0309-.247.0433-.1667.0247-.34.0554-.5249.074-.1853.0247-.3767.0494-.5744.068-.3642.0371-.7409.0678-1.13.08-.4755.0247-.9695.0309-1.4757.0247-.0927,0-.1855,0-.2842-.0062-.3889-.0062-.7842-.0247-1.1794-.0433-.4013-.0183-.8027-.0431-1.21-.0863-.457-.0309-.92-.08-1.3832-.1421-.1544-.0185-.3026-.037-.4569-.0618-.2039-.0245-.4139-.0554-.6175-.0863-.4139-.0557-.8214-.1173-1.229-.1977-.4075-.068-.815-.1482-1.2226-.2284-.2532-.0494-.5-.1051-.7472-.1605-.3518-.0742-.6915-.1544-1.0311-.2409-.1915-.0493-.383-.0926-.5743-.1482-.1914-.05-.3829-.0988-.5682-.1544-.1851-.05-.37-.1049-.5557-.1606-.1729-.0493-.34-.1049-.5063-.1605-.3643-.1111-.7225-.2284-1.0683-.3582-.1667-.0555-.3273-.1173-.4877-.179-.6422-.247-1.235-.5063-1.7661-.7718-.13-.0618-.2531-.13-.3706-.1915-.0061-.0062-.0123-.0062-.0185-.0124-.1235-.0679-.2408-.1358-.358-.2038-.0124-.0062-.0309-.0185-.0433-.0245a8.2876,8.2876,0,0,1-.8768-.6115c-.0865-.0617-.1667-.13-.26-.2037-.08-.068-.1665-.142-.2531-.2223q-.1387-.12-.2778-.2593a17.3793,17.3793,0,0,1-1.8216-2.1551q-.1577-.213-.3151-.4446-.1574-.2223-.3148-.4631a.9391.9391,0,0,0-.0679-.0989c-.2655-.4137-.5372-.8459-.7966-1.2905-.0186-.037-.037-.068-.0557-.0989-.1049-.1791-.2036-.3518-.2963-.5309-.0988-.1791-.1975-.3582-.29-.5435-.1174-.2222-.2285-.4446-.3335-.673,0-.0061-.0063-.0123-.0123-.0185-.1173-.2409-.2286-.4879-.3335-.7288,0-.006-.0062-.006-.0062-.0122s-.0062-.0062-.0062-.0123c-.0062-.0124-.0123-.0309-.0185-.0433-.08-.1915-.1606-.3766-.2347-.5742-.08-.1853-.1544-.3768-.2223-.5682-.037-.0926-.0741-.1913-.1049-.2841-.068-.1914-.136-.3765-.1976-.568-.074-.2409-.1482-.4817-.2162-.7164-.0617-.2222-.1173-.4444-.1729-.6606v-.0124c-.0061-.037-.0184-.0741-.0247-.1111-.0493-.2162-.0926-.4385-.1357-.6545-.0742-.3706-.1236-.741-.1607-1.1054a26.1579,26.1579,0,0,1-.1357-3.3529c.006-.1237.0122-.2533.0184-.3768.0062-.1913.0185-.3828.0309-.5742,0-.0247.0062-.0433.0062-.068.0123-.2037.0371-.4075.0556-.6051.0122-.1111.0246-.2161.0433-.3211.0245-.21.0554-.42.0925-.6237.0371-.2346.0864-.4631.1359-.6854.0123-.0618.0309-.1234.0432-.1852.0247-.1111.0493-.2224.08-.3273l.0371-.13a.3929.3929,0,0,1,.0371-.1111c.0371-.1544.0864-.3087.1358-.4569.0186-.0557.037-.1113.0557-.1606.0431-.1234.0863-.2409.1356-.3582a.9061.9061,0,0,1,.0433-.1173c.0309-.08.0618-.1543.0988-.2285a5.0363,5.0363,0,0,1,.2347-.4877,5.5466,5.5466,0,0,1,.2716-.494.22.22,0,0,1,.0309-.05c.0926-.1543.1915-.3087.2964-.4507.0248-.0371.0557-.0742.08-.1051.08-.1111.1605-.216.2469-.3148.0433-.0556.0864-.1051.13-.1544.13-.142.2655-.284.4075-.4138.13-.1235.2594-.2407.4014-.352.08-.0617.1544-.1235.2348-.1789a2.1214,2.1214,0,0,1,.2469-.1668,4.39,4.39,0,0,1,.5186-.3087c.0927-.0495.1914-.0988.29-.142.0741-.0371.1544-.0742.2346-.1051.1113-.0493.2224-.0926.34-.1358a3.5022,3.5022,0,0,1,.3334-.1112c.0062-.0061.0062-.0061.0124-.0061.1049-.0309.21-.0617.3149-.0864.1544-.0433.3148-.08.4755-.1113.1235-.0247.2408-.0431.37-.0616.142-.0248.2964-.0433.4446-.0557.3458-.0309.704-.0618,1.0744-.08.34-.0185.6917-.0247,1.0561-.0247h.0864a45.7327,45.7327,0,0,1,16.4439,3.4393,6.6406,6.6406,0,0,1,.5928.3088q.1389.0741.2593.1483c.08.0493.1606.105.2346.1544.068.0431.136.0926.2038.142a1.4411,1.4411,0,0,1,.1544.1173c.0062.0062.0123.0062.0185.0124.074.0616.142.1234.2037.1791.0371.0369.0742.0678.1051.1049.0371.0371.074.08.1111.1173.0309.0433.068.0865.0925.1235a.79.79,0,0,1,.0742.0988,1.2557,1.2557,0,0,1,.1049.173l.0557.1111c.0185.0432.037.08.0494.1173a1.6138,1.6138,0,0,1,.074.247,1.7,1.7,0,0,1,.0371.247c.13,1.661-1.7536,3.7482-1.3584,7.7063q.0553.5559.13,1.093c.0433.3026.0864.5928.1358.883a.0225.0225,0,0,1,.0062.0185c.0371.2038.068.4077.1051.6113.0678.3582.142.71.216,1.05.0433.1791.08.352.1235.5311.0433.173.0865.34.13.5125.0866.34.173.6669.2717.988.0865.3211.1854.6361.2842.9386.1358.4322.2716.8461.42,1.2412.2533.7348.5126,1.4141.7534,2.0378.0863.2161.1667.426.2407.6236.2409.6361.4571,1.21.63,1.7351.0371.1051.068.21.0989.3087.0618.2038.1111.4015.1543.5806a4.6627,4.6627,0,0,1,.0988.5309c.0124.068.0185.13.0247.1853v.0371a.744.744,0,0,1,.0062.1173A.17.17,0,0,1,378.6128,427.9141Z"/><path class="cls-1" d="M300.0489,211.445,194.21,223.3442c-.7656.1544-11.6954,2.507-25.6445,14.9619l-.068.0556-.074.0555c-18.2161,13.3565-28.88,18.5681-34.549,20.5935-.006,0-.0123.0062-.0183.0062a20.0955,20.0955,0,0,1-5.008,1.2659c-.2162.0616-.5371.1482-.9757.2469v-.0124c-.2222.0619-.4817.105-.7842.1606-.4446.08-1.0683.1915-1.766.3088-1.0189.179-2.9454.5-4.3842.6978a50.029,50.029,0,0,1-6.9221.531,31.5482,31.5482,0,0,1-5.5328-.457h-.0062a22.4276,22.4276,0,0,1-10.6888-4.81c-5.3907-4.4583-9.0032-11.862-10.7506-22.0074-.037-.2162-.5434-3.6495-.5742-3.9459-.0247-.1852-.1112-1.1917-.1914-2.2167-.0866-1.0252-.1668-2.0625-.1853-2.3156-.6608-12.3376,2.1859-21.384,8.4658-26.9043,5.7489-5.0511,13.4-6.243,18.6545-6.7,2.3342-.1976,6.99-.34,7.91-.3643a11.2365,11.2365,0,0,1,1.8833-.13c4.6683,0,16.29,1.6425,41.6686,12.64l.08.0308.08.0432c15.3509,8.472,26.04,8.8982,28.028,8.8982h.3026L293.5961,202.689a21.8929,21.8929,0,0,0,3.5444,5.934A20.2053,20.2053,0,0,0,300.0489,211.445Z"/><path class="cls-1" d="M436.1078,205.2268a3.5709,3.5709,0,0,1-2.55,1.1054h-.0309c-4.6867,0-6.0884-5.5575-6.62-9.1452l-97.0147,10.9051a35.2281,35.2281,0,0,0,3.7237-5.0573,49.9615,49.9615,0,0,0,2.7293-5.15l89.5058-10.059c-.2778-3.6186-.142-9.3612,4.4522-10.3925a3.7137,3.7137,0,0,1,.778-.0864c3.6124,0,4.9214,5.2672,5.1438,6.3231l.0185.0926.0122.0927,1.6736,14.9063.0123.0865v.0926C437.954,199.6632,437.9108,203.3743,436.1078,205.2268Z"/><path class="cls-2" d="M230.3707,144.36c.0742.0061.1482.0124.2286.0124.0247,0,.0494-.0063.074-.0063C230.5683,144.3665,230.47,144.3665,230.3707,144.36Zm21.7543-23.6191c.3644-.667.71-1.3277,1.0314-1.9822C252.8291,119.4136,252.4832,120.0743,252.125,120.7413Zm11.3929,35.4812a17.3375,17.3375,0,0,0,1.2041,1.4448Q264.1013,156.9912,263.5179,156.2225Zm88.3079-48.0411c.4138-.3459.8275-.6793,1.2473-.9943C352.6594,107.4959,352.24,107.8293,351.8258,108.1814Zm3.878,25.0949a9.6007,9.6007,0,0,0,1.2657-.3519A11.9883,11.9883,0,0,1,355.7038,133.2763Zm1.4263-28.6394c.5188-.2593,1.0374-.5063,1.5437-.7224C358.1675,104.1306,357.6489,104.3715,357.13,104.6369Zm35.8147,18.247c.6051.1421,1.1917.2593,1.7723.3643C394.1365,123.1432,393.5438,123.02,392.9448,122.8839Z"/><path class="cls-2" d="M426.4439,104.5258a.6272.6272,0,0,0-.4507.1913c-.6423.63-1.4018,1.3339-2.2847,2.1a35.8117,35.8117,0,0,1-7.9533,5.9155c-.2718.136-.55.2656-.84.3891-.142.0617-.29.1173-.4384.1729-.2965.1173-.6052.2162-.914.315a19.706,19.706,0,0,1-5.6624.79,20.8492,20.8492,0,0,1-6.8048-1.1054,44.1866,44.1866,0,0,1-10.8678-5.8044A172.1857,172.1857,0,0,0,398.595,83.463a41.8646,41.8646,0,0,0,1.1114-11.64,37.0363,37.0363,0,0,0-3.495-14.8568c-2.5256-5.0635-6.5393-9.0957-12.4548-10.6457a11.1264,11.1264,0,0,0-1.6179-.3025,12.0875,12.0875,0,0,0-1.42-.08,17.7776,17.7776,0,0,0-7.1259,1.68c-.4755.21-.957.4385-1.4325.6855-.3953.2038-.7966.42-1.1919.6422v.0062a41.8733,41.8733,0,0,0-5.1251,3.4517c-.4507.352-.9015.7164-1.3523,1.0806-.6669.5558-1.3277,1.1239-1.9761,1.7043-.4322.3891-.8582.778-1.2781,1.1733-.3211.2964-.63.5928-.9386.8892-1.13,1.0991-2.2045,2.2045-3.2234,3.2911-.37.3953-.7286.7906-1.0806,1.1857-.531.58-1.0436,1.1608-1.5314,1.7229-.3211.3765-.6359.7471-.9447,1.1051-3.3531,3.9768-5.4463,7.0025-5.4463,7.0025.4322-6.5577.2346-8.966-7.552-20.7787a31.2186,31.2186,0,0,0-6.2182-7.2308c-.2964-.2409-.5989-.4631-.8891-.6731a12.6363,12.6363,0,0,0-4.2114-1.9945q-.4074-.0927-.7966-.1668a11.6076,11.6076,0,0,0-1.9327-.16,19.8157,19.8157,0,0,0-4.9337.7719c-5.1315,1.3153-11.8868,24.0206-13.1465,46.3059-1.2536,22.2855-1.3152,46.1392-1.3152,46.1392a51.9722,51.9722,0,0,1-3.8657,7.04c-.1358.21-.2778.42-.42.63-.5371.79-1.1175,1.593-1.735,2.3711-.2038.2593-.4138.5187-.63.7719-2.3588,2.81-5.2179,5.2425-8.3732,5.9218a8.1861,8.1861,0,0,1-.8646.142,8.456,8.456,0,0,1-.883.0493c-.2593,0-.5186-.0122-.7842-.0369-9.8367-.9819-8.62-17.9568-7.3914-29.9733,1.2288-12.0226,4.4459-21.0072,9.0277-37.9388,4.5943-16.9318-.3519-18.7843-5.7982-24.0514a10.581,10.581,0,0,0-3.705-2.322,9.7483,9.7483,0,0,0-.9942-.3147,11.69,11.69,0,0,0-2.9948-.3891,11.3191,11.3191,0,0,0-1.4573.0927c-.1975.0245-.4014.0554-.5928.0925-.2222.0371-.4322.0864-.6422.1359-.21.0556-.42.1111-.6175.1729s-.3952.1358-.5866.2038c-.1853.074-.37.1544-.55.2408-.1791.08-.3459.1729-.5126.2654a5.11,5.11,0,0,0-.4693.2964,5.3689,5.3689,0,0,0-.7966.667,3.0117,3.0117,0,0,0-.3211.37,3.1091,3.1091,0,0,0-.6792,1.6611c-.3149,4.0384-2.7787,11.5162-6.564,19.6487-3.7975,8.1385-4.7732,20.9639-7.836,32.1219a28.5248,28.5248,0,0,1-.9262,2.7666c-.1544.3889-.315.79-.4879,1.1979-.0864.2036-.1729.4075-.2655.6113-.179.4136-.37.8337-.5743,1.2535-.1975.426-.4075.8583-.63,1.2906-.3211.6545-.667,1.3152-1.0314,1.9822a91.1412,91.1412,0,0,1-5.4647,8.7993c-.3087.4384-.6175.8768-.9386,1.3152-.4693.6545-.951,1.2968-1.4326,1.9266-.3211.42-.6423.8335-.9694,1.235-1.1362,1.4263-2.2787,2.7664-3.4086,3.9828q-.4817.51-.9633,1c-.3211.3211-.6422.636-.951.9386a.0061.0061,0,0,1-.0062.0062c-.6236.5989-1.2411,1.1548-1.8463,1.6488l-.0061.006a18.35,18.35,0,0,1-2.5873,1.8156l-.0062.0061c-.2471.1421-.494.2655-.7348.3766a.6322.6322,0,0,0-.0927.0433c-.216.0987-.4322.1791-.6422.2531a.9639.9639,0,0,0-.142.0495c-.1977.0556-.389.1049-.5742.142a1.61,1.61,0,0,1-.1668.0309,3.8509,3.8509,0,0,1-.5187.0493c-.0246,0-.0493.0063-.074.0063-.08,0-.1544-.0063-.2286-.0124-6.78-.4878-1.26-24.4837,1.8587-34.907,3.1307-10.411,10.6518-34.2216,12.0968-38.5008,1.4388-4.2854-5.3167-9.6761-8.4288-12.2388-.2471-.2037-.5249-.4323-.8275-.6668-.1976-.1606-.4075-.3273-.63-.4941q-.3243-.2593-.6855-.5187c-.4692-.352-.9756-.7162-1.5005-1.0868a34.7209,34.7209,0,0,0-3.3777-2.0685c-.29-.1544-.58-.3026-.8707-.4386a11.3812,11.3812,0,0,0-4.662-1.2843,4.6549,4.6549,0,0,0-.5126.0248,4.2426,4.2426,0,0,0-.9633.1913,3.6065,3.6065,0,0,0-.4508.1791C215.6621,55.25,210.3207,71.7,207.8014,85.0067c-2.5318,13.3133-5.3538,40.9956-2.1,57.9951.21,1.093.457,2.112.741,3.0691.1853.6359.3953,1.2474.6113,1.8278,2.964,7.836,8.6327,10.5591,14.6222,10.5591a23,23,0,0,0,3.7174-.3212c.4076-.074.8213-.1543,1.235-.2407q.6114-.1389,1.2226-.2964c.3458-.0926.6916-.1915,1.0313-.2964.13-.0371.2531-.08.3767-.1173.1357-.0432.2717-.0865.4075-.136.599-.1974,1.1856-.4136,1.7661-.6482,9.7811-3.915,22.7423-30.7266,23.2054-31.0231a.2971.2971,0,0,1,.1605-.0555c.3706,0,.599,1.0312.383,4.1681-.2657,3.5753.3147,11.3126,6.1933,23.2055a23.2424,23.2424,0,0,0,2.1428,3.5259q.5835.7689,1.2041,1.4448c.1359.1484.2779.2964.42.4384.284.2842.568.5559.8644.809a8.5927,8.5927,0,0,0,.704.5682,14.4113,14.4113,0,0,0,4.1125,2.2229c.3458.1173.6979.2223,1.05.3211a17.3779,17.3779,0,0,0,4.4645.5557,23.3,23.3,0,0,0,3.2913-.247c.5557-.0863,1.1239-.1852,1.6919-.3025.8584-.1853,1.7229-.4075,2.6-.6668.58-.1731,1.1732-.3706,1.76-.5744.29-.1049.5927-.2162.8891-.3273.593-.2222,1.1918-.4631,1.7909-.7224.5989-.2531,1.204-.5249,1.8092-.8151,11.8249-5.6069,17.0367-17.0552,17.0367-17.0552a190.1954,190.1954,0,0,1-2.1736,27.59q-.204,1.1948-.426,2.4823c-.2471,1.4388-.5126,2.9516-.7658,4.5077-.0864.5557-.1791,1.1176-.2655,1.6858-.1111.7348-.2161,1.4819-.3211,2.2291-.0741.5434-.142,1.0929-.21,1.6426a49.3649,49.3649,0,0,0-.2408,12.0844c.0309.2346.068.4692.1051.7039.1173.6915.2593,1.3585.432,2.0007.0557.2162.1175.426.1855.636a14.3527,14.3527,0,0,0,.8891,2.18c.1235.2284.247.4507.3766.6606a9.5776,9.5776,0,0,0,.7533,1.0746h.0062c1.71,2.1056,4.2794,3.3653,8.0213,3.3653.1421,0,.2778,0,.42-.0062,3.3346-.08,6.206-2.0625,8.6513-5.2858,9.4292-12.387,12.7327-43.1752,13.0476-55.3954.3953-15.4127,3.3715-28.7074,6.737-44.1633C345.7868,84.414,366.0838,57.93,377.1,57.5344h.1421a2.8282,2.8282,0,0,1,2.0068.7471,1.8591,1.8591,0,0,1,.1544.1544,4.0563,4.0563,0,0,1,.284.3459,4.8839,4.8839,0,0,1,.6484,1.3213c.0617.1729.1111.352.1606.5373,2.5934,10.1145-8.9908,41.4833-8.9908,41.4833a17.2116,17.2116,0,0,0-3.1616-.2717c-.4014,0-.815.0124-1.2474.0371-.216.0124-.4384.0246-.6606.0493-.4508.0371-.9077.0865-1.3832.1606-.2407.0309-.4817.0741-.7226.1112-.2407.0431-.4877.0926-.7347.142-.2532.0555-.5.1111-.7534.173-.2593.0616-.5124.1234-.7718.1974-.7719.21-1.5685.4693-2.3773.7781-.3335.13-.6731.2655-1.019.4138-.5063.2161-1.0249.4631-1.5437.7224-.34.1791-.6915.3643-1.0373.5619-.173.0989-.3459.1976-.5188.3026-.4137.2471-.8335.5125-1.2535.7966-.2779.1852-.5557.3767-.8336.58-.1358.1051-.2778.2038-.4138.3087-.42.315-.8335.6484-1.2473.9943-.2717.2347-.55.4754-.8212.7224s-.5495.5064-.8213.7718a33.59,33.59,0,0,0-3.18,3.6063c-.2038.2655-.4074.5433-.6051.8213a40.2531,40.2531,0,0,0-2.7171,4.3225c-8.8918,16.2894-6.3293,21.7914,1.0807,27.6636a9.6149,9.6149,0,0,0,2.3094,1.3646q.4077.167.8151.2966a11.3064,11.3064,0,0,0,3.4457.5062,17.6985,17.6985,0,0,0,4.4645-.63c.4322-.1174.8582-.2409,1.29-.3829.21-.068.4262-.142.6423-.2162.6422-.2222,1.2906-.4755,1.9266-.7409.42-.1791.8459-.37,1.2658-.5619,1.4635-.6793,2.89-1.445,4.236-2.2231.383-.2222.7595-.4507,1.13-.6729,1.4819-.8955,2.84-1.7847,4.0137-2.5565,6.385-4.2236,15.7831-19.5622,15.7831-19.5622a48.3328,48.3328,0,0,0,6.86,2.1735c.599.1359,1.1917.2593,1.7723.3643.531.0989,1.05.1729,1.5623.2471.284.037.5618.0678.8459.0925.2223.0248.4507.0557.6731.0742.29.0247.58.0431.8644.0555.2038.0123.4013.0247.6052.0309q.417.0185.8336.0185c.1111,0,.2223,0,.3335.0062.2717,0,.5372-.0062.8026-.0124a29.6965,29.6965,0,0,0,16.1414-5.7551,34.349,34.349,0,0,0,7.7249-9.0215c.7224-1.2226,1.3708-2.4268,1.9265-3.5011A.6554.6554,0,0,0,426.4439,104.5258Zm-59.73,9.2068c-1.4633,2.5256-6.3169,17.9259-9.2871,19.0313-.1544.0554-.3026.1111-.457.16a9.6007,9.6007,0,0,1-1.2657.3519,7.4294,7.4294,0,0,1-1.5253.1667,8.4314,8.4314,0,0,1-4.1125-1.235c-2.538-1.377-2.254-7.6014-.8953-10.4727,2.1426-4.5386,5.1745-7.305,10.5405-8.8424a23.3281,23.3281,0,0,1,5.7182-1.1239,3.0483,3.0483,0,0,1,1.1113.1668,1.1255,1.1255,0,0,1,.21.1111C367.1891,112.3433,367.2015,112.8929,366.7136,113.7326Z"/><path class="cls-2" d="M355.7038,133.2763a9.6007,9.6007,0,0,0,1.2657-.3519A11.9883,11.9883,0,0,1,355.7038,133.2763Zm0,0a9.6007,9.6007,0,0,0,1.2657-.3519A11.9883,11.9883,0,0,1,355.7038,133.2763Zm0,0a9.6007,9.6007,0,0,0,1.2657-.3519A11.9883,11.9883,0,0,1,355.7038,133.2763Zm0,0a9.6007,9.6007,0,0,0,1.2657-.3519A11.9883,11.9883,0,0,1,355.7038,133.2763Zm0,0a9.6007,9.6007,0,0,0,1.2657-.3519A11.9883,11.9883,0,0,1,355.7038,133.2763Zm0,0a9.6007,9.6007,0,0,0,1.2657-.3519A11.9883,11.9883,0,0,1,355.7038,133.2763Zm-3.878-25.0949c.4138-.3459.8275-.6793,1.2473-.9943C352.6594,107.4959,352.24,107.8293,351.8258,108.1814Zm5.3043-3.5445c.5188-.2593,1.0374-.5063,1.5437-.7224C358.1675,104.1306,357.6489,104.3715,357.13,104.6369Zm35.8147,18.247c.6051.1421,1.1917.2593,1.7723.3643C394.1365,123.1432,393.5438,123.02,392.9448,122.8839Zm-37.241,10.3924a9.6007,9.6007,0,0,0,1.2657-.3519A11.9883,11.9883,0,0,1,355.7038,133.2763Zm-92.1859,22.9462a17.3375,17.3375,0,0,0,1.2041,1.4448Q264.1013,156.9912,263.5179,156.2225ZM252.125,120.7413c.3644-.667.71-1.3277,1.0314-1.9822C252.8291,119.4136,252.4832,120.0743,252.125,120.7413ZM230.3707,144.36c.0742.0061.1482.0124.2286.0124.0247,0,.0494-.0063.074-.0063C230.5683,144.3665,230.47,144.3665,230.3707,144.36Zm125.3331-11.0841a9.6007,9.6007,0,0,0,1.2657-.3519A11.9883,11.9883,0,0,1,355.7038,133.2763Zm0,0a9.6007,9.6007,0,0,0,1.2657-.3519A11.9883,11.9883,0,0,1,355.7038,133.2763Z"/><path class="cls-2" d="M192.3948,106.2239c-3.2726,22.625-32.4185,66.4177-65.14,66.9179-3.7173.0556-7.3234-.0124-10.6827-.1791-.1111,0-.216-.0062-.3271-.0124a131.0534,131.0534,0,0,1-13.19-1.29c-.5989-.0927-1.167-.1915-1.6981-.29-.4137-.0742-.8089-.1544-1.1793-.2286-.8646-.1791-1.6118-.358-2.2355-.5495q-.3981-.1113-.7224-.2223c-.1173-.0433-.2347-.0864-.34-.13-3.6063-1.445-9.0772-4.6992-8.8981-15.8141s5.224-23.31,15.6782-33.5238c.352-.3457.71-.6916,1.0744-1.0436.2224-.2036.4446-.4136.6669-.6236.4446-.42.8954-.8336,1.3523-1.2536.3026-.2778.6113-.5557.92-.8335.1543-.142.3087-.2778.4631-.4138.6175-.5495,1.2473-1.099,1.871-1.6363.4755-.4075.9572-.815,1.4327-1.21.3149-.2655.636-.531.9571-.79.3148-.2593.6359-.5188.957-.7781q.7132-.574,1.4264-1.13c.4817-.37.9572-.741,1.4327-1.093.4693-.358.9448-.7039,1.4079-1.0435.3766-.2717.7471-.5372,1.1177-.8027.2469-.1667.4877-.34.7286-.5063.6051-.4139,1.2041-.8152,1.7907-1.1918.3891-.2471.7657-.4878,1.1362-.7164a37.257,37.257,0,0,1,3.7481-2.05c.1976-.0927.3891-.1791.5806-.2657a10.0405,10.0405,0,0,1,3.7235-.994,2.1607,2.1607,0,0,1,1.76.6853c2.9579,3.5753-4.1248,7.9287-8.3114,11.4546a40.61,40.61,0,0,0-4.7485,5.6623c-.2347.315-.4631.6361-.704.9634-.2346.3273-.4754.6607-.7163,1.0066-.1173.1727-.2409.3456-.3644.5186-.2469.352-.4877.71-.7347,1.0744-.3705.5435-.7472,1.0992-1.1177,1.6672-.1235.1853-.247.3767-.37.5682-.3767.5742-.7471,1.1608-1.1115,1.7474-.494.7842-.9757,1.587-1.445,2.39-.3518.5989-.6977,1.2041-1.0373,1.8092-.2284.4015-.4508.809-.6608,1.21-.6482,1.2041-1.2534,2.4021-1.7845,3.5691-.1791.3891-.352.7781-.5125,1.1548-1.6982,3.97-2.5317,7.4778-1.63,9.5712a3.4653,3.4653,0,0,0,.1668.34,3.0574,3.0574,0,0,0,.4322.5867,4.1792,4.1792,0,0,0,3.2048,1.1114h.0618a25.9,25.9,0,0,0,10.3306-2.2415c.3952-.1667.7843-.352,1.1732-.5433q.8709-.426,1.7414-.9262c.5742-.3273,1.1485-.6793,1.7167-1.0559,7.41-4.86,14.2393-13.3936,20.5255-25.3544C156.6171,99.8637,161.1125,89.8973,150.64,83c-7.8854-5.1931-30.93-5.2982-38.6429-18.5434a19.2985,19.2985,0,0,1-2.5256-9.1637,32.6093,32.6093,0,0,1,.9572-8.75,57.8515,57.8515,0,0,1,3.6988-10.8124c.3829-.84.778-1.6548,1.1918-2.4638q.9354-1.8153,1.976-3.5259,1.0372-1.704,2.1612-3.31.75-1.0654,1.5376-2.0871c.5249-.6856,1.0621-1.3526,1.6055-2.0008A64.7923,64.7923,0,0,1,143.5819,5.9427c.5248-.253,1.0435-.5,1.5621-.7288,1.0128-.4691,2.0193-.8891,3.0073-1.2718.5928-.2285,1.1794-.4384,1.76-.6422.2964-.0989.58-.1978.8706-.29a42.6965,42.6965,0,0,1,4.9091-1.2845,24.16,24.16,0,0,1,5.8786-.4939c8.0212.4508,20.9392,3.2356,26.6881,12.214a18.3888,18.3888,0,0,1,2.8034,8.1387c.074.6482.1111,1.3215.1235,2.0132.2038,13.208-8.3917,26.0519-19.7969,34.209-.4632.3334-1.0806.7473-1.7783,1.1671-.1606.0988-.315.1913-.4817.284-.3273.1853-.667.3768-1.0126.5557-1.8525.951-3.94,1.6858-5.3971,1.2536a2.312,2.312,0,0,1-.5062-.2162c-2.3651-1.34-1.9945-4.8473-1.9143-6.5887.2285-4.835.9633-10.6825,2.9516-15.4681,1.4388-3.458,2.5627-6.2306,3.353-8.398,1.5437-4.1928,1.871-6.1131.9078-6.3233-.0187,0-.0371-.006-.0618-.006-1.6055,0-18.5125,8.5215-24.4712,18.2963-.0433.068-.0866.142-.13.21-.2222.37-.4261.7472-.6113,1.1239a10.9909,10.9909,0,0,0-1.2905,5.8969C142.0689,62.11,160.4827,66.661,170.11,72.3605S195.6737,83.5927,192.3948,106.2239Z"/></svg>