<svg id="Layer_1" data-name="Layer 1" xmlns="http://www.w3.org/2000/svg" width="216" height="216" viewBox="0 0 500 500"><title>eventy</title><path d="M498.6728,158.4022c-3.0258-18.2024-11.09-33.3911-23.6171-44.7118A93.1547,93.1547,0,0,0,471.46,94.8636c-5.5722-18.2266-19.694-41.2253-55.3713-47.3067-23.8232-4.0623-45.4877,4.56-63.3627,25.03a138.15,138.15,0,0,0-4.6141-13.4849C336.9979,31.44,318.3286,12.9409,294.1235,5.6163A114.2538,114.2538,0,0,0,222.49,7.0655c-17.4625,6.1665-27.77,14.4672-28.2008,14.819a4.2435,4.2435,0,0,0,2.51,7.5307c.5092.0243,37.3444,1.7947,66.5276,18.19a136.7372,136.7372,0,0,0-41.9042.0666c-44.087,6.6819-64.2115,29.28-73.3309,47.0643a83.9445,83.9445,0,0,0-4.7779,11.284v.0062c-22.4408,12.2965-33.731,28.1161-39.382,40.2065a76.722,76.722,0,0,0-4.6748,12.8726,53.2735,53.2735,0,0,0-9.58-7.0519c-10.3807-5.9178-27.0793-10.32-47.6647,2.3223-23.0774,14.17-30.408,31.6328-32.4879,43.79a54.733,54.733,0,0,0-.7759,7.8155v.0062a54.9126,54.9126,0,0,0,.54,9.4105v.0059c-4.7841,9.3317-7.7735,20.3246-8.84,32.7486A130.0724,130.0724,0,0,0,2.57,284.788a4.2418,4.2418,0,0,0,3.244,3.2013,4.44,4.44,0,0,0,.8911.0912,4.2556,4.2556,0,0,0,3.3835-1.6737c6.3544-8.3795,18.93-17.3775,31.53-25.066q-.7092,1.81-1.3823,3.6925c-12.4,34.8039-1.6313,62.4351,9.586,79.4793A110.0312,110.0312,0,0,0,77.29,373.2836,4.2438,4.2438,0,0,0,83.893,369.93c.0242-.5457,2.2616-54.74,7.3305-87.3253,3.2621-20.9552,17.7841-46.9551,27.4006-62.3745,14.6916,15.759,43.5292,49.32,51.3874,77.6118,8.3129,29.9351,12.0238,103.86,13.3093,136.8454a225.0031,225.0031,0,0,0-42.5653,20.7672c-29.0981,18.2992-42.4137,36.4894-42.9652,37.2536a4.2425,4.2425,0,0,0,6.8758,4.9718c.1273-.1759,13.1393-17.8507,40.9946-35.283A215.3627,215.3627,0,0,1,183.648,443.68q4.0656-1.5375,8.3979-2.9956a247.5854,247.5854,0,0,1,27.637-7.5307q4.0841-.8638,8.3435-1.6248c8.1793-1.4614,16.8381-2.6134,25.97-3.3654q4.1745-.3455,8.4888-.5758,7.9671-.4277,16.3893-.4367a297.7467,297.7467,0,0,1,30.5293,1.54q4.4108.4548,8.6525,1.0306c42.4984,5.7484,72.9,20.1247,92.3214,32.6335,27.0186,17.4021,39.2,35.0464,39.3213,35.2163a4.2422,4.2422,0,1,0,7.0274-4.7539c-.5151-.77-13.0363-19.0026-41.3342-37.3323a218.553,218.553,0,0,0-55.1226-25.345,259.2932,259.2932,0,0,0-43.1533-9.1256c-3.5469-33.4154-9.5437-94.9167-10.1077-133.965-.6122-43.044,28.4253-114.6773,41.104-143.83,11.9509,14.0853,27.0428,34.2947,35.2951,54.7282,15.6011,38.6362,32.7788,100.3072,30.7052,118.9522-.5276,4.7234,1.68,6.5848,3.0376,7.27a5.3066,5.3066,0,0,0,2.45.588c3.141,0,5.9726-2.6133,7.0458-3.6075,8.1856-7.5491,20.3246-27.17,27.7037-50.0658,6.6212-20.5549,11.9388-51.3812-.3639-81.4923q-2.7009-6.621-5.5538-12.5573l44.2931,18.0873a4.2415,4.2415,0,0,0,5.7543-3.038A98.7109,98.7109,0,0,0,498.6728,158.4022ZM414.664,55.9246c25.1209,4.2805,41.4678,18.13,48.5985,41.1643a78.9457,78.9457,0,0,1,2.2433,9.271q-2.4189-1.5823-5.0023-3.0016C425.821,84.2648,384.2925,78.79,356.51,89.5158c-.3215-1.9827-.7277-4.2263-1.2431-6.676C371.996,61.1024,391.9446,52.05,414.664,55.9246ZM237.4368,27.9236a196.26,196.26,0,0,0-27.9039-5.7907,105.9649,105.9649,0,0,1,16.11-7.179,104.4642,104.4642,0,0,1,66.0184-1.2127c21.9011,6.6274,38.2117,22.8835,48.4893,48.3072A133.6347,133.6347,0,0,1,346.1235,80.93q-1.5916,2.2009-3.1288,4.5414-1.3826,2.11-2.6679,4.22a138.6369,138.6369,0,0,0-23.5262-20.5792,130.3712,130.3712,0,0,0-31.4871-16.0136C273.6473,42.2212,257.44,33.6655,237.4368,27.9236Zm-87.0648,83.96a76.1552,76.1552,0,0,1,4.3232-11.35v-.0062c.3031-.6366.6247-1.2731.9521-1.9159,11.951-23.3018,34.507-37.6174,67.0493-42.5472,20.5063-3.1042,39.9093-1.6491,58.0145,4.3294A117.35,117.35,0,0,1,297.07,67.1964a125.7961,125.7961,0,0,1,14.6129,8.701,129.7388,129.7388,0,0,1,24.1992,21.616q-1.6556,3.1106-3.0862,6.1058a163.13,163.13,0,0,0-43.9053-9.5742c-12.9392-.8731-24.751.2425-35.3013,3.2926h-.0121c-18.3356.7215-38.8544,4.499-61.35,11.296a370.3661,370.3661,0,0,0-44.5359,16.6806A77.0962,77.0962,0,0,1,150.372,111.8835Zm74.8651,87.35c-1.74,2.4195-3.347,4.7779-4.8448,7.07a185.2166,185.2166,0,0,0-12.6239,22.5678,93.9869,93.9869,0,0,1-5.7662-21.4218,98.6484,98.6484,0,0,1-.6854-22.7742c.2307-2.7226.5762-5.5542,1.0674-8.4707a118.38,118.38,0,0,1,15.9286-41.8435c.1394-.2306.2788-.461.4242-.6854a68.6349,68.6349,0,0,1,6.5667-8.9616,62.0805,62.0805,0,0,1,29.1832-18.8694h.0062q14.7795-4.5747,33.61-3.3408c1.8614.1211,3.7047.2848,5.5116.4912a154.74,154.74,0,0,1,26.4729,5.39c3.7592,1.1038,6.888,2.1708,9.1982,3.0137-.6854,1.6129-1.3157,3.1652-1.8981,4.6384a.2973.2973,0,0,1-.024.0669c-.8855,2.2555-1.6434,4.3291-2.2862,6.1724a.1145.1145,0,0,0-.0118.0426c-.7461,2.1222-1.3282,3.9288-1.7646,5.3417v.0062c-.2.6365-.3639,1.1884-.5033,1.6553q-5.9664,1.728-11.7449,3.8441a176.5651,176.5651,0,0,0-35.683,17.7719,184.62,184.62,0,0,0-42.0377,37.751C230.3789,192.2723,227.6868,195.8073,225.2371,199.2331Zm1.0428,13.6427c7.7915,10.0775,12.1209,22.3982,12.9211,36.8352A93.1127,93.1127,0,0,1,237.6124,272.2a302.4907,302.4907,0,0,0-28.8193-28.8681,4.2446,4.2446,0,0,0,3.25-2.7709C212.0978,240.3977,216.3116,228.6043,226.28,212.8758ZM19.3055,193.9276C22.4583,183.62,29.9466,171.7417,46.4573,161.61c13.685-8.4039,26.8125-9.1378,39.0181-2.1829a48.1756,48.1756,0,0,1,11.8539,9.7743,62.4966,62.4966,0,0,1,6.9427,9.4468,56.11,56.11,0,0,1,5.53,12.1934c.0483.1576.0909.3091.1332.4607-3.3286-1.5641-6.9607-3.11-10.8413-4.517-24.9023-9.0164-47.9072-7.8461-66.54,3.4015a60.7567,60.7567,0,0,0-8.7191,6.3665,59.5738,59.5738,0,0,0-6.36,6.4939A47.0393,47.0393,0,0,1,19.3055,193.9276ZM9.4764,274.4742a125.0273,125.0273,0,0,1-.5516-25.8121,83.3261,83.3261,0,0,1,5.9725-25.3814v-.0059a57.6985,57.6985,0,0,1,6.888-12.1029,52.6007,52.6007,0,0,1,15.1523-13.7152c16.5412-9.9865,36.411-10.9141,59.0517-2.7649a120.0151,120.0151,0,0,1,14.0732,6.1484c-.1759.2789-.3456.5577-.5034.8488h-.0059A87.9586,87.9586,0,0,0,52.5391,240.18v.0059c-1.5887,2.3769-3.1288,4.9052-4.5961,7.5914C34.7852,255.1681,19.5722,264.7728,9.4764,274.4742Zm73.3614,6.8273c-3.9412,25.339-6.1907,63.3748-7.0336,80.0069A106.2445,106.2445,0,0,1,56.753,339.6012c-14.6372-22.3861-17.499-46.5184-8.519-71.718a113.7863,113.7863,0,0,1,5.9482-13.8307q1.9461-3.7926,4.1352-7.282,2.3736-3.7838,5.0266-7.2095a80.8,80.8,0,0,1,7.2941-8.2463,77.98,77.98,0,0,1,23.3684-15.88,79.974,79.974,0,0,1,15.2678-5.0023,3.9829,3.9829,0,0,0,.6244.776c.0669.0669,1.0247,1.0007,2.6557,2.6681C102.6167,229.538,86.4942,257.7936,82.8378,281.3015Zm32.033-100.883a70.2488,70.2488,0,0,0-8.58-13.7579v-.0062a67.5657,67.5657,0,0,1,5.5237-17.2322c6.021-12.6787,15.54-23.2956,28.4252-31.7115a69.2139,69.2139,0,0,0-1.37,14.6369,4.2308,4.2308,0,0,0,4.2382,4.0626,4.305,4.305,0,0,0,1.904-.4486c.582-.2972,41.2128-20.4338,85.7973-27.6676a71.7443,71.7443,0,0,0-16.8988,17.2686c-17.7112,1.6918-33.3852,4.96-46.8035,9.7743-16.1409,5.79-29.1529,13.8429-38.6723,23.9446A65.3591,65.3591,0,0,0,114.8708,180.4185Zm19.7363-15.3164c15.0313-15.9407,40.2007-26.2485,73.6827-30.3656a124.4928,124.4928,0,0,0-14.4249,40.9343c-22.4042-1.0431-54.0251.3881-73.0337,13.9215A55.2329,55.2329,0,0,1,134.6071,165.1021Zm38.8971,19.003c6.7728-.2851,13.37-.2064,19.336.0607a107.3321,107.3321,0,0,0,.7641,24.5325,98.4133,98.4133,0,0,0,9.083,29.5287c-16.28-13.1515-32.4333-22.41-48.3134-27.6614-1.9525-.6487-3.8319-1.2065-5.645-1.6914h-.006a83.9693,83.9693,0,0,0-15.3344-2.71h-.0062c-.2727-.0243-9.8225-7.4762-10.1621-7.6823C135.4077,188.04,156.4476,184.82,173.5042,184.1051ZM196.9756,430.134q-2.6467.7914-5.2631,1.6494c-1.3521-34.3977-5.0873-105.8308-13.5275-136.2086-8.41-30.2928-37.9813-64.7572-53.2124-81.0375a64.1423,64.1423,0,0,1,19.33,1.9523c24.3022,24.6237,41.0734,53.0489,48.7317,72.1972,6.4877,16.2256,19.3908,97.1357,25.3571,136.0144Q207.4409,426.9844,196.9756,430.134Zm29.7652-7.0457c-6.027-39.3273-18.9724-120.4133-25.83-137.5546-7.0638-17.6567-20.464-41.1039-39.63-63.2353,19.6333,8.6161,45.4271,26.2426,75.2409,61.6467a4.2293,4.2293,0,0,0,3.2439,1.51,4.4657,4.4657,0,0,0,.8-.0728,4.2609,4.2609,0,0,0,3.2319-2.8257,98.1679,98.1679,0,0,0,3.8988-33.0151c-.8973-17.19-6.5365-32.1118-16.4985-44.0326,2.65-3.7834,5.6087-7.7066,8.895-11.6842a173.962,173.962,0,0,1,63.7567-48.568c-5.3176,9.3074-11.8781,21.64-18.4993,36.2168-13.855,30.505-30.4444,76.8235-30.7659,124.2395-.3517,52.1756-.5033,90.757-.57,113.9253Q240.0893,420.73,226.7408,423.0883ZM298.5257,287.171c.5516,38.6421,6.3666,98.9367,9.9561,132.8856q-14.4705-1.3914-29.6077-1.3945-8.2674,0-16.3713.4183c.0667-23.2168.2182-61.58.57-113.3071.3091-45.8634,16.45-90.9148,29.9351-120.6314A427.7554,427.7554,0,0,1,316.71,140.1877a175.8372,175.8372,0,0,1,23.1561-6.3121q.9918,1.0827,2.0556,2.2616C330.0007,162.9862,297.8465,239.9367,298.5257,287.171Zm142.8781-5.627c-6.6212,15.6133-14.0791,26.3456-18.651,31.4569-.291-25.4844-18.0448-84.9725-31.4752-118.23-9.3862-23.2411-26.6669-45.6452-39.3394-60.1915-2.2314-2.5586-4.3172-4.8688-6.1907-6.9-2.2193-2.4073-4.1476-4.4265-5.6694-5.9847,7.9008-4.3838,21.2279-6.8941,36.223-3.28,15.0493,3.6322,34.8463,14.0853,52.9092,41.6013q3.6563,5.5752,7.2095,12.1147a211.8742,211.8742,0,0,1,9.7074,20.67C460.17,227.1855,449.1953,263.16,441.4038,281.544Zm49.526-96.3233-48.5316-19.8213c-21.01-37.3566-45.73-50.8-64.1022-55.2378-15.5772-3.7591-29.632-1.7462-39.3577,2.6315a38.6927,38.6927,0,0,1,5.2871-6.0392,41.6134,41.6134,0,0,1,5.3-4.1715c.2969-.2.6-.3941.9033-.5883a50.364,50.364,0,0,1,7.173-3.7592c.2307-.103.4731-.206.7094-.3031,25.1268-10.3928,65.4668-5.1054,98.0941,12.8667a69.7785,69.7785,0,0,1,10.417,6.9729,62.427,62.427,0,0,1,8.5919,8.3795c7.64,9.0466,12.6058,20.2032,14.837,33.3669A94.755,94.755,0,0,1,490.93,185.2207Z"/></svg>