<svg id="Layer_1" data-name="Layer 1" xmlns="http://www.w3.org/2000/svg" width="216" height="216" viewBox="0 0 500 500"><title>multimedia</title><path d="M121.1669,59.9473A33.1127,33.1127,0,1,0,154.28,93.06,33.1491,33.1491,0,0,0,121.1669,59.9473Zm0,57.7411A24.6285,24.6285,0,1,1,145.7955,93.06,24.6553,24.6553,0,0,1,121.1669,117.6884Z"/><path d="M255.4117,59.9473A33.1127,33.1127,0,1,0,288.5245,93.06,33.1491,33.1491,0,0,0,255.4117,59.9473Zm0,57.7411A24.6285,24.6285,0,1,1,280.04,93.06,24.6553,24.6553,0,0,1,255.4117,117.6884Z"/><path d="M235.2072,230.1956H90.8539a12.916,12.916,0,0,0-12.9018,12.9021v44.7481A12.9161,12.9161,0,0,0,90.8539,300.748H235.2072a12.9163,12.9163,0,0,0,12.9021-12.9022V243.0977A12.9162,12.9162,0,0,0,235.2072,230.1956Zm4.4179,57.65a4.4227,4.4227,0,0,1-4.4179,4.4179H90.8539a4.4224,4.4224,0,0,1-4.4175-4.4179V243.0977a4.4224,4.4224,0,0,1,4.4175-4.4179H235.2072a4.4227,4.4227,0,0,1,4.4179,4.4179Z"/><path d="M492.1824,177.2357a18.9745,18.9745,0,0,0-17.0714-2.83l-82.4972,25.9314a74.167,74.167,0,0,0-67.5827-43.76h-37.1a71.361,71.361,0,1,0-99.6412-87.7514,71.3627,71.3627,0,1,0-99.6411,87.7514H74.08A74.1568,74.1568,0,0,0,0,230.65v86.2422a74.162,74.162,0,0,0,74.08,74.0793H89.3025v29.6768a12.9164,12.9164,0,0,0,12.9021,12.9021h29.683v31.846a12.9213,12.9213,0,0,0,12.9018,12.9081H250.8908a12.9213,12.9213,0,0,0,12.9021-12.9081v-31.846h33.2886a12.9164,12.9164,0,0,0,12.9021-12.9021V390.9716h15.0475a74.2051,74.2051,0,0,0,72.4915-58.82l77.5884,24.3863a19.385,19.385,0,0,0,5.8.8969A19.1787,19.1787,0,0,0,500,338.2725V192.6711A18.9612,18.9612,0,0,0,492.1824,177.2357ZM255.4117,30.18a62.88,62.88,0,1,1-62.88,62.88A62.95,62.95,0,0,1,255.4117,30.18ZM222.893,156.5767H153.6858a71.7607,71.7607,0,0,0,34.6036-39.2822A71.76,71.76,0,0,0,222.893,156.5767ZM58.2868,93.06a62.88,62.88,0,1,1,62.88,62.88A62.9541,62.9541,0,0,1,58.2868,93.06ZM255.3087,465.3965a4.4277,4.4277,0,0,1-4.4179,4.4238H144.7894a4.4275,4.4275,0,0,1-4.4176-4.4238v-31.846H255.3087Zm46.1907-44.7481a4.4227,4.4227,0,0,1-4.4179,4.4179H102.2046a4.4229,4.4229,0,0,1-4.4179-4.4179V390.9716H301.4994ZM390.62,316.8923c0,1.3937-.0426,2.7815-.1334,4.151a65.5333,65.5333,0,0,1-65.4557,61.4441H74.08A65.6687,65.6687,0,0,1,8.4842,316.8923V230.65A65.6635,65.6635,0,0,1,74.08,165.0609H325.0311a65.6683,65.6683,0,0,1,59.42,37.84,63.2973,63.2973,0,0,1,3.1029,7.9205A65.2232,65.2232,0,0,1,390.62,230.65Zm100.8956,21.38a10.66,10.66,0,0,1-13.86,10.1691l-78.8609-24.7863q.309-3.345.3093-6.763V230.65A73.8122,73.8122,0,0,0,395.65,208.276l82.006-25.774a10.66,10.66,0,0,1,13.86,10.1691Z"/><path d="M285.7246,225.5049a16.15,16.15,0,1,0,16.1565,16.15A16.1685,16.1685,0,0,0,285.7246,225.5049Zm0,23.8166a7.6662,7.6662,0,1,1,7.6723-7.6664A7.6791,7.6791,0,0,1,285.7246,249.3215Z"/><path d="M285.7246,269.5319a16.15,16.15,0,1,0,16.1565,16.1506A16.1686,16.1686,0,0,0,285.7246,269.5319Zm0,23.8166a7.6662,7.6662,0,1,1,7.6723-7.666A7.679,7.679,0,0,1,285.7246,293.3485Z"/></svg>